<svg width="400" height="400" viewBox="0 0 400 400" fill="none" xmlns="http://www.w3.org/2000/svg">
<rect width="400" height="400" fill="white"/>
<g clip-path="url(#clip0_389_173)">
<path fill-rule="evenodd" clip-rule="evenodd" d="M107.419 214.94C107.237 215.996 106.617 216.942 105.67 217.488C104.722 218.107 103.921 218.398 103.083 218.689C101.334 219.308 99.4387 219.89 97.5075 220.618C95.4305 221.31 93.5721 222.038 91.9323 222.547C89.8553 223.239 87.8876 223.857 86.0292 224.585C84.6081 225.204 83.2963 225.968 82.0938 226.915C80.9642 227.934 80.0168 229.098 79.1787 230.372C78.3406 231.792 77.8305 233.611 77.8305 235.722C77.8305 239.981 78.8508 243.22 80.9278 245.222C83.0048 247.369 86.8309 248.352 92.5154 248.352C98.1998 248.352 102.245 247.223 104.322 245.003C106.399 242.783 107.419 239.653 107.419 235.613V214.94ZM92.5154 170.101C102.682 170.101 110.115 172.03 114.889 175.961C119.662 179.819 122.031 184.768 122.031 190.628V240.636C122.031 242.674 121.63 244.894 120.901 247.296C120.172 249.735 118.715 251.955 116.456 253.957C114.269 255.995 111.281 257.705 107.455 259.016C103.629 260.326 98.6735 261.054 92.5518 261.054C86.4301 261.054 81.4744 260.362 77.6483 259.016C73.8222 257.669 70.8342 255.995 68.6479 253.957C66.6438 252.137 65.1133 249.844 64.2024 247.296C63.4736 244.858 63.0728 242.638 63.0728 240.636V232.629C63.0728 228.37 64.2024 224.44 66.498 220.982C68.7937 217.452 72.0003 215.013 76.1179 213.485C78.1949 212.793 80.5634 212.065 83.2599 211.155C85.9564 210.245 88.4342 209.335 90.912 208.535C93.3899 207.734 95.5762 206.897 97.4346 206.205C98.5642 205.769 99.6938 205.368 100.86 205.004L102.718 204.095C103.447 203.694 104.176 203.075 104.905 202.275C105.633 201.474 106.253 200.564 106.763 199.545C107.31 198.453 107.601 197.252 107.601 196.015V192.775C107.601 191.574 107.346 190.41 106.872 189.318C106.471 188.117 105.633 186.989 104.504 185.969C103.374 184.95 101.807 184.15 99.9489 183.531C98.0905 182.949 95.6127 182.621 92.8069 182.621C87.0131 182.621 83.187 183.749 81.11 186.079C79.3609 188.117 78.3042 190.628 78.122 193.467C78.122 194.086 77.6119 194.486 76.9924 194.486L64.3846 194.704C63.7651 194.704 63.2549 194.195 63.2549 193.576V190.665C63.2549 187.826 63.7651 185.205 64.9311 182.657C66.0607 180.11 67.8462 177.999 70.2148 176.179C72.5833 174.359 75.717 172.831 79.4338 171.848C83.0777 170.647 87.5232 170.137 92.6975 170.137L92.5154 170.101ZM321.388 214.94C321.206 215.996 320.586 216.942 319.639 217.488C318.728 218.107 317.89 218.398 317.052 218.689C315.303 219.308 313.408 219.89 311.477 220.618C309.4 221.31 307.541 222.038 305.901 222.547C303.824 223.239 301.857 223.857 299.998 224.585C298.577 225.204 297.265 225.968 296.063 226.915C294.933 227.934 293.986 229.098 293.184 230.372C292.346 231.792 291.836 233.611 291.836 235.722C291.836 239.981 292.856 243.22 294.933 245.222C297.01 247.369 300.836 248.352 306.521 248.352C312.205 248.352 316.25 247.223 318.327 245.003C320.404 242.783 321.424 239.653 321.424 235.613V214.94H321.388ZM306.484 170.101C316.651 170.101 324.084 172.03 328.858 175.961C333.631 179.819 336 184.768 336 190.628V240.636C336 242.674 335.599 244.894 334.87 247.296C334.142 249.735 332.684 251.955 330.425 253.957C328.238 255.995 325.25 257.705 321.424 259.016C317.598 260.326 312.643 261.054 306.521 261.054C300.399 261.054 295.443 260.362 291.617 259.016C287.791 257.669 284.767 255.995 282.617 253.957C280.613 252.137 279.082 249.844 278.171 247.296C277.443 244.858 277.042 242.638 277.042 240.636V232.629C277.042 228.37 278.171 224.44 280.467 220.982C282.763 217.452 285.969 215.013 290.087 213.485C292.164 212.793 294.532 212.065 297.229 211.155C299.925 210.245 302.403 209.335 304.881 208.535C307.359 207.734 309.545 206.897 311.404 206.205C312.533 205.769 313.663 205.368 314.829 205.004L316.687 204.095C317.416 203.694 318.145 203.075 318.874 202.275C319.602 201.438 320.258 200.528 320.732 199.545C321.279 198.453 321.57 197.252 321.57 196.015V192.775C321.57 191.574 321.315 190.41 320.841 189.318C320.44 188.117 319.602 186.989 318.473 185.969C317.343 184.95 315.776 184.15 313.918 183.531C312.06 182.949 309.582 182.621 306.776 182.621C300.982 182.621 297.156 183.749 295.079 186.079C293.33 188.117 292.273 190.628 292.091 193.467C292.091 194.086 291.581 194.486 290.961 194.486H278.39C277.771 194.486 277.26 193.977 277.26 193.358V190.41C277.26 187.571 277.771 184.95 278.937 182.403C280.066 179.891 281.815 177.744 284.22 175.924C286.625 174.104 289.723 172.576 293.439 171.557C296.937 170.538 301.419 170.028 306.594 170.028L306.484 170.101ZM262.065 170.501H270.337C271.066 170.501 271.576 171.229 271.357 171.921L268.552 182.439C268.442 182.949 267.932 183.24 267.531 183.24H261.737C258.64 183.24 256.162 183.64 254.195 184.441C252.336 185.242 250.769 186.151 249.749 187.28C248.729 188.408 248.073 189.5 247.781 190.628C247.49 191.72 247.381 192.848 247.381 193.977V259.052C247.381 259.671 246.87 260.18 246.251 260.18H233.825C233.206 260.18 232.696 259.671 232.696 259.052V191.028C232.696 189.827 232.914 188.008 233.424 185.678C233.825 183.349 235.101 181.129 237.068 178.8C239.036 176.579 241.951 174.541 245.85 172.94C249.786 171.302 255.178 170.501 262.102 170.501H262.065ZM220.234 238.416V241.436C220.234 242.747 220.051 244.566 219.505 246.896C219.104 249.116 217.829 251.445 215.861 253.665C213.893 255.886 210.978 257.924 207.079 259.525C203.144 261.163 197.751 261.964 190.827 261.964C183.904 261.964 178.511 261.163 174.576 259.525C170.64 257.924 167.762 255.995 165.794 253.665C163.826 251.445 162.587 249.116 162.15 246.787C161.749 244.457 161.421 242.747 161.421 241.4V173.34C161.421 172.721 161.931 172.212 162.551 172.212H174.867C175.487 172.212 175.997 172.721 175.997 173.34V237.105C175.997 239.216 176.288 240.745 176.616 241.982C176.944 243.183 177.564 244.421 178.475 245.44C179.386 246.568 180.843 247.478 182.811 248.17C184.669 248.898 187.256 249.298 190.463 249.298C193.67 249.298 196.475 248.898 198.443 248.17C200.411 247.478 201.868 246.568 202.889 245.549C203.909 244.53 204.638 243.438 204.966 242.201C205.294 241 205.694 239.981 205.694 237.033V173.231C205.694 172.612 206.205 172.103 206.824 172.103H219.14C219.76 172.103 220.27 172.612 220.27 173.231V238.416H220.161H220.234ZM135.477 138H147.793C148.413 138 148.923 138.51 148.923 139.092V259.671C148.923 260.289 148.413 260.799 147.793 260.799H135.477C134.857 260.799 134.347 260.289 134.347 259.671V139.128C134.456 138.51 134.857 138 135.477 138Z" fill="#151414"/>
</g>
<defs>
<clipPath id="clip0_389_173">
<rect width="273" height="124" fill="white" transform="translate(63 138)"/>
</clipPath>
</defs>
</svg>
