<svg width="66" height="54" viewBox="0 0 66 54" fill="none" xmlns="http://www.w3.org/2000/svg">
<path d="M41.1006 47.1465C41.0789 47.1548 41.0561 47.163 41.0344 47.1713C41.0561 47.163 41.0789 47.1558 41.1006 47.1465Z" fill="#4285F4"/>
<path d="M41.4908 46.9448C41.4536 46.9697 41.4143 46.9924 41.375 47.0152C41.4143 46.9934 41.4526 46.9697 41.4908 46.9448Z" fill="#4285F4"/>
<path d="M41.3001 47.0566C41.2712 47.0721 41.2412 47.0856 41.2112 47.1C41.2412 47.0866 41.2712 47.0721 41.3001 47.0566Z" fill="#4285F4"/>
<path d="M42.0729 46.3731C42.0388 46.4227 42.0026 46.4713 41.9644 46.5178C42.0026 46.4713 42.0388 46.4237 42.0729 46.3731Z" fill="#4285F4"/>
<path d="M40.5074 47.2851C40.4753 47.2882 40.4432 47.2892 40.4102 47.2902C40.4422 47.2892 40.4753 47.2882 40.5074 47.2851Z" fill="#4285F4"/>
<path d="M41.6851 46.8032C41.6791 46.8079 41.6732 46.8139 41.666 46.8186C41.672 46.8139 41.6779 46.8079 41.6851 46.8032Z" fill="#EB4C3F"/>
<path d="M41.8301 46.6718C41.8301 46.6718 41.8256 46.678 41.8225 46.6795L41.8301 46.6718Z" fill="#EB4C3F"/>
<path d="M41.9671 46.5167C41.9671 46.5167 41.9591 46.5274 41.9551 46.5313C41.9591 46.526 41.9631 46.5207 41.9671 46.5167Z" fill="#EB4C3F"/>
<path d="M41.5338 46.9169C41.5199 46.9264 41.5061 46.936 41.4912 46.9456C41.505 46.936 41.5199 46.9264 41.5338 46.9169Z" fill="#EB4C3F"/>
<path d="M42.0996 46.3358C42.091 46.3486 42.0835 46.3615 42.075 46.3733C42.0835 46.3604 42.091 46.3486 42.0996 46.3358Z" fill="#EB4C3F"/>
<path d="M41.0443 43.064H39.6928L39.0165 44.2356C38.3733 45.3503 38.758 46.7887 39.8727 47.4319C40.2667 47.6594 40.701 47.7556 41.127 47.739C41.1632 47.738 41.1994 47.737 41.2346 47.7339C41.2832 47.7297 41.3318 47.7235 41.3804 47.7163C41.4042 47.7132 41.429 47.709 41.4528 47.7049C41.5055 47.6956 41.5583 47.6832 41.611 47.6708C41.6317 47.6656 41.6524 47.6604 41.673 47.6553C41.7227 47.6408 41.7723 47.6253 41.8219 47.6077C41.8468 47.5994 41.8716 47.5901 41.8954 47.5808C41.9367 47.5653 41.9771 47.5467 42.0174 47.5291C42.0505 47.5136 42.0836 47.4981 42.1167 47.4815C42.1446 47.4671 42.1725 47.4516 42.2004 47.436C42.2439 47.4112 42.2873 47.3854 42.3286 47.3575C42.3442 47.3471 42.3597 47.3368 42.3741 47.3264C42.4248 47.2913 42.4744 47.254 42.5231 47.2148C42.5293 47.2096 42.5355 47.2044 42.5406 47.2003C42.5944 47.1558 42.6461 47.1093 42.6947 47.0596C42.6968 47.0576 42.6988 47.0555 42.7009 47.0534C42.7516 47.0028 42.7991 46.95 42.8446 46.8952C42.8477 46.8911 42.8519 46.8859 42.855 46.8818C42.8974 46.8301 42.9377 46.7763 42.9749 46.7215C42.9842 46.7081 42.9925 46.6946 43.0008 46.6812C43.2417 46.313 43.3844 45.8746 43.3844 45.4051C43.3844 44.1177 42.3317 43.065 41.0443 43.065V43.064Z" fill="#004DBC"/>
<path d="M7.58874 45.4041C7.58874 44.1167 8.64143 43.064 9.92885 43.064H17.3969C16.397 39.8025 13.363 37.4314 9.77374 37.4314C5.37065 37.4314 1.80103 41.001 1.80103 45.4041C1.80103 49.8072 5.37065 53.3768 9.77374 53.3768C13.363 53.3768 16.397 51.0057 17.3969 47.7442H9.92885C8.64143 47.7442 7.58874 46.6915 7.58874 45.4041Z" fill="#0071BD"/>
<path d="M39.8706 47.4319C38.7559 46.7887 38.3702 45.3503 39.0144 44.2356L39.6907 43.064H17.395C17.6215 43.8044 17.7445 44.5892 17.7445 45.4041C17.7445 46.2189 17.6215 47.0038 17.395 47.7442H41.0422C41.0702 47.7442 41.0971 47.7411 41.125 47.7401C40.6989 47.7566 40.2646 47.6604 39.8706 47.4329V47.4319Z" fill="#0071BD"/>
<path d="M17.3971 43.064H9.92898C8.64156 43.064 7.58887 44.1167 7.58887 45.4041C7.58887 46.6915 8.64156 47.7442 9.92898 47.7442H17.3971C17.6235 47.0038 17.7466 46.2189 17.7466 45.4041C17.7466 44.5892 17.6235 43.8044 17.3971 43.064Z" fill="#004DBC"/>
<path d="M39.7095 43.0599H41.0611C42.3485 43.0599 43.4012 44.1125 43.4012 45.4C43.4012 45.8705 43.2595 46.3089 43.0175 46.676C43.0403 46.6409 43.0641 46.6078 43.0858 46.5716L51.0027 32.5857L48.948 26.7163L39.7085 43.0599H39.7095Z" fill="#0071BD"/>
<path d="M52.6724 24.9201C51.5576 24.2769 50.1192 24.6616 49.476 25.7763L48.9456 26.7153L51.0003 32.5847L53.5296 28.1165C54.1728 27.0017 53.7881 25.5633 52.6734 24.9201H52.6724Z" fill="#004DBC"/>
<path d="M58.0259 37.4314C57.9028 37.4314 57.7808 37.4355 57.6598 37.4407L60.1747 44.6275C60.5997 45.8425 59.9534 47.1837 58.7394 47.6087C57.5244 48.0337 56.1832 47.3874 55.7582 46.1734L53.2536 39.0176C51.3106 40.4715 50.0542 42.791 50.0542 45.4041C50.0542 49.8072 53.6238 53.3768 58.0269 53.3768C62.43 53.3768 65.9996 49.8072 65.9996 45.4041C65.9996 41.001 62.43 37.4314 58.0269 37.4314H58.0259Z" fill="#34A853"/>
<path d="M57.6385 37.3879L45.1004 1.56448C44.7509 0.564534 43.7799 -0.0486718 42.7696 0.00303194H33.6035C32.3161 0.00303194 31.2634 1.05572 31.2634 2.34314C31.2634 3.63057 32.3161 4.68325 33.6035 4.68325H41.234L48.9461 26.7173L49.4766 25.7784C50.1198 24.6636 51.5582 24.2779 52.6729 24.9222C53.7876 25.5654 54.1734 27.0038 53.5291 28.1185L50.9998 32.5867L53.221 38.9339L53.251 39.0187C54.4898 38.0911 56.0088 37.5162 57.6572 37.4417L57.6385 37.389V37.3879Z" fill="#34A853"/>
<path d="M58.7387 47.6087C59.9537 47.1837 60.599 45.8415 60.174 44.6275L57.6591 37.4407C56.0108 37.5151 54.4918 38.0901 53.2529 39.0177L55.7575 46.1735C56.1825 47.3885 57.5247 48.0337 58.7387 47.6087Z" fill="#277539"/>
<path d="M22.7589 9.99526H9.5993C8.84601 9.99526 8.23535 10.6059 8.23535 11.3592C8.23535 12.1125 8.84601 12.7231 9.5993 12.7231H22.7589C23.5122 12.7231 24.1229 12.1125 24.1229 11.3592C24.1229 10.6059 23.5122 9.99526 22.7589 9.99526Z" fill="#FBBF11"/>
<path d="M25.3856 14.1678H4.52215C3.76886 14.1678 3.1582 14.7784 3.1582 15.5317C3.1582 16.285 3.76886 16.8957 4.52215 16.8957H25.3856C26.1389 16.8957 26.7496 16.285 26.7496 15.5317C26.7496 14.7784 26.1389 14.1678 25.3856 14.1678Z" fill="#FBBF11"/>
<path d="M27.8973 18.3402H1.36395C0.610659 18.3402 0 18.9508 0 19.7041C0 20.4574 0.610659 21.0681 1.36395 21.0681H27.8973C28.6506 21.0681 29.2612 20.4574 29.2612 19.7041C29.2612 18.9508 28.6506 18.3402 27.8973 18.3402Z" fill="#FBBF11"/>
</svg>
