<svg width="66" height="54" viewBox="0 0 66 54" fill="none" xmlns="http://www.w3.org/2000/svg">
<path d="M41.1009 47.6969C41.0791 47.7053 41.0564 47.7137 41.0347 47.7221C41.0564 47.7137 41.0791 47.7064 41.1009 47.6969Z" fill="white"/>
<path d="M41.4911 47.493C41.4538 47.5181 41.4145 47.5411 41.3752 47.5641C41.4145 47.5421 41.4528 47.5181 41.4911 47.493Z" fill="white"/>
<path d="M41.3004 47.606C41.2714 47.6217 41.2414 47.6353 41.2114 47.65C41.2414 47.6364 41.2714 47.6217 41.3004 47.606Z" fill="white"/>
<path d="M42.0732 46.9145C42.0391 46.9647 42.0029 47.0139 41.9646 47.0609C42.0029 47.0139 42.0391 46.9658 42.0732 46.9145Z" fill="white"/>
<path d="M40.5076 47.8371C40.4755 47.8402 40.4435 47.8413 40.4104 47.8423C40.4425 47.8413 40.4755 47.8402 40.5076 47.8371Z" fill="white"/>
<path d="M41.6853 47.3496C41.6794 47.3544 41.6734 47.3603 41.6663 47.3651C41.6722 47.3603 41.6782 47.3544 41.6853 47.3496Z" fill="white"/>
<path d="M41.8304 47.2168C41.8304 47.2168 41.8258 47.2229 41.8228 47.2244L41.8304 47.2168Z" fill="white"/>
<path d="M41.9673 47.0598C41.9673 47.0598 41.9593 47.0705 41.9553 47.0745C41.9593 47.0691 41.9633 47.0638 41.9673 47.0598Z" fill="white"/>
<path d="M41.534 47.4647C41.5202 47.4743 41.5063 47.484 41.4915 47.4937C41.5053 47.484 41.5202 47.4743 41.534 47.4647Z" fill="white"/>
<path d="M42.0999 46.8768C42.0913 46.8898 42.0838 46.9028 42.0752 46.9147C42.0838 46.9017 42.0913 46.8898 42.0999 46.8768Z" fill="white"/>
<path d="M41.0446 43.5668H39.693L39.0167 44.7521C38.3735 45.8798 38.7582 47.335 39.873 47.9857C40.267 48.2159 40.7013 48.3131 41.1273 48.2964C41.1635 48.2954 41.1997 48.2943 41.2349 48.2912C41.2835 48.287 41.3321 48.2807 41.3807 48.2734C41.4044 48.2703 41.4293 48.2661 41.453 48.2619C41.5058 48.2525 41.5585 48.2399 41.6113 48.2274C41.6319 48.2221 41.6526 48.2169 41.6733 48.2117C41.7229 48.197 41.7726 48.1813 41.8222 48.1635C41.847 48.1552 41.8718 48.1458 41.8956 48.1363C41.937 48.1207 41.9773 48.1018 42.0177 48.084C42.0507 48.0683 42.0838 48.0527 42.1169 48.0359C42.1448 48.0213 42.1728 48.0056 42.2007 47.9899C42.2441 47.9648 42.2875 47.9386 42.3289 47.9104C42.3444 47.8999 42.3599 47.8895 42.3744 47.879C42.4251 47.8434 42.4747 47.8058 42.5233 47.766C42.5295 47.7608 42.5357 47.7556 42.5409 47.7514C42.5947 47.7064 42.6464 47.6593 42.695 47.6091C42.697 47.607 42.6991 47.6049 42.7012 47.6028C42.7518 47.5515 42.7994 47.4982 42.8449 47.4428C42.848 47.4386 42.8522 47.4333 42.8553 47.4292C42.8977 47.3768 42.938 47.3224 42.9752 47.267C42.9845 47.2534 42.9928 47.2398 43.0011 47.2262C43.242 46.8538 43.3847 46.4102 43.3847 45.9352C43.3847 44.6328 42.332 43.5678 41.0446 43.5678V43.5668Z" fill="white"/>
<path d="M7.58878 45.9342C7.58878 44.6317 8.64148 43.5668 9.92891 43.5668H17.397C16.3971 40.2672 13.3631 37.8684 9.7738 37.8684C5.37068 37.8684 1.80103 41.4797 1.80103 45.9342C1.80103 50.3887 5.37068 54 9.7738 54C13.3631 54 16.3971 51.6012 17.397 48.3016H9.92891C8.64148 48.3016 7.58878 47.2367 7.58878 45.9342Z" fill="#CECECE"/>
<path d="M39.8708 47.9857C38.756 47.335 38.3703 45.8798 39.0146 44.7521L39.6909 43.5668H17.395C17.6215 44.3158 17.7445 45.1098 17.7445 45.9342C17.7445 46.7586 17.6215 47.5526 17.395 48.3016H41.0424C41.0703 48.3016 41.0972 48.2985 41.1251 48.2975C40.6991 48.3142 40.2648 48.2169 39.8708 47.9867V47.9857Z" fill="white"/>
<path d="M17.3971 43.5668H9.92899C8.64156 43.5668 7.58887 44.6318 7.58887 45.9342C7.58887 47.2367 8.64156 48.3016 9.92899 48.3016H17.3971C17.6236 47.5526 17.7467 46.7586 17.7467 45.9342C17.7467 45.1098 17.6236 44.3158 17.3971 43.5668Z" fill="white"/>
<path d="M39.7098 43.5626H41.0613C42.3488 43.5626 43.4014 44.6276 43.4014 45.93C43.4014 46.406 43.2598 46.8496 43.0178 47.221C43.0406 47.1854 43.0643 47.1519 43.0861 47.1153L51.003 32.9662L48.9483 27.0282L39.7087 43.5626H39.7098Z" fill="white"/>
<path d="M52.6726 25.2111C51.5579 24.5604 50.1195 24.9496 49.4763 26.0773L48.9458 27.0272L51.0005 32.9651L53.5299 28.4447C54.1731 27.317 53.7884 25.8618 52.6737 25.2111H52.6726Z" fill="white"/>
<path d="M58.0262 37.8684C57.9031 37.8684 57.7811 37.8726 57.6601 37.8778L60.175 45.1485C60.6 46.3778 59.9537 47.7346 58.7397 48.1646C57.5247 48.5945 56.1834 47.9407 55.7584 46.7125L53.2539 39.4732C51.3109 40.9441 50.0544 43.2906 50.0544 45.9342C50.0544 50.3887 53.6241 54 58.0272 54C62.4303 54 66 50.3887 66 45.9342C66 41.4797 62.4303 37.8684 58.0272 37.8684H58.0262Z" fill="#CECECE"/>
<path d="M57.6387 37.8245L45.1005 1.58275C44.751 0.571125 43.7799 -0.0492401 42.7697 0.00306734H33.6036C32.3161 0.00306734 31.2634 1.06805 31.2634 2.3705C31.2634 3.67295 32.3161 4.73793 33.6036 4.73793H41.234L48.9462 27.0293L49.4767 26.0794C50.1199 24.9516 51.5583 24.5614 52.6731 25.2131C53.7878 25.8638 54.1735 27.319 53.5293 28.4468L50.9999 32.9672L53.2211 39.3885L53.2511 39.4742C54.4899 38.5358 56.009 37.9542 57.6573 37.8789L57.6387 37.8255V37.8245Z" fill="white"/>
<path d="M58.739 48.1646C59.954 47.7346 60.5993 46.3767 60.1743 45.1486L57.6594 37.8778C56.0111 37.9531 54.492 38.5348 53.2532 39.4732L55.7577 46.7125C56.1827 47.9418 57.525 48.5946 58.739 48.1646Z" fill="white"/>
<path d="M22.759 10.112H9.59931C8.84601 10.112 8.23535 10.7298 8.23535 11.4918C8.23535 12.2539 8.84601 12.8717 9.59931 12.8717H22.759C23.5123 12.8717 24.123 12.2539 24.123 11.4918C24.123 10.7298 23.5123 10.112 22.759 10.112Z" fill="#CECECE"/>
<path d="M25.3858 14.3332H4.52216C3.76886 14.3332 3.1582 14.951 3.1582 15.7131C3.1582 16.4751 3.76886 17.0929 4.52216 17.0929H25.3858C26.1391 17.0929 26.7497 16.4751 26.7497 15.7131C26.7497 14.951 26.1391 14.3332 25.3858 14.3332Z" fill="#CECECE"/>
<path d="M27.8975 18.5543H1.36395C0.610663 18.5543 0 19.1721 0 19.9342C0 20.6963 0.610663 21.3141 1.36395 21.3141H27.8975C28.6507 21.3141 29.2614 20.6963 29.2614 19.9342C29.2614 19.1721 28.6507 18.5543 27.8975 18.5543Z" fill="#CECECE"/>
</svg>
