<svg width="291" height="91" viewBox="0 0 291 91" fill="none" xmlns="http://www.w3.org/2000/svg">
<g clip-path="url(#clip0_94_598)">
<mask id="mask0_94_598" style="mask-type:luminance" maskUnits="userSpaceOnUse" x="0" y="0" width="291" height="91">
<path d="M291 0.078125H0V90.0781H291V0.078125Z" fill="white"/>
</mask>
<g mask="url(#mask0_94_598)">
<mask id="mask1_94_598" style="mask-type:luminance" maskUnits="userSpaceOnUse" x="0" y="0" width="291" height="91">
<path d="M291 0.078125H0V90.0781H291V0.078125Z" fill="white"/>
</mask>
<g mask="url(#mask1_94_598)">
<path d="M55.6394 8.18902C55.2959 7.79359 54.9542 7.40175 54.6128 7.01168C52.5576 4.66774 49.4187 3.26674 46.2153 3.26317C40.9266 3.25601 35.2156 3.25244 28.2456 3.25244C23.869 3.25244 19.6015 3.25422 15.5629 3.25422H14.0731C10.7928 3.25601 8.09386 4.34389 6.0531 6.48922C3.17889 9.51127 3.1771 13.0361 3.1771 14.1938C3.1771 14.7735 3.17531 15.3514 3.17531 15.9455C3.17172 17.7634 3.16816 19.6421 3.19499 21.5351C3.23075 23.972 4.01235 26.4001 5.39492 28.372C6.4323 29.8516 7.51437 31.3654 8.75385 33.0758C8.81824 33.1634 8.854 33.2727 8.854 33.38C8.85044 36.3966 8.84865 39.4135 8.84686 42.4301V42.5751C8.84507 45.7547 8.84507 48.934 8.83969 52.1118C8.83434 55.7028 10.3671 58.8931 13.1555 61.0921C13.6813 61.5073 14.234 61.9707 14.8207 62.4609L19.7714 66.5924L19.9037 66.7015C26.7897 72.4468 33.91 78.389 40.9248 84.2219C42.9136 85.8752 45.5428 86.854 48.1398 86.9059C48.8697 86.9201 49.5849 86.9219 50.0608 86.9219C50.3397 86.9219 50.61 86.9219 50.8711 86.9201H50.8942C51.168 86.9201 51.4362 86.9184 51.7045 86.9184C52.3914 86.9184 52.9046 86.9239 53.3732 86.9363C53.4824 86.9381 53.5842 86.9398 53.688 86.9398C56.6587 86.9398 59.2987 85.8896 61.3252 83.9035C63.4286 81.8405 64.5321 79.1028 64.5159 75.9879C64.5052 73.7208 64.5017 71.4073 64.5 69.1367H65.2994L68.0359 69.1332C69.2163 69.1332 72.8097 69.1295 75.8538 66.1181C78.9445 63.0603 78.9445 59.4211 78.9462 58.2257V53.5181C78.9462 48.9914 78.9462 44.3088 78.9587 39.7052C78.9676 36.7028 77.9284 33.9204 75.9574 31.6571C74.5552 30.0537 55.829 8.4073 55.6394 8.18902ZM77.6225 53.5236V58.2294C77.6225 59.2886 77.6208 62.5128 74.9236 65.1824C72.2659 67.8108 69.0804 67.8145 68.0342 67.8145L65.2976 67.818H63.178C63.18 70.509 63.18 73.2859 63.1942 75.9986C63.2086 78.7485 62.2428 81.1571 60.4004 82.9641C58.6263 84.7032 56.3066 85.6212 53.688 85.6212C53.5949 85.6212 53.5021 85.6194 53.4073 85.6177C52.9279 85.6052 52.4038 85.5997 51.7045 85.5997C51.4325 85.5997 51.1625 85.5997 50.8907 85.6015C50.6242 85.6015 50.347 85.6032 50.0608 85.6032C49.5921 85.6032 48.8856 85.6015 48.1666 85.5872C45.8631 85.5406 43.5307 84.6728 41.769 83.2074C34.749 77.3692 27.6214 71.4215 20.7283 65.6692L20.6192 65.5779L15.672 61.4482C15.0782 60.9509 14.5166 60.4803 13.9765 60.0544C11.5118 58.1112 10.1579 55.2914 10.1632 52.1136C10.1686 48.934 10.1704 45.7547 10.1704 42.5751V42.4301C10.1722 39.2523 10.1722 36.0765 10.1775 32.8987C10.1775 32.8236 10.1525 32.7485 10.1096 32.6876C8.75206 30.8197 7.59127 29.1949 6.47879 27.6115C5.24647 25.8544 4.55072 23.6893 4.51851 21.5154C4.49169 19.6313 4.49527 17.758 4.49885 15.9473C4.50064 15.3532 4.50064 14.7735 4.50064 14.1938C4.50064 13.1667 4.50241 10.0391 7.01179 7.39995C8.7932 5.52659 11.1702 4.57649 14.0748 4.57649H15.5647C19.6051 4.5747 23.8725 4.5747 28.2511 4.5747C35.2174 4.5747 40.9266 4.57829 46.2172 4.58543C49.0466 4.58902 51.8153 5.82182 53.6235 7.88484C53.9652 8.27311 54.3052 8.66317 54.6449 9.05501C54.8345 9.27331 73.5608 30.9215 74.9631 32.5319C76.7211 34.5502 77.6459 37.0319 77.6387 39.7087C77.6225 44.3142 77.6225 48.9966 77.6225 53.5236Z" fill="white"/>
<path d="M52.7418 10.6975C52.4074 10.311 52.0694 9.92452 51.7314 9.53984C50.3918 8.01181 48.3277 7.09928 46.2083 7.09569C40.9373 7.08853 35.2425 7.08496 28.2867 7.08496C24.1229 7.08496 20.0665 7.08676 16.2105 7.08676H14.0713C13.2539 7.08676 10.7696 7.08853 8.82725 9.13009C7.00828 11.041 7.00828 13.3313 7.00828 14.1919C7.00828 14.7734 7.00649 15.3549 7.00649 15.9508C7.00291 17.7561 6.99932 19.6205 7.02615 21.4778C7.05121 23.1525 7.58418 24.8183 8.53035 26.1674C9.60884 27.7062 12.1021 31.156 12.5993 31.8447C12.6566 31.9252 12.687 32.0183 12.687 32.1166C12.6852 33.1563 12.6798 39.3346 12.678 42.4301V42.5982C12.6762 45.7706 12.6762 48.9429 12.6709 52.1152C12.6673 54.5058 13.6814 56.6242 15.5272 58.0806C16.0978 58.5298 16.6683 59.0093 17.2747 59.5176L22.3791 63.7778C28.8949 69.2152 36.2798 75.3758 43.3735 81.275C44.7059 82.3826 46.4711 83.0391 48.2187 83.075C48.9108 83.0893 49.5994 83.091 50.0555 83.091C50.3363 83.091 50.6081 83.091 50.8711 83.0893C51.1483 83.0893 51.4273 83.0875 51.708 83.0875C52.1928 83.0875 52.8314 83.0892 53.4698 83.1055C53.5432 83.1072 53.6166 83.1072 53.688 83.1072C55.6339 83.1072 57.3474 82.4363 58.6424 81.1677C59.9891 79.8471 60.6939 78.0633 60.6832 76.0093C60.6687 73.2287 60.6687 70.4176 60.667 67.6979V65.3131L61.5846 65.3076C62.0746 65.3041 62.5629 65.3041 63.0494 65.3041H65.2942L68.0287 65.3003C68.9052 65.3003 71.2321 65.2986 73.1549 63.3948C75.108 61.4625 75.108 59.1955 75.1097 58.2274V53.391C75.1097 48.9037 75.1097 44.2623 75.1222 39.6961C75.1276 37.6366 74.4157 35.7293 73.0636 34.1761C71.6597 32.5658 52.928 10.9122 52.7418 10.6975ZM72.9974 53.3947V58.2293C72.9974 59.0523 72.9974 60.584 71.6704 61.8955C70.3629 63.1892 68.787 63.1892 68.0287 63.1909L65.2922 63.1944H63.0529C62.5611 63.1944 62.0693 63.1962 61.5756 63.1979L58.5529 63.2159V67.6802C58.5566 70.4087 58.5566 73.2322 58.5708 76.0252C58.578 77.5158 58.1059 78.7397 57.1649 79.6629C56.2618 80.5485 55.0921 80.9976 53.6898 80.9976C53.6343 80.9976 53.579 80.9976 53.5253 80.9958C52.919 80.9798 52.3125 80.9761 51.7098 80.9761C51.4273 80.9761 51.1466 80.9761 50.8674 80.9779C50.6081 80.9779 50.3363 80.9798 50.0573 80.9798C49.4794 80.9798 48.8677 80.9761 48.2632 80.9636C47.0059 80.9387 45.6842 80.4466 44.7273 79.6522C37.725 73.828 30.6138 67.8948 23.7367 62.1567L18.6428 57.9055C18.0222 57.3865 17.4374 56.8944 16.8418 56.4239C15.4968 55.3629 14.7868 53.876 14.7903 52.1242C14.7957 48.9429 14.7975 45.7616 14.7975 42.582V42.4353C14.7993 39.0501 14.7993 35.663 14.8064 32.2778V31.4941C14.8082 31.3581 14.7653 31.2256 14.6848 31.1166L14.2234 30.4831C12.7192 28.4201 11.4618 26.6647 10.267 24.9598C9.56235 23.954 9.16349 22.7106 9.1456 21.4545C9.11877 19.6134 9.12235 17.7579 9.12594 15.9615C9.12773 15.3657 9.12773 14.7824 9.12773 14.2009C9.12773 13.453 9.12773 11.8945 10.3636 10.5955C11.6818 9.20881 13.3613 9.20881 14.0767 9.20881H15.5666C19.614 9.20703 23.8942 9.20703 28.2922 9.20703C34.1443 9.20703 40.2059 9.20881 46.2101 9.21776C47.707 9.21956 49.2149 9.8798 50.1466 10.9408C50.4829 11.3237 50.8173 11.7066 51.1466 12.0877C51.336 12.306 70.0677 33.9615 71.4753 35.5771C72.4859 36.7366 73.017 38.1644 73.0135 39.7014C72.9974 44.2605 72.9974 48.9037 72.9974 53.3947Z" fill="white"/>
<path d="M62.5342 31.462C61.581 30.3526 60.6276 29.2433 59.551 27.9907C59.5277 28.3807 59.5062 28.5866 59.5062 28.7942C59.5045 36.1426 59.5062 43.4893 59.5045 50.8378C59.5045 51.7201 59.4866 51.7308 58.6298 51.7308C52.5611 51.729 46.4925 51.7415 40.4221 51.7128C39.8607 51.7111 39.6603 51.8703 39.6049 52.262V70.0527C42.1821 72.2017 44.7594 74.3506 47.3404 76.4959C47.6015 76.7125 48.0039 76.8557 48.3438 76.8627C50.1018 76.8986 51.8618 76.8502 53.6201 76.8949C54.289 76.9111 54.4732 76.7125 54.4697 76.0415C54.4428 70.6737 54.4642 65.3059 54.4411 59.9381C54.4373 59.2796 54.6163 59.072 55.2942 59.0775C59.5384 59.1079 63.7828 59.0935 68.0252 59.09C68.8962 59.09 68.8997 59.0828 68.8997 58.2274C68.9015 52.0457 68.8962 45.8637 68.9122 39.6817C68.9142 39.1146 68.7531 38.6852 68.3828 38.2593C66.4208 36.0066 64.4821 33.7308 62.5342 31.462Z" fill="white"/>
<path d="M78.3469 29.5778C76.9501 27.9746 58.2273 6.33161 58.0377 6.11152C57.6873 5.70715 57.3421 5.31172 56.9969 4.91809C54.3497 1.8996 50.3201 0.0942284 46.219 0.0888606C40.9266 0.0817035 35.2121 0.078125 28.2384 0.078125C23.8635 0.078125 19.5961 0.0799143 15.5593 0.0799143H14.0695C8.85938 0.0817035 5.58449 2.37553 3.753 4.29899C1.26511 6.91311 0.00417331 10.2411 0.00417331 14.1901C0.00417331 14.768 0.00238475 15.3459 0.00238475 15.9364C-0.00119238 17.7668 -0.00476952 19.6598 0.0238476 21.5779C0.0685617 24.6446 1.05406 27.7027 2.7979 30.1896C3.68146 31.4494 4.59542 32.7321 5.61132 34.1386C5.65604 34.2013 5.68108 34.2764 5.68108 34.3515C5.67752 37.0425 5.67752 39.7335 5.67572 42.4245V42.5678C5.67393 45.7473 5.67393 48.9232 5.66856 52.101C5.66141 56.6207 7.67355 60.804 11.1917 63.5791C11.6817 63.9656 12.2165 64.4148 12.7835 64.8888L17.7378 69.0238L17.829 69.1009C24.7293 74.8587 31.8638 80.8134 38.8948 86.6588C41.4631 88.7934 44.7218 90.0065 48.0738 90.0764C48.8321 90.0924 49.5707 90.0943 50.059 90.0943C50.3487 90.0943 50.6296 90.0943 50.8997 90.0924C51.1662 90.0924 51.4345 90.0906 51.7028 90.0906C52.3608 90.0906 52.851 90.0961 53.291 90.1068C53.4286 90.1103 53.5573 90.1121 53.6862 90.1121C57.4493 90.1121 60.9496 88.711 63.5431 86.1705C66.2348 83.5311 67.7049 79.9097 67.6852 75.9733C67.68 74.7619 67.6745 73.5345 67.6728 72.3089H68.0376C72.069 72.3072 75.4477 70.983 78.0822 68.3778C80.7562 65.7317 82.1138 62.3176 82.1155 58.231V53.5235C82.1155 48.9985 82.1155 44.3176 82.128 39.7175C82.1387 35.9367 80.8314 32.4297 78.3469 29.5778ZM81.586 53.5252V58.2328C81.5842 62.1746 80.2804 65.4615 77.7103 68.004C75.1794 70.5089 71.9242 71.7792 68.0376 71.7829H67.1452C67.1469 73.1875 67.1504 74.592 67.1576 75.9805C67.1773 79.7737 65.7625 83.2591 63.1745 85.7982C60.6814 88.2424 57.3117 89.5896 53.688 89.5896C53.5645 89.5896 53.4394 89.5878 53.307 89.5843C52.8617 89.5736 52.368 89.5681 51.7062 89.5681C51.438 89.5681 51.1697 89.5681 50.9032 89.5699C50.6331 89.5699 50.3524 89.5718 50.0642 89.5718C49.5779 89.5718 48.8428 89.5699 48.0897 89.5539C44.9042 89.4895 41.6796 88.2871 39.238 86.2598C32.209 80.4144 25.0728 74.4597 18.1724 68.7017L18.0812 68.6248L13.1269 64.4899C12.5563 64.0121 12.018 63.5612 11.5226 63.1694C8.13321 60.4962 6.19262 56.4632 6.19976 52.1082C6.20514 48.9304 6.20693 45.7526 6.20693 42.5732V42.43C6.20693 39.6691 6.2087 36.9065 6.21228 34.1456C6.21228 34.0957 6.19618 34.0473 6.16756 34.0062C5.10338 32.5353 4.15186 31.2006 3.23432 29.8909C1.5495 27.4896 0.597977 24.5356 0.555052 21.5744C0.526435 19.6598 0.5318 17.7686 0.53359 15.94C0.535377 15.3477 0.535377 14.7716 0.535377 14.1936C0.537166 10.3843 1.74803 7.17972 4.13934 4.66758C6.69877 1.97832 10.0398 0.613115 14.073 0.611326H15.5629C19.5997 0.609537 23.8672 0.609537 28.2421 0.609537C35.2156 0.609537 40.9283 0.613115 46.2207 0.620273C50.1717 0.62564 54.0528 2.36301 56.6015 5.26878C56.9466 5.66242 57.292 6.05785 57.6407 6.46044C57.8304 6.67872 76.5531 28.3217 77.95 29.9266C80.3483 32.6802 81.6111 36.0674 81.6004 39.7193C81.586 44.3196 81.586 48.9985 81.586 53.5252Z" fill="white"/>
<path d="M48.85 30.0377C45.9953 30.0574 43.1408 30.0681 40.2863 30.0447C39.7122 30.0394 39.5852 30.2505 39.5942 30.7712C39.6191 32.3529 39.6031 33.9346 39.6049 35.5163C39.6066 37.1196 39.6191 38.7245 39.5977 40.3277C39.5905 40.8377 39.7711 41.0201 40.288 41.0166C43.1425 41.0004 45.9973 41.0023 48.8518 41.0183C49.3363 41.0218 49.5118 40.8447 49.51 40.3634C49.4974 37.1339 49.4956 33.9042 49.51 30.6747C49.5118 30.1826 49.3274 30.0339 48.85 30.0377Z" fill="white"/>
<path d="M28.6141 59.4138V56.9571C28.6034 48.2685 28.6034 39.5779 28.6231 30.8893C28.6248 30.2166 28.4369 30.009 27.7717 30.0377C26.5644 30.0859 25.3535 30.0537 24.1445 30.0537C23.1839 30.0537 23.1732 30.0519 23.1714 29.0626C23.1662 26.4879 23.1679 23.9149 23.1714 21.3401C23.1732 20.3649 23.1804 20.3649 24.1748 20.3649C33.411 20.3649 42.6452 20.3631 51.8814 20.3631H52.7365C52.5917 20.1198 52.5504 20.0178 52.4807 19.9373C50.6814 17.8314 48.8893 15.7201 47.0631 13.6373C46.8807 13.4298 46.4925 13.3099 46.201 13.3099C35.4928 13.2956 24.7828 13.2992 14.0748 13.3028C13.2199 13.3028 13.2199 13.3081 13.2181 14.1974C13.2181 16.595 13.2002 18.9925 13.2342 21.3902C13.2395 21.7981 13.3791 22.2686 13.6134 22.6014C15.1909 24.8506 16.8006 27.0765 18.4246 29.2934C18.7537 29.7425 18.9003 30.1862 18.9003 30.7461C18.8842 37.8747 18.8932 45.0014 18.8824 52.1298C18.8824 52.5896 19.0094 52.917 19.3743 53.2052C20.1845 53.8439 20.9715 54.5149 21.7656 55.1768C24.0479 57.0824 26.3318 58.9862 28.6141 60.8917V60.4855C28.5711 60.2869 28.6069 59.956 28.6141 59.4138Z" fill="white"/>
<path d="M92.8411 26.1992H101.255C106.388 26.2137 108.952 29.0264 108.952 34.6358V45.9331C108.952 50.0735 107.108 52.7431 103.419 53.9418C102.533 54.2282 101.247 54.3712 99.559 54.3712H98.62V66.2825H92.8411V26.1992ZM98.62 31.8999V48.651H99.947C100.75 48.651 101.301 48.5974 101.601 48.4864C102.65 48.0642 103.174 47.2143 103.174 45.9331V34.6375C103.174 32.8124 102.337 31.8999 100.661 31.8999H98.62Z" fill="white"/>
<path d="M131.42 58.4974C131.42 64.1085 128.65 66.9213 123.109 66.9355C117.582 66.9355 114.819 64.1227 114.819 58.4974V26.1992H120.598V58.4974C120.598 60.3081 121.435 61.2151 123.109 61.2151C124.783 61.2151 125.641 60.3099 125.641 58.4974V26.1992H131.42V58.4974Z" fill="white"/>
<path d="M137.028 66.2825V26.1992H142.807V60.5818H152.016V66.2805H137.028V66.2825Z" fill="white"/>
<path d="M159.521 54.4735V58.4974C159.521 60.3084 160.365 61.2154 162.053 61.2154C163.742 61.2154 164.564 60.3101 164.564 58.4974V57.7621C164.564 55.8278 162.76 53.568 159.152 50.979C155.545 48.4043 153.74 45.2731 153.74 41.5818V33.9828C153.74 28.3717 156.503 25.5662 162.032 25.5662C167.56 25.5662 170.343 28.3717 170.343 33.9828V39.3756H164.564V33.9828C164.564 32.1846 163.727 31.2793 162.053 31.2649H162.012C160.35 31.2649 159.521 32.1703 159.521 33.9828V41.46C159.521 43.244 161.323 45.4305 164.933 48.0178C168.54 50.5925 170.343 53.6773 170.343 57.2718V58.4974C170.343 64.123 167.58 66.9357 162.053 66.9357C156.512 66.9213 153.742 64.1087 153.742 58.4974V54.4735H159.521Z" fill="white"/>
<path d="M175.07 26.1992H190.059V31.8999H180.849V48.7137H188.773V54.4338H180.849V60.5836H190.059V66.2825H175.07V26.1992Z" fill="white"/>
<path d="M221.024 53.6573L227.742 26.2012H233.521V66.2825H227.987V43.7895L223.045 66.2825H219.124L214.04 43.7895V66.2825H208.445V26.1992H214.224L221.024 53.6573Z" fill="white"/>
<path d="M248.272 35.3926L244.189 66.2805H238.369L244.331 26.1992H252.255L258.197 66.2805H252.355L248.272 35.3926Z" fill="white"/>
<path d="M263.084 26.1992H268.863V66.2805H263.084V26.1992Z" fill="white"/>
<path d="M280.181 54.4735V58.4974C280.181 60.3084 281.025 61.2154 282.713 61.2154C284.402 61.2154 285.224 60.3101 285.224 58.4974V57.7621C285.224 55.8278 283.419 53.568 279.812 50.979C276.205 48.4043 274.403 45.2731 274.403 41.5818V33.9828C274.403 28.3717 277.164 25.5662 282.692 25.5662C288.219 25.5662 291.004 28.3717 291.004 33.9828V39.3756H285.224V33.9828C285.224 32.1846 284.387 31.2793 282.713 31.2649H282.672C281.012 31.2649 280.181 32.1703 280.181 33.9828V41.46C280.181 43.244 281.986 45.4305 285.593 48.0178C289.2 50.5925 291.004 53.6773 291.004 57.2718V58.4974C291.004 64.123 288.243 66.9357 282.713 66.9357C277.173 66.9213 274.403 64.1087 274.403 58.4974V54.4735H280.181Z" fill="white"/>
</g>
</g>
</g>
<defs>
<clipPath id="clip0_94_598">
<rect width="291" height="90" fill="white" transform="translate(0 0.078125)"/>
</clipPath>
</defs>
</svg>