<svg width="1627" height="503" viewBox="0 0 1627 503" fill="none" xmlns="http://www.w3.org/2000/svg">
<g clip-path="url(#clip0_1993_10413)">
<path d="M438.043 164.87C430.233 155.91 325.553 34.95 324.493 33.72C322.533 31.46 320.603 29.25 318.673 27.05C303.873 10.18 281.343 0.09 258.413 0.06C228.823 0.02 196.873 0 157.883 0C133.423 0 109.563 0.01 86.9933 0.01H78.6633C49.5333 0.02 31.2233 12.84 20.9833 23.59C7.07333 38.2 0.0233333 56.8 0.0233333 78.87C0.0233333 82.1 0.0133333 85.33 0.0133333 88.63C-0.00666667 98.86 -0.0266667 109.44 0.133333 120.16C0.383333 137.3 5.89333 154.39 15.6433 168.29C20.5833 175.33 25.6933 182.5 31.3733 190.36C31.6233 190.71 31.7633 191.13 31.7633 191.55C31.7433 206.59 31.7433 221.63 31.7333 236.67V237.47C31.7233 255.24 31.7233 272.99 31.6933 290.75C31.6533 316.01 42.9033 339.39 62.5733 354.9C65.3133 357.06 68.3033 359.57 71.4733 362.22L99.1733 385.33L99.6833 385.76C138.263 417.94 178.153 451.22 217.463 483.89C231.823 495.82 250.043 502.6 268.783 502.99C273.023 503.08 277.153 503.09 279.883 503.09C281.503 503.09 283.073 503.09 284.583 503.08C286.073 503.08 287.573 503.07 289.073 503.07C292.753 503.07 295.493 503.1 297.953 503.16C298.723 503.18 299.443 503.19 300.163 503.19C321.203 503.19 340.773 495.36 355.273 481.16C370.323 466.41 378.543 446.17 378.433 424.17C378.403 417.4 378.373 410.54 378.363 403.69H380.403C402.943 403.68 421.833 396.28 436.563 381.72C451.513 366.93 459.103 347.85 459.113 325.01V298.7C459.113 273.41 459.113 247.25 459.183 221.54C459.243 200.41 451.933 180.81 438.043 164.87Z" fill="white"/>
<path d="M311.083 45.3302C309.163 43.1202 307.253 40.9302 305.343 38.7502C293.853 25.6502 276.303 17.8202 258.393 17.8002C228.823 17.7602 196.893 17.7402 157.923 17.7402C133.453 17.7402 109.593 17.7502 87.0132 17.7502H78.6832C60.3432 17.7602 45.2532 23.8402 33.8432 35.8302C17.7732 52.7202 17.7632 72.4202 17.7632 78.8902C17.7632 82.1302 17.7532 85.3602 17.7532 88.6802C17.7332 98.8402 17.7132 109.34 17.8632 119.92C18.0632 133.54 22.4332 147.11 30.1632 158.13C35.9632 166.4 42.0132 174.86 48.9432 184.42C49.3032 184.91 49.5032 185.52 49.5032 186.12C49.4832 202.98 49.4732 219.84 49.4632 236.7V237.51C49.4532 255.28 49.4532 273.05 49.4232 290.81C49.3932 310.88 57.9632 328.71 73.5532 341C76.4932 343.32 79.5832 345.91 82.8632 348.65L110.543 371.74L111.283 372.35C149.783 404.46 189.593 437.67 228.813 470.27C239.933 479.51 254.633 484.98 269.153 485.27C273.233 485.35 277.233 485.36 279.893 485.36C281.453 485.36 282.963 485.36 284.423 485.35H284.553C286.083 485.35 287.583 485.34 289.083 485.34C292.923 485.34 295.793 485.37 298.413 485.44C299.023 485.45 299.593 485.46 300.173 485.46C316.783 485.46 331.543 479.59 342.873 468.49C354.633 456.96 360.803 441.66 360.713 424.25C360.653 411.58 360.633 398.65 360.623 385.96H365.093L380.393 385.94C386.993 385.94 407.083 385.92 424.103 369.09C441.383 352 441.383 331.66 441.393 324.98V298.67C441.393 273.37 441.393 247.2 441.463 221.47C441.513 204.69 435.703 189.14 424.683 176.49C416.843 167.53 312.143 46.5502 311.083 45.3302ZM433.993 298.7V325C433.993 330.92 433.983 348.94 418.903 363.86C404.043 378.55 386.233 378.57 380.383 378.57L365.083 378.59H353.233C353.243 393.63 353.243 409.15 353.323 424.31C353.403 439.68 348.003 453.14 337.703 463.24C327.783 472.96 314.813 478.09 300.173 478.09C299.653 478.09 299.133 478.08 298.603 478.07C295.923 478 292.993 477.97 289.083 477.97C287.563 477.97 286.053 477.97 284.533 477.98C283.043 477.98 281.493 477.99 279.893 477.99C277.273 477.99 273.323 477.98 269.303 477.9C256.423 477.64 243.383 472.79 233.533 464.6C194.283 431.97 154.433 398.73 115.893 366.58L115.283 366.07L87.6232 342.99C84.3032 340.21 81.1632 337.58 78.1432 335.2C64.3632 324.34 56.7932 308.58 56.8232 290.82C56.8532 273.05 56.8632 255.28 56.8632 237.51V236.7C56.8732 218.94 56.8732 201.19 56.9032 183.43C56.9032 183.01 56.7632 182.59 56.5232 182.25C48.9332 171.81 42.4432 162.73 36.2232 153.88C29.3332 144.06 25.4432 131.96 25.2632 119.81C25.1132 109.28 25.1332 98.8102 25.1532 88.6902C25.1632 85.3702 25.1632 82.1302 25.1632 78.8902C25.1632 73.1502 25.1732 55.6702 39.2032 40.9202C49.1632 30.4502 62.4532 25.1402 78.6932 25.1402H87.0232C109.613 25.1302 133.473 25.1302 157.953 25.1302C196.903 25.1302 228.823 25.1502 258.403 25.1902C274.223 25.2102 289.703 32.1002 299.813 43.6302C301.723 45.8002 303.623 47.9802 305.523 50.1702C306.583 51.3902 411.283 172.38 419.123 181.38C428.953 192.66 434.123 206.53 434.083 221.49C433.993 247.23 433.993 273.4 433.993 298.7Z" fill="#003870"/>
<path d="M294.883 59.3502C293.013 57.1902 291.123 55.0302 289.233 52.8802C281.743 44.3402 270.203 39.2402 258.353 39.2202C228.883 39.1802 197.043 39.1602 158.153 39.1602C134.873 39.1602 112.193 39.1702 90.6334 39.1702H78.6734C74.1034 39.1702 60.2134 39.1802 49.3534 50.5902C39.1834 61.2702 39.1834 74.0702 39.1834 78.8802C39.1834 82.1302 39.1734 85.3802 39.1734 88.7102C39.1534 98.8002 39.1334 109.22 39.2834 119.6C39.4234 128.96 42.4034 138.27 47.6934 145.81C53.7234 154.41 67.6634 173.69 70.4434 177.54C70.7634 177.99 70.9334 178.51 70.9334 179.06C70.9234 184.87 70.8934 219.4 70.8834 236.7V237.64C70.8734 255.37 70.8734 273.1 70.8434 290.83C70.8234 304.19 76.4934 316.03 86.8134 324.17C90.0034 326.68 93.1934 329.36 96.5834 332.2L125.123 356.01C161.553 386.4 202.843 420.83 242.503 453.8C249.953 459.99 259.823 463.66 269.593 463.86C273.463 463.94 277.313 463.95 279.863 463.95C281.433 463.95 282.953 463.95 284.423 463.94C285.973 463.94 287.533 463.93 289.103 463.93C291.813 463.93 295.383 463.94 298.953 464.03C299.363 464.04 299.773 464.04 300.173 464.04C311.053 464.04 320.633 460.29 327.873 453.2C335.403 445.82 339.343 435.85 339.283 424.37C339.203 408.83 339.203 393.12 339.193 377.92V364.59L344.323 364.56C347.063 364.54 349.793 364.54 352.513 364.54H365.063L380.353 364.52C385.253 364.52 398.263 364.51 409.013 353.87C419.933 343.07 419.933 330.4 419.943 324.99V297.96C419.943 272.88 419.943 246.94 420.013 221.42C420.043 209.91 416.063 199.25 408.503 190.57C400.653 181.57 295.923 60.5502 294.883 59.3502ZM408.133 297.98V325C408.133 329.6 408.133 338.16 400.713 345.49C393.403 352.72 384.593 352.72 380.353 352.73L365.053 352.75H352.533C349.783 352.75 347.033 352.76 344.273 352.77L327.373 352.87V377.82C327.393 393.07 327.393 408.85 327.473 424.46C327.513 432.79 324.873 439.63 319.613 444.79C314.563 449.74 308.023 452.25 300.183 452.25C299.873 452.25 299.563 452.25 299.263 452.24C295.873 452.15 292.483 452.13 289.113 452.13C287.533 452.13 285.963 452.13 284.403 452.14C282.953 452.14 281.433 452.15 279.873 452.15C276.643 452.15 273.223 452.13 269.843 452.06C262.813 451.92 255.423 449.17 250.073 444.73C210.923 412.18 171.163 379.02 132.713 346.95L104.233 323.19C100.763 320.29 97.4934 317.54 94.1634 314.91C86.6434 308.98 82.6734 300.67 82.6934 290.88C82.7234 273.1 82.7334 255.32 82.7334 237.55V236.73C82.7434 217.81 82.7434 198.88 82.7834 179.96V175.58C82.7934 174.82 82.5534 174.08 82.1034 173.47L79.5234 169.93C71.1134 158.4 64.0834 148.59 57.4034 139.06C53.4634 133.44 51.2334 126.49 51.1334 119.47C50.9834 109.18 51.0034 98.8102 51.0234 88.7702C51.0334 85.4402 51.0334 82.1802 51.0334 78.9302C51.0334 74.7502 51.0334 66.0402 57.9434 58.7802C65.3134 51.0302 74.7034 51.0302 78.7034 51.0302H87.0334C109.663 51.0202 133.593 51.0202 158.183 51.0202C190.903 51.0202 224.793 51.0302 258.363 51.0802C266.733 51.0902 275.163 54.7802 280.373 60.7102C282.253 62.8502 284.123 64.9902 285.963 67.1202C287.023 68.3402 391.753 189.37 399.623 198.4C405.273 204.88 408.243 212.86 408.223 221.45C408.133 246.93 408.133 272.88 408.133 297.98Z" fill="#003870"/>
<path d="M349.633 175.4C344.303 169.2 338.973 163 332.953 156C332.823 158.18 332.703 159.33 332.703 160.49C332.693 201.56 332.703 242.62 332.693 283.69C332.693 288.62 332.593 288.68 327.803 288.68C293.873 288.67 259.943 288.74 226.003 288.58C222.863 288.57 221.743 289.46 221.433 291.65V391.08C235.843 403.09 250.253 415.1 264.683 427.09C266.143 428.3 268.393 429.1 270.293 429.14C280.123 429.34 289.963 429.07 299.793 429.32C303.533 429.41 304.563 428.3 304.543 424.55C304.393 394.55 304.513 364.55 304.383 334.55C304.363 330.87 305.363 329.71 309.153 329.74C332.883 329.91 356.613 329.83 380.333 329.81C385.203 329.81 385.223 329.77 385.223 324.99C385.233 290.44 385.203 255.89 385.293 221.34C385.303 218.17 384.403 215.77 382.333 213.39C371.363 200.8 360.523 188.08 349.633 175.4Z" fill="#003870"/>
<path d="M438.043 164.87C430.233 155.91 325.553 34.95 324.493 33.72C322.533 31.46 320.603 29.25 318.673 27.05C303.873 10.18 281.343 0.09 258.413 0.06C228.823 0.02 196.873 0 157.883 0C133.423 0 109.563 0.01 86.9933 0.01H78.6633C49.5333 0.02 31.2233 12.84 20.9833 23.59C7.07333 38.2 0.0233333 56.8 0.0233333 78.87C0.0233333 82.1 0.0133333 85.33 0.0133333 88.63C-0.00666667 98.86 -0.0266667 109.44 0.133333 120.16C0.383333 137.3 5.89333 154.39 15.6433 168.29C20.5833 175.33 25.6933 182.5 31.3733 190.36C31.6233 190.71 31.7633 191.13 31.7633 191.55C31.7433 206.59 31.7433 221.63 31.7333 236.67V237.47C31.7233 255.24 31.7233 272.99 31.6933 290.75C31.6533 316.01 42.9033 339.39 62.5733 354.9C65.3133 357.06 68.3033 359.57 71.4733 362.22L99.1733 385.33L99.6833 385.76C138.263 417.94 178.153 451.22 217.463 483.89C231.823 495.82 250.043 502.6 268.783 502.99C273.023 503.08 277.153 503.09 279.883 503.09C281.503 503.09 283.073 503.09 284.583 503.08C286.073 503.08 287.573 503.07 289.073 503.07C292.753 503.07 295.493 503.1 297.953 503.16C298.723 503.18 299.443 503.19 300.163 503.19C321.203 503.19 340.773 495.36 355.273 481.16C370.323 466.41 378.543 446.17 378.433 424.17C378.403 417.4 378.373 410.54 378.363 403.69H380.403C402.943 403.68 421.833 396.28 436.563 381.72C451.513 366.93 459.103 347.85 459.113 325.01V298.7C459.113 273.41 459.113 247.25 459.183 221.54C459.243 200.41 451.933 180.81 438.043 164.87ZM456.153 298.71V325.02C456.143 347.05 448.853 365.42 434.483 379.63C420.333 393.63 402.133 400.73 380.403 400.75H375.413C375.423 408.6 375.443 416.45 375.483 424.21C375.593 445.41 367.683 464.89 353.213 479.08C339.273 492.74 320.433 500.27 300.173 500.27C299.483 500.27 298.783 500.26 298.043 500.24C295.553 500.18 292.793 500.15 289.093 500.15C287.593 500.15 286.093 500.15 284.603 500.16C283.093 500.16 281.523 500.17 279.913 500.17C277.193 500.17 273.083 500.16 268.873 500.07C251.063 499.71 233.033 492.99 219.383 481.66C180.083 448.99 140.183 415.71 101.603 383.53L101.093 383.1L73.3933 359.99C70.2033 357.32 67.1933 354.8 64.4233 352.61C45.4733 337.67 34.6233 315.13 34.6633 290.79C34.6933 273.03 34.7033 255.27 34.7033 237.5V236.7C34.7033 221.27 34.7133 205.83 34.7333 190.4C34.7333 190.12 34.6433 189.85 34.4833 189.62C28.5333 181.4 23.2133 173.94 18.0833 166.62C8.66333 153.2 3.34333 136.69 3.10333 120.14C2.94333 109.44 2.97333 98.87 2.98333 88.65C2.99333 85.34 2.99333 82.12 2.99333 78.89C3.00333 57.6 9.77333 39.69 23.1433 25.65C37.4533 10.62 56.1333 2.99 78.6833 2.98H87.0133C109.583 2.97 133.443 2.97 157.903 2.97C196.893 2.97 228.833 2.99 258.423 3.03C280.513 3.06 302.213 12.77 316.463 29.01C318.393 31.21 320.323 33.42 322.273 35.67C323.333 36.89 428.013 157.85 435.823 166.82C449.233 182.21 456.293 201.14 456.233 221.55C456.153 247.26 456.153 273.41 456.153 298.71Z" fill="#003870"/>
<path d="M273.123 167.44C257.163 167.55 241.203 167.61 225.243 167.48C222.033 167.45 221.323 168.63 221.373 171.54C221.513 180.38 221.423 189.22 221.433 198.06C221.443 207.02 221.513 215.99 221.393 224.95C221.353 227.8 222.363 228.82 225.253 228.8C241.213 228.71 257.173 228.72 273.133 228.81C275.843 228.83 276.823 227.84 276.813 225.15C276.743 207.1 276.733 189.05 276.813 171C276.823 168.25 275.793 167.42 273.123 167.44Z" fill="#003870"/>
<path d="M159.983 331.62V317.89C159.923 269.33 159.923 220.76 160.033 172.2C160.043 168.44 158.993 167.28 155.273 167.44C148.523 167.71 141.753 167.53 134.993 167.53C129.623 167.53 129.563 167.52 129.553 161.99C129.523 147.6 129.533 133.22 129.553 118.83C129.563 113.38 129.603 113.38 135.163 113.38C186.803 113.38 238.433 113.37 290.073 113.37H294.853C294.043 112.01 293.813 111.44 293.423 110.99C283.363 99.2205 273.343 87.4205 263.133 75.7805C262.113 74.6205 259.943 73.9505 258.313 73.9505C198.443 73.8705 138.563 73.8905 78.6933 73.9105C73.9133 73.9105 73.9133 73.9405 73.9033 78.9105C73.9033 92.3105 73.8032 105.71 73.9932 119.11C74.0232 121.39 74.8033 124.02 76.1133 125.88C84.9333 138.45 93.9333 150.89 103.013 163.28C104.853 165.79 105.673 168.27 105.673 171.4C105.583 211.24 105.633 251.07 105.573 290.91C105.573 293.48 106.283 295.31 108.323 296.92C112.853 300.49 117.253 304.24 121.693 307.94C134.453 318.59 147.223 329.23 159.983 339.88V337.61C159.743 336.5 159.943 334.65 159.983 331.62Z" fill="#003870"/>
<path d="M519.08 145.988H566.12C594.82 146.068 609.16 161.788 609.16 193.138V256.278C609.16 279.418 598.85 294.338 578.22 301.038C573.27 302.638 566.08 303.438 556.64 303.438H551.39V370.008H519.08V145.988ZM551.39 177.848V271.468H558.81C563.3 271.468 566.38 271.168 568.06 270.548C573.92 268.188 576.85 263.438 576.85 256.278V193.148C576.85 182.948 572.17 177.848 562.8 177.848H551.39Z" fill="#003870"/>
<path d="M734.78 326.498C734.78 357.858 719.29 373.578 688.31 373.658C657.41 373.658 641.96 357.938 641.96 326.498V145.988H674.27V326.498C674.27 336.618 678.95 341.688 688.31 341.688C697.67 341.688 702.47 336.628 702.47 326.498V145.988H734.78V326.498Z" fill="#003870"/>
<path d="M766.13 370.008V145.988H798.44V338.148H849.93V369.998H766.13V370.008Z" fill="#003870"/>
<path d="M891.89 304.009V326.499C891.89 336.619 896.61 341.689 906.05 341.689C915.49 341.689 920.09 336.629 920.09 326.499V322.389C920.09 311.579 910 298.949 889.83 284.479C869.66 270.089 859.57 252.589 859.57 231.959V189.489C859.57 158.129 875.02 142.449 905.93 142.449C936.84 142.449 952.4 158.129 952.4 189.489V219.629H920.09V189.489C920.09 179.439 915.41 174.379 906.05 174.299H905.82C896.53 174.299 891.89 179.359 891.89 189.489V231.279C891.89 241.249 901.97 253.469 922.15 267.929C942.32 282.319 952.4 299.559 952.4 319.649V326.499C952.4 357.939 936.95 373.659 906.05 373.659C875.07 373.579 859.58 357.859 859.58 326.499V304.009H891.89Z" fill="#003870"/>
<path d="M978.83 145.988H1062.63V177.848H1011.14V271.818H1055.44V303.788H1011.14V338.158H1062.63V370.008H978.83V145.988Z" fill="#003870"/>
<path d="M1235.76 299.448L1273.32 145.998H1305.63V370.008H1274.69V244.298L1247.06 370.008H1225.14L1196.71 244.298V370.008H1165.43V145.988H1197.74L1235.76 299.448Z" fill="#003870"/>
<path d="M1388.11 197.368L1365.27 369.998H1332.73L1366.07 145.988H1410.37L1443.6 369.998H1410.94L1388.11 197.368Z" fill="#003870"/>
<path d="M1470.92 145.988H1503.23V369.998H1470.92V145.988Z" fill="#003870"/>
<path d="M1566.51 304.009V326.499C1566.51 336.619 1571.23 341.689 1580.67 341.689C1590.11 341.689 1594.71 336.629 1594.71 326.499V322.389C1594.71 311.579 1584.62 298.949 1564.45 284.479C1544.28 270.089 1534.2 252.589 1534.2 231.959V189.489C1534.2 158.129 1549.65 142.449 1580.55 142.449C1611.45 142.449 1627.02 158.129 1627.02 189.489V219.629H1594.71V189.489C1594.71 179.439 1590.03 174.379 1580.67 174.299H1580.44C1571.15 174.299 1566.51 179.359 1566.51 189.489V231.279C1566.51 241.249 1576.6 253.469 1596.77 267.929C1616.94 282.319 1627.03 299.559 1627.03 319.649V326.499C1627.03 357.939 1611.58 373.659 1580.67 373.659C1549.69 373.579 1534.2 357.859 1534.2 326.499V304.009H1566.51Z" fill="#003870"/>
</g>
<defs>
<clipPath id="clip0_1993_10413">
<rect width="1627" height="503" fill="white"/>
</clipPath>
</defs>
</svg>
