<svg width="400" height="400" viewBox="0 0 400 400" fill="none" xmlns="http://www.w3.org/2000/svg">
<g clip-path="url(#clip0_389_176)">
<rect width="400" height="400" fill="white"/>
<g clip-path="url(#clip1_389_176)">
<path d="M120.458 107.737C148.71 110.593 169.661 104.881 199.5 80.7617C221.721 100.438 247.433 112.18 277.907 107.102C278.542 110.276 279.177 113.132 279.495 115.988C283.621 157.879 278.542 197.866 254.1 233.092C241.085 251.816 223.943 265.78 203.944 275.618C201.087 276.888 196.643 276.57 193.786 274.983C152.519 253.403 128.711 218.811 120.775 171.843C117.284 150.58 116.966 129.317 120.775 107.102L120.458 107.737Z" fill="#1A3D28"/>
<path d="M199.5 277.205C197.278 277.205 194.738 276.57 193.151 275.618C152.519 254.355 127.759 219.446 119.823 172.16C116.014 150.263 116.014 129 119.823 107.419V106.785H120.775C150.297 109.958 170.613 102.977 199.182 80.1269H199.817C199.817 79.8095 200.135 80.1269 200.135 80.1269C225.212 102.342 250.607 110.91 277.907 106.467H278.542V107.102C278.542 108.054 278.86 109.006 279.177 110.276C279.494 112.18 279.812 114.084 280.129 116.305C284.891 163.909 276.32 202.309 254.417 234.044C241.719 252.451 224.895 266.732 203.944 276.57C202.674 277.205 201.087 277.522 199.5 277.522V277.205ZM121.093 108.372C117.601 129.634 117.601 150.58 121.093 172.16C129.028 219.129 153.471 253.721 193.786 274.666C196.643 276.253 201.087 276.253 203.309 275.301C223.943 265.463 240.767 251.182 253.147 233.092C264.892 216.273 272.511 197.866 276.637 177.238C280.129 158.831 280.764 138.838 278.542 116.305C278.542 114.401 277.907 112.497 277.59 110.593C277.59 109.958 277.59 109.006 277.272 108.372C250.29 112.497 224.578 103.929 199.5 82.031C175.057 101.39 156.328 109.324 133.155 109.324C129.346 109.324 125.219 109.324 121.093 108.689V108.372Z" fill="#DCBF7D"/>
<path d="M129.029 119.479C125.537 137.251 125.854 154.706 129.029 172.16C136.012 210.243 157.598 238.805 194.421 256.26C196.96 257.529 201.087 257.846 203.627 256.577C221.721 248.643 236.958 237.218 248.386 221.985C270.289 193.106 275.05 160.418 271.241 126.144C271.241 123.922 270.289 121.383 269.971 118.845C242.672 122.97 219.816 115.354 199.817 99.4858C173.153 119.162 154.424 121.701 129.029 119.162V119.479Z" fill="black"/>
<path d="M199.817 261.02C197.278 261.02 194.738 260.385 192.834 259.433C155.694 241.661 132.838 212.464 125.537 172.795C122.045 154.706 122.045 136.934 125.537 118.844L126.172 115.671H129.346C153.471 118.21 171.565 115.671 197.595 96.9469L199.817 95.3601L202.04 96.9469C222.356 113.132 244.576 119.479 269.337 115.671L272.828 115.036L273.463 118.21C273.463 119.162 273.781 119.797 274.098 120.749C274.416 122.335 274.733 124.239 275.05 125.826C279.495 165.496 271.559 197.549 251.56 224.207C239.815 239.44 224.26 251.499 205.214 260.068C203.627 260.702 202.04 261.02 200.135 261.02H199.817ZM131.886 122.97C129.029 139.155 129.346 155.023 132.52 171.208C139.504 208.656 160.773 236.266 196.008 252.769C197.913 253.721 200.77 253.721 202.357 253.086C220.451 245.152 235.053 234.045 245.846 219.446C265.21 194.058 272.194 164.544 268.067 126.144C268.067 124.874 267.749 123.605 267.432 122.335C242.672 125.192 220.451 118.844 200.135 103.294C174.422 121.383 156.011 124.239 132.52 122.653L131.886 122.97Z" fill="#DCBF7D"/>
<path d="M129.029 119.479C154.424 122.018 172.835 119.479 199.818 99.803C219.816 115.671 242.672 123.287 269.972 119.162C270.606 121.701 270.924 124.239 271.241 126.461C275.051 160.735 270.289 193.423 248.386 222.302C236.64 237.535 221.403 248.96 203.627 256.894C201.087 257.846 196.961 257.529 194.421 256.577C157.598 239.122 136.33 210.56 129.029 172.477C125.854 155.023 125.854 137.568 129.029 119.796V119.479Z" fill="white"/>
<path d="M170.613 129.952L162.36 129.635V138.838H170.613V129.952Z" fill="#B03034"/>
<path d="M142.361 141.694H150.614V192.153H142.361V141.694Z" fill="#DCBF7D"/>
<path d="M152.836 194.692H139.821V139.472H152.836V194.692ZM144.583 190.249H148.392V144.233H144.583V190.249Z" fill="#DCBF7D"/>
<path d="M171.566 141.694H180.454L179.502 148.993H170.613V192.471H162.36V148.993H153.472V141.694H161.408" fill="#DCBF7D"/>
<path d="M172.835 194.692H159.82V151.215H151.25V139.472H161.408V143.915H155.694V146.772H164.264V190.249H168.391V146.772H177.279L177.914 143.915H171.566V139.472H182.993L181.406 151.215H172.835V194.692Z" fill="#DCBF7D"/>
<path d="M186.485 141.694H197.913L206.484 192.153H198.23L196.643 181.998H187.12L185.533 191.836H177.597L186.168 141.376L186.485 141.694ZM195.373 175.651L191.564 150.58L187.755 175.651H195.373Z" fill="#DCBF7D"/>
<path d="M209.023 194.692H196.008L194.421 184.854H188.707L187.12 194.692H174.74L184.263 139.472H199.5L209.023 194.692ZM199.817 190.249H203.627L195.691 144.233H188.072L180.136 190.249H183.311L184.898 180.411H196.326V182.315H198.548L199.817 190.249ZM198.23 177.872H185.533L189.977 148.358H194.104L198.548 177.872H198.23ZM190.612 173.429H192.834L191.564 165.496L190.294 173.429H190.612Z" fill="#DCBF7D"/>
<path d="M210.61 141.694H218.864V185.172H232.831V192.471H210.61V141.694Z" fill="#DCBF7D"/>
<path d="M235.053 194.692H208.388V139.472H221.403V182.95H235.37V194.692H235.053ZM212.832 190.249H230.609V187.393H216.642V143.915H212.832V190.249Z" fill="#DCBF7D"/>
<path d="M237.91 189.932C235.688 187.711 234.736 184.537 234.736 180.411V153.754C234.736 149.628 235.688 146.454 237.91 144.233C240.132 142.011 243.307 141.059 247.433 141.059C251.56 141.059 254.734 142.011 256.957 144.233C259.179 146.454 260.131 149.628 260.131 153.754V180.411C260.131 184.537 259.179 187.711 256.957 189.932C254.734 192.154 251.56 193.106 247.433 193.106C243.307 193.106 240.132 192.154 237.91 189.932ZM251.56 181.046V153.436C251.56 150.263 249.973 148.359 247.116 148.359C244.259 148.359 242.672 149.945 242.672 153.436V181.046C242.672 184.22 244.259 186.124 247.116 186.124C249.973 186.124 251.56 184.537 251.56 181.046Z" fill="#DCBF7D"/>
<path d="M247.116 195.327C242.354 195.327 238.545 194.058 236.006 191.202C233.466 188.663 232.196 184.854 232.196 180.094V153.436C232.196 148.676 233.466 145.185 236.006 142.329C238.545 139.79 242.354 138.203 247.116 138.203C251.877 138.203 255.687 139.473 258.226 142.329C260.766 144.868 262.036 148.676 262.036 153.436V180.094C262.036 184.854 260.766 188.345 258.226 191.202C255.687 193.74 251.877 195.327 247.116 195.327ZM247.116 143.281C243.624 143.281 241.085 144.233 239.18 145.82C237.275 147.724 236.64 150.263 236.64 153.754V180.411C236.64 183.902 237.593 186.441 239.18 188.345C241.085 190.249 243.624 190.884 247.116 190.884C250.608 190.884 253.147 189.932 255.052 188.345C256.957 186.441 257.591 183.902 257.591 180.411V153.754C257.591 150.263 256.639 147.724 255.052 145.82C253.147 143.916 250.608 143.281 247.116 143.281ZM247.116 188.028C242.989 188.028 240.45 185.172 240.45 180.729V153.119C240.45 148.676 242.989 145.82 247.116 145.82C251.243 145.82 253.782 148.676 253.782 153.119V180.729C253.782 185.172 251.243 188.028 247.116 188.028ZM247.116 150.58C246.164 150.58 244.894 150.58 244.894 153.436V181.046C244.894 183.902 245.846 183.902 247.116 183.902C248.386 183.902 249.338 183.902 249.338 181.046V153.436C249.338 150.58 248.386 150.58 247.116 150.58Z" fill="#DCBF7D"/>
<path d="M142.361 141.694H150.614V192.154H142.361V141.694Z" fill="white"/>
<path d="M151.249 193.106H141.726V141.377H151.249V193.106ZM142.996 191.836H149.979V142.646H142.996V191.836Z" fill="white"/>
<path d="M162.042 148.993H153.154V141.694H180.136L179.184 148.993H170.295V192.471H162.042V148.993Z" fill="white"/>
<path d="M171.248 193.106H161.725V149.628H152.836V141.059H181.088L179.819 149.628H171.248V193.106ZM162.677 191.836H169.661V148.359H178.549L179.501 142.329H153.789V148.359H162.677V191.836Z" fill="white"/>
<path d="M186.485 141.694H197.913L206.484 192.154H198.23L196.643 181.998H187.12L185.533 191.836H177.597L186.168 141.377L186.485 141.694ZM195.373 175.651L191.564 150.58L187.755 175.651H195.373Z" fill="white"/>
<path d="M207.119 193.106H197.278L195.691 183.268H187.12L185.533 193.106H176.327L185.215 141.377H197.596L206.484 193.106H207.119ZM198.548 191.836H205.532L196.961 142.646H186.803L178.232 191.836H184.581L186.168 181.998H196.326C196.326 182.316 196.961 182.316 196.961 182.316L198.548 191.836ZM196.326 176.286H187.438L191.247 149.945H192.517L196.326 176.286ZM188.707 175.016H194.739L191.564 154.388L188.707 175.016Z" fill="white"/>
<path d="M210.61 141.694H218.864V185.172H232.831V192.471H210.61V141.694Z" fill="white"/>
<path d="M233.466 193.106H209.976V141.377H219.499V184.854H233.466V193.423V193.106ZM211.245 191.836H232.196V185.807H218.229V142.329H211.245V191.836Z" fill="white"/>
<path d="M237.91 189.932C235.688 187.711 234.735 184.537 234.735 180.411V153.754C234.735 149.628 235.688 146.454 237.91 144.233C240.132 142.011 243.306 141.059 247.433 141.059C251.56 141.059 254.734 142.011 256.956 144.233C259.178 146.454 260.13 149.628 260.13 153.754V180.411C260.13 184.537 259.178 187.711 256.956 189.932C254.734 192.154 251.56 193.106 247.433 193.106C243.306 193.106 240.132 192.154 237.91 189.932ZM251.56 181.046V153.436C251.56 150.263 249.972 148.359 247.115 148.359C244.259 148.359 242.671 149.945 242.671 153.436V181.046C242.671 184.22 244.259 186.124 247.115 186.124C249.972 186.124 251.56 184.537 251.56 181.046Z" fill="white"/>
<path d="M247.116 193.74C242.989 193.74 239.497 192.471 237.275 190.249C235.053 188.028 233.783 184.537 233.783 180.411V153.754C233.783 149.628 235.053 146.137 237.275 143.915C239.497 141.694 242.989 140.425 247.116 140.425C251.242 140.425 254.734 141.694 256.956 143.915C259.178 146.137 260.448 149.628 260.448 153.754V180.411C260.448 184.537 259.178 188.028 256.956 190.249C254.734 192.471 251.242 193.74 247.116 193.74ZM247.116 141.694C243.306 141.694 240.132 142.646 238.227 144.868C236.323 147.089 235.053 149.945 235.053 153.754V180.411C235.053 184.22 236.005 187.393 238.227 189.297C240.132 191.519 243.306 192.471 247.116 192.471C250.925 192.471 254.099 191.519 256.004 189.297C257.909 187.076 259.178 184.22 259.178 180.411V153.754C259.178 149.945 258.226 146.772 256.004 144.868C254.099 142.646 250.925 141.694 247.116 141.694ZM247.116 186.441C244.894 186.441 242.037 185.489 242.037 180.729V153.119C242.037 148.358 244.894 147.406 247.116 147.406C249.338 147.406 252.195 148.358 252.195 153.119V180.729C252.195 185.489 249.338 186.441 247.116 186.441ZM247.116 148.993C244.576 148.993 243.306 150.263 243.306 153.436V181.046C243.306 183.902 244.576 185.489 247.116 185.489C249.655 185.489 250.925 184.22 250.925 181.046V153.436C250.925 150.58 249.655 148.993 247.116 148.993Z" fill="white"/>
<path d="M142.361 141.694H150.614V192.153H142.361V141.694Z" fill="#1A3D28"/>
<path d="M162.042 148.993H153.154V141.694H180.136L179.184 148.993H170.295V192.471H162.042V148.993Z" fill="#1A3D28"/>
<path d="M186.485 141.694H197.913L206.484 192.154H198.23L196.643 181.998H187.12L185.533 191.836H177.597L186.168 141.377L186.485 141.694ZM195.373 175.651L191.564 150.58L187.755 175.651H195.373Z" fill="#1A3D28"/>
<path d="M210.61 141.694H218.864V185.172H232.831V192.471H210.61V141.694Z" fill="#1A3D28"/>
<path d="M237.91 189.932C235.688 187.711 234.736 184.537 234.736 180.411V153.754C234.736 149.628 235.688 146.454 237.91 144.233C240.132 142.011 243.307 141.059 247.433 141.059C251.56 141.059 254.734 142.011 256.957 144.233C259.179 146.454 260.131 149.628 260.131 153.754V180.411C260.131 184.537 259.179 187.711 256.957 189.932C254.734 192.154 251.56 193.106 247.433 193.106C243.307 193.106 240.132 192.154 237.91 189.932ZM251.56 181.046V153.436C251.56 150.263 249.973 148.359 247.116 148.359C244.259 148.359 242.672 149.945 242.672 153.436V181.046C242.672 184.22 244.259 186.124 247.116 186.124C249.973 186.124 251.56 184.537 251.56 181.046Z" fill="#1A3D28"/>
<path d="M210.293 210.243V209.926H217.912V210.56C217.912 210.983 217.7 211.195 217.277 211.195C216.007 211.195 215.372 211.512 214.737 211.83C214.42 211.83 214.102 212.464 214.102 212.782V217.859C214.102 219.764 214.102 221.985 214.42 224.841C214.42 227.697 214.737 231.506 215.055 235.949C215.055 236.583 215.055 236.901 215.69 237.218C216.007 237.218 216.959 237.853 218.229 237.853H218.546V238.805H207.119V238.17C207.119 237.747 207.33 237.535 207.754 237.535C209.023 237.535 209.976 236.901 210.61 236.901C211.245 236.901 211.245 236.266 211.245 235.631V215.003L200.452 238.805C200.452 238.805 200.452 239.122 200.135 239.44H199.5L187.437 214.369V235.949C187.437 236.901 188.707 237.536 190.929 237.853C191.247 237.853 191.564 237.853 191.564 238.488C191.564 239.122 192.199 238.488 192.199 239.122H182.041V238.488C182.041 238.17 182.041 237.853 182.676 237.853C183.628 237.853 184.263 237.535 184.898 237.218C185.533 237.218 185.85 236.583 185.85 235.949V212.782C185.85 212.147 185.85 211.83 185.215 211.83C184.898 211.83 183.946 211.512 182.993 211.195C182.676 211.195 182.358 211.195 182.358 210.56V209.926H190.929V210.243L201.722 232.458L211.88 210.243H210.293Z" fill="#DCBF7D"/>
<path d="M194.104 227.697L190.929 234.997V235.949C190.929 236.583 191.882 236.901 194.104 237.218H194.421V238.17H184.581V237.218H185.215C186.168 237.218 187.12 236.901 187.438 236.583C188.072 236.583 188.39 235.949 188.707 235.631L200.77 209.608C200.77 208.973 201.405 208.973 201.722 208.973H202.357L214.42 235.631C214.42 235.949 215.055 236.266 215.69 236.583C216.324 236.583 216.959 236.901 217.594 237.218H217.912V237.853C217.912 238.487 217.912 237.853 217.912 238.17H212.198C211.245 238.17 209.976 238.487 208.706 238.487H205.532V237.218H205.849C206.801 237.218 207.436 236.901 208.071 236.583C208.706 236.583 209.023 235.949 209.023 235.631V234.997L205.849 227.697L204.897 225.793L200.135 214.686L195.373 225.793L194.421 227.697H194.104Z" fill="#DCBF7D"/>
<path d="M313.778 172.16C311.238 173.112 308.699 174.064 306.159 175.334C305.525 175.651 304.89 176.603 303.937 175.968C302.668 175.016 303.62 173.747 303.62 172.477C303.62 171.525 304.255 171.208 304.89 171.208C310.286 171.843 312.508 167.717 314.73 163.909C315.365 162.957 315.365 162.322 314.73 161.37C314.095 160.418 313.143 160.735 312.191 161.053C309.016 162.005 306.477 163.909 303.62 165.496C302.985 163.909 302.985 162.639 304.255 161.687C305.842 160.735 305.842 159.148 305.525 157.562C304.572 155.34 303.303 148.993 301.08 147.724C301.08 147.724 300.763 152.167 300.128 152.484C297.906 153.436 296.319 160.418 298.224 161.687C301.08 163.274 300.446 165.496 300.763 167.717C301.08 170.573 300.763 170.891 297.906 169.939C295.367 168.669 292.51 168.352 289.653 168.669C288.065 168.669 287.748 169.621 288.7 171.208C291.24 175.334 294.414 177.238 299.176 176.603C300.763 176.603 301.08 176.92 300.763 178.19C300.763 178.825 300.128 179.459 300.128 180.094C300.128 182.315 299.176 181.998 297.589 181.363C295.049 180.094 292.192 179.142 289.335 178.824C288.065 178.824 286.478 178.824 286.796 180.729C287.748 185.172 293.462 188.98 297.589 188.663C298.224 188.663 299.176 188.345 299.176 189.297C299.176 190.884 299.176 192.788 298.224 194.058C297.271 195.327 296.001 194.058 295.049 193.106C292.51 191.519 289.653 190.249 286.796 189.932C284.574 189.615 283.621 190.884 284.256 192.788C286.796 199.135 289.97 201.357 296.319 201.039C296.319 202.309 296.001 203.578 295.367 204.53C294.097 208.021 294.097 207.704 291.24 205.8C288.7 203.896 285.843 202.309 282.669 201.357C280.13 200.722 279.177 201.674 279.812 204.213C279.812 205.482 280.447 206.752 281.082 207.704C283.939 213.416 285.526 215.003 290.922 214.051C291.24 214.051 291.875 213.734 292.192 214.051C291.557 215.32 290.922 216.907 290.605 218.177C289.758 220.715 288.277 221.033 286.161 219.129C283.621 216.59 281.082 214.368 277.59 213.099C276.003 212.782 274.098 212.464 273.781 214.686C273.146 220.715 277.907 227.063 283.621 227.697C285.209 227.697 285.209 228.649 284.574 229.919C283.939 231.188 282.986 232.458 282.352 233.41C281.293 235.102 280.13 235.102 278.86 233.41C276.32 230.236 273.781 227.38 270.289 225.476C267.432 223.889 265.845 224.841 265.527 228.015V230.236C265.527 231.506 266.162 232.775 266.162 234.044C267.115 240.074 270.924 242.296 276.955 241.661C274.416 244.835 272.511 248.008 269.971 250.547C267.749 245.787 264.575 241.661 260.766 238.17C259.496 237.218 258.226 236.583 256.956 236.901C256.004 236.901 255.052 238.17 255.052 239.439C255.052 242.296 254.734 245.152 255.052 248.325C255.687 253.403 257.909 255.942 262.67 256.259C263.94 256.259 264.575 256.894 263.305 258.163C261.401 260.385 259.179 262.289 257.274 264.511C256.956 264.828 256.322 265.145 255.687 265.145L253.147 264.193C253.147 264.511 255.687 266.097 255.687 266.097C253.147 268.319 248.703 272.762 246.164 275.301C246.798 275.618 247.433 276.253 248.068 276.57C250.925 274.031 255.687 269.271 258.544 266.732C259.179 266.097 260.131 266.097 260.766 267.367C262.353 270.858 265.21 272.444 268.702 272.127C271.876 271.81 274.733 271.175 277.59 269.906C280.447 268.954 283.621 268.001 286.161 265.78C288.065 264.193 287.748 262.606 285.526 261.972C283.304 261.02 280.764 260.702 278.225 260.385C274.733 259.75 271.241 260.068 268.067 259.75C267.115 259.75 265.845 259.75 267.115 258.163C268.702 255.942 270.606 254.038 272.511 251.816C273.463 250.864 273.781 250.864 274.733 251.816C277.273 255.307 280.447 255.942 284.574 254.99C288.383 254.038 292.192 252.451 295.367 250.23C296.954 249.277 299.493 248.008 298.858 246.104C298.224 243.882 295.684 244.2 293.779 244.2C289.335 244.2 284.891 243.882 280.447 244.2C279.812 244.2 279.495 244.517 278.86 244.2C278.542 243.565 278.86 243.248 279.177 242.613C280.447 240.709 282.034 238.805 282.986 236.901C283.621 235.631 284.256 235.949 284.891 236.901C287.113 238.805 289.653 240.392 292.51 239.122C297.271 237.535 302.033 235.631 305.525 231.823C306.159 230.871 307.112 230.236 306.477 228.967C306.159 227.697 304.89 228.015 303.937 228.015C299.176 227.38 294.414 228.649 289.653 229.284C288.065 229.284 287.431 229.284 288.383 227.697C289.018 226.428 289.653 225.158 290.288 223.889C290.922 222.302 291.875 221.668 293.462 222.937C296.001 224.524 298.541 224.524 301.08 223.572C304.572 221.985 307.429 220.081 310.286 217.225C311.238 216.272 312.508 215.32 311.873 213.734C311.238 212.147 309.651 212.464 308.064 212.782C303.62 213.416 299.493 214.051 295.049 215.638C295.049 213.416 296.319 211.512 296.636 209.608C296.636 208.021 298.224 208.656 299.176 209.291C301.08 210.243 303.303 210.243 305.207 209.291C308.699 207.704 311.556 205.165 314.095 202.309C314.73 201.357 315.365 200.405 314.73 199.135C314.095 198.183 312.826 198.183 311.873 198.501C308.699 199.135 305.525 199.77 302.35 201.039C300.128 201.991 299.176 201.357 299.811 199.135C299.811 197.866 299.811 196.596 300.763 195.01C301.398 195.644 302.033 195.962 302.985 196.279C307.747 197.231 315.365 191.836 316 187.076C316 186.124 316 185.489 314.73 185.489C313.461 185.489 312.508 185.489 311.239 185.806C308.699 186.758 306.159 187.71 303.937 188.663C302.668 189.297 301.715 188.663 301.715 187.71C301.715 186.441 301.715 184.854 302.35 183.585C302.668 182.633 303.937 183.902 304.572 183.902H306.477C310.921 183.267 312.826 179.459 315.048 176.603C315.683 175.651 316 174.699 315.365 173.747C314.73 172.795 313.461 172.795 312.508 173.429L313.778 172.16Z" fill="#584C44"/>
<path d="M86.8092 172.477C89.3487 173.747 91.8882 174.382 94.1102 175.968C94.7451 176.286 95.38 177.238 96.3323 176.603C97.6021 175.651 96.6498 174.382 96.9672 173.112C96.9672 172.16 96.3323 171.843 95.6974 171.843C90.301 172.477 88.0789 168.352 85.8568 164.544C85.222 163.592 85.222 162.957 85.8568 162.005C86.4917 161.053 87.444 161.37 88.3963 161.687C91.5707 162.639 94.1102 164.544 96.9672 166.448C97.9195 164.861 97.6021 163.592 96.3323 162.639C94.7451 161.687 94.7451 160.101 95.38 158.514C96.3323 156.292 97.6021 149.945 99.8241 148.676C99.8241 148.676 100.142 153.119 100.459 153.436C102.681 154.388 104.268 161.687 102.046 162.639C99.1893 164.226 99.5067 166.448 99.1893 168.669C98.8718 171.525 99.1893 171.843 102.046 170.891C104.586 169.939 107.443 169.304 110.3 169.621C111.887 169.621 112.204 170.573 111.252 172.16C108.712 176.286 105.538 178.19 100.776 177.238C99.1893 177.238 98.8718 177.555 99.1893 178.825C99.1893 179.459 99.8241 180.094 99.8241 180.729C99.8241 182.95 100.776 182.633 102.364 181.998C104.903 180.729 107.76 179.777 110.617 179.459C111.887 179.459 113.474 179.459 113.157 181.363C112.204 185.489 106.49 189.615 102.046 188.98C101.411 188.98 100.459 188.663 100.459 189.297C100.459 190.884 100.459 192.788 101.094 194.058C102.046 195.327 103.316 194.058 104.268 193.106C106.808 191.519 109.665 190.249 112.522 189.932C115.061 189.932 115.696 190.884 115.061 192.788C112.522 199.135 109.347 201.039 102.681 200.722C102.681 201.992 102.999 203.261 103.316 204.213C104.586 207.704 104.586 207.387 107.443 205.482C109.982 203.578 112.839 201.992 116.014 201.039C118.553 200.405 119.505 201.357 118.87 203.896C118.553 205.165 117.918 206.117 117.601 207.387C114.744 213.099 112.839 214.686 107.76 213.416C107.443 213.416 106.808 213.099 106.49 213.416C107.125 214.686 107.443 216.273 108.078 217.542C108.924 220.081 110.405 220.504 112.522 218.811C115.061 216.59 117.918 214.051 121.41 213.099C122.997 212.782 124.902 212.464 125.219 214.686C125.854 220.716 121.093 227.063 115.061 227.697C113.474 227.697 113.474 228.649 114.109 229.919C114.744 231.188 115.696 232.458 116.331 233.727C117.389 235.42 118.553 235.42 119.823 233.727C122.362 230.554 125.219 228.015 128.711 226.111C131.568 224.524 133.473 225.476 133.473 228.967V231.188C133.473 232.458 132.838 233.727 132.52 234.997C131.568 241.026 127.759 243.248 121.727 242.613C124.267 246.104 126.172 248.96 128.711 251.816C131.251 247.056 134.108 242.93 137.917 239.757C139.187 238.805 140.456 238.17 141.726 238.805C142.678 239.122 143.313 240.074 143.631 241.344V250.23C142.678 255.307 140.456 257.846 135.695 258.164C134.425 258.164 133.79 258.798 135.06 260.068C136.964 262.289 139.187 264.193 141.091 266.415C141.409 266.732 142.043 267.049 142.678 267.049L145.218 266.097C145.218 266.415 142.361 268.002 142.678 268.002C145.218 270.54 147.757 272.762 150.297 275.301C149.662 275.618 149.027 276.253 148.392 276.57C145.535 274.031 142.678 271.175 139.821 268.636C139.187 268.002 138.234 268.002 137.599 269.271C136.012 272.762 133.155 274.349 129.346 273.714C126.172 273.079 123.315 272.445 120.458 271.492C117.601 270.54 114.426 269.588 111.887 267.049C110.3 265.145 110.3 263.876 112.839 263.241C115.061 262.289 117.601 261.972 120.14 261.654C123.632 261.02 127.124 261.654 130.298 261.337C131.251 261.337 132.52 261.337 131.251 259.75C129.663 257.529 127.759 255.625 126.172 253.403C125.219 252.451 124.902 252.451 123.949 253.403C121.41 256.894 117.918 257.529 114.109 256.259C110.3 254.99 106.49 253.721 103.316 251.182C101.729 250.23 99.5067 248.96 99.8241 247.056C100.459 244.835 102.999 245.152 104.903 245.152C109.347 245.152 113.791 245.152 118.236 245.469C118.87 245.469 119.188 245.787 119.823 245.469C120.14 244.835 119.823 244.517 119.505 243.883C118.236 241.978 116.966 240.074 115.696 238.17C115.061 236.901 114.426 237.218 113.791 238.17C111.569 240.074 109.03 241.344 106.173 240.392C101.411 238.805 96.9672 236.583 93.1579 232.775C92.523 231.823 91.8882 231.188 92.2056 229.919C92.523 228.649 93.7928 228.967 94.7451 228.967C99.5067 228.649 104.268 229.919 109.03 230.236C110.617 230.236 111.252 230.236 110.3 228.649C109.665 227.38 109.03 226.111 108.712 224.841C108.078 223.254 107.125 222.62 105.538 223.889C102.999 225.476 100.459 225.476 97.9195 224.206C94.4277 222.62 91.5707 220.398 89.0312 217.542C88.0789 216.59 86.8092 215.638 87.7615 214.051C88.3963 212.464 89.9835 212.782 91.5707 213.099C96.0149 213.734 100.142 214.368 104.586 215.955C104.586 213.734 103.316 211.83 102.999 209.925C102.999 208.339 101.411 208.973 100.459 209.608C98.5544 210.56 96.3323 210.243 94.4277 209.608C90.9359 208.021 88.0789 205.482 85.5394 202.309C84.9045 201.357 84.2696 200.405 84.9045 199.135C85.5394 198.183 86.8092 198.183 87.7615 198.501C90.9359 199.135 94.1102 199.77 97.2846 201.357C99.5067 202.309 100.459 201.674 99.8241 199.453C99.8241 198.183 99.8241 196.914 98.8718 195.327C98.2369 195.962 97.6021 196.279 96.6498 196.597C91.8882 197.549 84.5871 191.836 83.6348 187.076C83.6348 186.124 83.6348 185.489 84.9045 185.489C86.1743 185.489 87.1266 185.489 88.3963 185.806C90.9359 186.758 93.4754 187.711 95.6974 188.98C96.9672 189.615 97.9195 188.98 97.9195 188.028C97.9195 186.758 97.9195 185.172 97.6021 183.902C97.2846 182.95 96.0149 184.22 95.38 184.22H93.4754C89.0312 183.585 87.444 179.777 84.9045 176.603C84.2696 175.651 83.9522 174.699 84.5871 173.747C85.222 172.795 86.4917 172.795 87.444 173.43L86.8092 172.477Z" fill="#584C44"/>
<path d="M313.778 169.939C311.238 170.891 308.699 171.843 306.159 173.112C305.525 173.43 304.89 174.382 303.937 173.747C302.668 172.795 303.62 171.525 303.62 170.256C303.62 169.304 304.255 168.987 304.89 168.987C310.286 169.621 312.508 165.496 314.73 161.687C315.365 160.735 315.365 160.101 314.73 159.149C314.095 158.196 313.143 158.514 312.191 158.831C309.016 159.783 306.477 161.687 303.62 163.274C302.985 161.687 302.985 160.418 304.255 159.466C305.842 158.514 305.842 156.927 305.525 155.34C304.572 153.119 303.302 146.772 301.08 145.502C301.08 145.502 300.763 149.945 300.128 150.263C297.906 151.215 296.319 158.196 298.223 159.466C301.08 161.053 300.446 163.274 300.763 165.496C301.08 168.352 300.763 168.669 297.906 167.717C295.367 166.448 292.51 166.13 289.653 166.448C288.065 166.448 287.748 167.4 288.7 168.987C291.24 173.112 294.414 175.016 299.176 174.382C300.763 174.382 301.08 174.699 300.763 175.968C300.763 176.603 300.128 177.238 300.128 177.872C300.128 180.094 299.176 179.777 297.589 179.142C295.049 177.872 292.192 176.92 289.335 176.603C288.065 176.603 286.478 176.603 286.796 178.507C287.748 182.95 293.462 186.758 297.589 186.441C298.223 186.441 299.176 186.124 299.176 187.076C299.176 188.663 299.176 190.567 298.223 191.836C297.271 193.106 296.001 191.836 295.049 190.884C292.51 189.297 289.653 188.028 286.796 187.711C284.574 187.393 283.621 188.663 284.256 190.567C286.796 196.914 289.97 199.135 296.319 198.818C296.319 200.087 296.001 201.357 295.367 202.309C294.097 205.8 294.097 205.482 291.24 203.578C288.7 201.674 285.843 200.087 282.669 199.135C280.129 198.501 279.177 199.453 279.812 201.992C279.812 203.261 280.447 204.53 281.082 205.482C283.939 211.195 285.526 212.782 290.922 211.83C291.24 211.83 291.875 211.512 292.192 211.83C291.557 213.099 290.922 214.686 290.605 215.955C289.758 218.494 288.277 218.811 286.161 216.907C283.621 214.368 281.082 212.147 277.59 210.878C276.003 210.56 274.098 210.243 273.781 212.464C273.146 218.494 277.907 224.841 283.621 225.476C285.208 225.476 285.208 226.428 284.574 227.697C283.939 228.967 282.986 230.236 282.352 231.188C281.293 232.881 280.129 232.881 278.86 231.188C276.32 228.015 273.781 225.159 270.289 223.254C267.432 221.668 265.845 222.62 265.527 225.793V228.015C265.527 229.284 266.162 230.554 266.162 231.823C267.114 237.853 270.924 240.074 276.955 239.44C274.416 242.613 272.511 245.787 269.971 248.325C267.749 243.565 264.575 239.44 260.766 235.949C259.496 234.997 258.226 234.362 256.956 234.679C256.004 234.679 255.052 235.949 255.052 237.218C255.052 240.074 254.734 242.93 255.052 246.104C255.687 251.182 257.909 253.721 262.67 254.038C263.94 254.038 264.575 254.673 263.305 255.942C261.401 258.164 259.179 260.068 257.274 262.289C256.956 262.606 256.322 262.924 255.687 262.924L253.147 261.972C253.147 262.289 255.687 263.876 255.687 263.876C253.147 266.097 246.164 273.714 243.624 275.935C244.259 276.253 245.846 276.888 247.116 275.935C249.973 273.397 255.369 267.049 258.226 264.511C258.861 263.876 259.813 263.876 260.448 265.145C262.035 268.636 264.892 270.223 268.384 269.906C271.559 269.588 274.416 268.954 277.273 267.684C280.129 266.732 283.304 265.78 285.843 263.559C287.748 261.972 287.431 260.385 285.208 259.75C282.986 258.798 280.447 258.481 277.907 258.164C274.416 257.529 270.924 257.846 267.749 257.529C266.797 257.529 265.527 257.529 266.797 255.942C268.384 253.721 270.289 251.816 272.194 249.595C273.146 248.643 273.463 248.643 274.416 249.595C276.955 253.086 280.129 253.721 284.256 252.768C288.065 251.816 291.875 250.23 295.049 248.008C296.636 247.056 299.176 245.787 298.541 243.882C297.906 241.661 295.367 241.978 293.462 241.978C289.018 241.978 284.574 241.661 280.129 241.978C279.495 241.978 279.177 242.296 278.542 241.978C278.225 241.344 278.542 241.026 278.86 240.392C280.129 238.487 281.717 236.583 282.669 234.679C283.304 233.41 283.939 233.727 284.574 234.679C286.796 236.583 289.335 238.17 292.192 236.901C296.954 235.314 301.715 233.41 305.207 229.601C305.842 228.649 306.794 228.015 306.159 226.745C305.842 225.476 304.572 225.793 303.62 225.793C298.858 225.159 294.097 226.428 289.335 227.063C287.748 227.063 287.113 227.063 288.065 225.476C288.7 224.206 289.335 222.937 289.97 221.668C290.605 220.081 291.557 219.446 293.144 220.716C295.684 222.302 298.223 222.302 300.763 221.35C304.255 219.763 307.112 217.859 309.969 215.003C310.921 214.051 312.191 213.099 311.556 211.512C310.921 209.925 309.334 210.243 307.747 210.56C303.303 211.195 299.176 211.83 294.732 213.416C294.732 211.195 296.001 209.291 296.319 207.387C296.319 205.8 297.906 206.435 298.858 207.069C300.763 208.021 302.985 208.021 304.89 207.069C308.382 205.482 311.238 202.944 313.778 200.087C314.413 199.135 315.048 198.183 314.413 196.914C313.778 195.962 312.508 195.962 311.556 196.279C308.382 196.914 305.207 197.549 302.033 198.818C299.811 199.77 298.858 199.135 299.493 196.914C299.493 195.644 299.493 194.375 300.446 192.788C301.08 193.423 301.715 193.74 302.668 194.058C307.429 195.01 315.048 189.615 315.683 184.854C315.683 183.902 315.683 183.268 314.413 183.268C313.143 183.268 312.191 183.268 310.921 183.585C308.382 184.537 305.842 185.489 303.62 186.441C302.35 187.076 301.398 186.441 301.398 185.489C301.398 184.22 301.398 182.633 302.033 181.363C302.35 180.411 303.62 181.681 304.255 181.681H306.159C310.604 181.046 312.508 177.238 314.73 174.382C315.365 173.43 315.683 172.477 315.048 171.525C314.413 170.573 313.143 170.573 312.191 171.208L313.778 169.939Z" fill="#DCBF7D"/>
<path d="M86.1744 170.256C88.7139 171.525 91.2534 172.16 93.4755 173.747C94.1104 174.064 94.7452 175.016 95.6975 174.382C96.9673 173.43 96.015 172.16 96.3324 170.891C96.3324 169.939 95.6975 169.621 95.0627 169.621C89.6662 170.256 87.4441 166.13 85.2221 162.322C84.5872 161.37 84.5872 160.735 85.2221 159.783C85.8569 158.831 86.8093 159.149 87.7616 159.466C90.936 160.418 93.4755 162.322 96.3324 164.226C97.2847 162.639 96.9673 161.37 95.6975 160.418C94.1104 159.466 94.1104 157.879 94.7452 156.292C95.6975 154.071 96.9673 147.724 99.1894 146.454C99.1894 146.454 99.5068 150.897 99.8243 151.215C102.046 152.167 103.634 159.466 101.411 160.418C98.5545 162.005 98.8719 164.226 98.5545 166.448C98.2371 169.304 98.5545 169.621 101.411 168.669C103.951 167.717 106.808 167.082 109.665 167.4C111.252 167.4 111.569 168.352 110.617 169.939C108.078 174.064 104.903 175.968 100.142 175.016C98.5545 175.016 98.2371 175.334 98.5545 176.603C98.5545 177.238 99.1894 177.873 99.1894 178.507C99.1894 180.729 100.142 180.411 101.729 179.777C104.268 178.507 107.125 177.555 109.982 177.238C111.252 177.238 112.839 177.238 112.522 179.142C111.569 183.268 105.856 187.393 101.411 186.759C100.777 186.759 99.8243 186.441 99.8243 187.076C99.8243 188.663 99.8242 190.567 100.459 191.836C101.411 193.106 102.681 191.836 103.634 190.884C106.173 189.297 109.03 188.028 111.887 187.711C114.426 187.711 115.061 188.663 114.426 190.567C111.887 196.914 108.713 198.818 102.046 198.501C102.046 199.77 102.364 201.04 102.681 201.992C103.951 205.483 103.951 205.165 106.808 203.261C109.347 201.357 112.204 199.77 115.379 198.818C117.918 198.183 118.871 199.135 118.236 201.674C117.918 202.944 117.283 203.896 116.966 205.165C114.109 210.878 112.204 212.464 107.125 211.195C106.808 211.195 106.173 210.878 105.856 211.195C106.49 212.464 106.808 214.051 107.443 215.321C108.289 217.859 109.771 218.283 111.887 216.59C114.426 214.368 117.283 211.83 120.775 210.878C122.362 210.56 124.267 210.243 124.584 212.464C125.219 218.494 120.458 224.841 114.426 225.476C112.839 225.476 112.839 226.428 113.474 227.697C114.109 228.967 115.061 230.236 115.696 231.506C116.754 233.198 117.918 233.198 119.188 231.506C121.728 228.332 124.584 225.793 128.076 223.889C130.933 222.302 132.838 223.254 132.838 226.745V228.967C132.838 230.236 132.203 231.506 131.886 232.775C130.933 238.805 127.124 241.026 121.093 240.392C123.632 243.883 125.537 246.739 128.076 249.595C130.616 244.835 133.473 240.709 137.282 237.535C138.552 236.583 139.822 235.949 141.091 236.583C142.044 236.901 142.678 237.853 142.996 239.122V248.008C142.044 253.086 139.822 255.625 135.06 255.942C133.79 255.942 133.155 256.577 134.425 257.846C136.33 260.068 138.552 261.972 140.456 264.193C140.774 264.511 141.409 264.828 142.044 264.828L144.583 263.876C144.583 264.193 141.726 265.78 142.044 265.78C144.583 268.319 150.932 274.031 153.471 276.57C152.837 276.888 150.297 276.253 149.662 276.57C146.805 274.031 142.044 268.954 139.187 266.415C138.552 265.78 137.599 265.78 136.965 267.05C135.377 270.54 132.52 272.127 128.711 271.493C125.537 270.858 122.68 270.223 119.823 269.271C116.966 268.319 113.792 267.367 111.252 264.828C109.665 262.924 109.665 261.654 112.204 261.02C114.426 260.068 116.966 259.75 119.505 259.433C122.997 258.798 126.489 259.433 129.663 259.116C130.616 259.116 131.886 259.116 130.616 257.529C129.029 255.307 127.124 253.403 125.537 251.182C124.584 250.23 124.267 250.23 123.315 251.182C120.775 254.673 117.283 255.307 113.474 254.038C109.665 252.769 105.856 251.499 102.681 248.96C101.094 248.008 98.8719 246.739 99.1894 244.835C99.8242 242.613 102.364 242.931 104.268 242.931C108.713 242.931 113.157 242.931 117.601 243.248C118.236 243.248 118.553 243.565 119.188 243.248C119.505 242.613 119.188 242.296 118.871 241.661C117.601 239.757 116.331 237.853 115.061 235.949C114.426 234.679 113.792 234.997 113.157 235.949C110.935 237.853 108.395 239.122 105.538 238.17C100.777 236.583 96.3324 234.362 92.5232 230.554C91.8883 229.602 91.2534 228.967 91.5708 227.697C91.8883 226.428 93.158 226.745 94.1104 226.745C98.8719 226.428 103.634 227.697 108.395 228.015C109.982 228.015 110.617 228.015 109.665 226.428C109.03 225.159 108.395 223.889 108.078 222.62C107.443 221.033 106.49 220.398 104.903 221.668C102.364 223.254 99.8242 223.254 97.2847 221.985C93.7929 220.398 90.936 218.177 88.3965 215.321C87.4441 214.368 86.1744 213.416 87.1267 211.83C87.7616 210.243 89.3488 210.56 90.936 210.878C95.3801 211.512 99.5068 212.147 103.951 213.734C103.951 211.512 102.681 209.608 102.364 207.704C102.364 206.117 100.777 206.752 99.8243 207.387C97.9196 208.339 95.6975 208.021 93.7929 207.387C90.3011 205.8 87.4441 203.261 84.9046 200.087C84.2698 199.135 83.6349 198.183 84.2698 196.914C84.9046 195.962 86.1744 195.962 87.1267 196.279C90.3011 196.914 93.4755 197.549 96.6499 199.135C98.8719 200.087 99.8242 199.453 99.1894 197.231C99.1894 195.962 99.1894 194.692 98.2371 193.106C97.6022 193.74 96.9673 194.058 96.015 194.375C91.2534 195.327 83.9523 189.615 83 184.854C83 183.902 83 183.268 84.2698 183.268C85.5395 183.268 86.4918 183.268 87.7616 183.585C90.3011 184.537 92.8406 185.489 95.0627 186.759C96.3324 187.393 97.2847 186.759 97.2847 185.806C97.2847 184.537 97.2847 182.95 96.9673 181.681C96.6499 180.729 95.3801 181.998 94.7452 181.998H92.8406C88.3965 181.363 86.8093 177.555 84.2698 174.382C83.6349 173.43 83.3174 172.478 83.9523 171.525C84.5872 170.573 85.8569 170.573 86.8093 171.208L86.1744 170.256Z" fill="#DCBF7D"/>
<path d="M286.796 320.365H110.935L122.68 298.151L110.935 276.57H286.796L272.828 298.468L286.796 320.365Z" fill="#B03034"/>
<path d="M288.066 321H109.982L122.045 297.833L109.982 275.618H288.066L273.781 298.15L288.066 320.683V321ZM112.204 319.731H285.209L271.876 298.785L285.209 277.522H112.204L123.632 298.15L112.204 319.731Z" fill="#DCBF7D"/>
<path d="M131.568 309.893C130.299 308.941 129.346 307.354 129.346 305.45V286.726H134.743V305.767C134.743 306.719 134.743 307.354 135.378 307.671C136.012 307.988 136.647 308.306 137.6 308.306C138.552 308.306 139.187 308.306 139.822 307.671C140.457 307.354 140.457 306.719 140.457 305.767V286.726H145.853V305.45C145.853 307.354 145.218 308.941 143.631 309.893C142.361 310.845 140.139 311.479 137.6 311.479C135.06 311.479 132.838 310.845 131.568 309.893Z" fill="white"/>
<path d="M149.662 286.726H156.646L162.042 301.324V286.726H166.804V311.162H161.09L154.424 293.073V311.162H149.662V286.726Z" fill="white"/>
<path d="M170.931 286.726H176.327V311.162H170.931V286.726Z" fill="white"/>
<path d="M188.39 286.726H193.786V311.162H188.39V286.726Z" fill="white"/>
<path d="M202.04 290.216H196.326V286.726H213.467V290.216H207.753V311.162H202.357V290.216H202.04Z" fill="white"/>
<path d="M217.594 286.726H225.213L230.927 311.162H225.53L224.578 306.402H218.229L217.277 311.162H212.198L217.912 286.726H217.594ZM223.626 303.228L221.086 291.169L218.547 303.228H223.626Z" fill="white"/>
<path d="M233.466 286.726H238.863V307.671H248.068V311.162H233.466V286.726Z" fill="white"/>
<path d="M251.877 309.893C250.29 308.94 249.655 307.354 249.655 305.45V292.438C249.655 290.534 250.29 288.947 251.877 287.995C253.465 287.043 255.369 286.408 258.226 286.408C261.083 286.408 262.988 287.043 264.575 287.995C266.162 288.947 266.797 290.534 266.797 292.438V305.45C266.797 307.354 266.162 308.94 264.575 309.893C262.988 310.845 261.083 311.479 258.226 311.479C255.369 311.479 253.465 310.845 251.877 309.893ZM261.083 305.767V292.438C261.083 290.851 260.131 289.899 258.226 289.899C256.321 289.899 255.369 290.851 255.369 292.438V305.767C255.369 307.354 256.321 308.306 258.226 308.306C260.131 308.306 261.083 307.354 261.083 305.767Z" fill="white"/>
</g>
</g>
<defs>
<clipPath id="clip0_389_176">
<rect width="400" height="400" fill="white"/>
</clipPath>
<clipPath id="clip1_389_176">
<rect width="233" height="241" fill="white" transform="translate(83 80)"/>
</clipPath>
</defs>
</svg>
