<svg width="400" height="400" viewBox="0 0 400 400" fill="none" xmlns="http://www.w3.org/2000/svg">
<rect width="400" height="400" fill="white"/>
<g clip-path="url(#clip0_394_334)">
<path d="M117.369 228.606C117.369 227.425 118.548 227.098 121.356 226.663C124.365 226.336 124.583 225.155 124.583 220.196C124.583 208.894 123.605 186.819 123.186 175.595C123.078 173.979 122.969 173.434 122.643 173.434C122.209 173.434 122.1 173.979 121.775 174.834C120.704 177.741 118.222 186.897 109.736 215.439C106.183 227.285 106.617 229.663 104.476 229.663C103.406 229.663 102.972 228.808 101.793 223.632C98.7829 210.915 90.0795 181.301 88.2334 174.725C88.0162 173.87 87.799 173.434 87.256 173.434C86.713 173.434 86.713 174.289 86.5113 175.813C85.7667 184.969 85.4409 202.194 85.4409 211.475C85.4409 218.688 84.8979 226.01 88.1248 226.663C90.064 227.083 93.1823 227.083 93.1823 228.606C93.1823 229.461 92.6393 230.114 91.1345 230.114C89.1953 230.114 87.9076 229.679 83.6102 229.679C79.7473 229.679 78.0097 230.114 76.722 230.114C75.7447 230.114 75 230.005 75 228.606C75 227.098 76.722 227.207 78.5527 226.787C81.1435 226.041 81.5624 223.554 81.8882 218.393C82.4312 207.728 83.5016 181.767 83.5016 172.828C83.5016 166.905 83.5016 165.724 80.2747 165.18C78.3355 164.853 76.5049 164.636 76.5049 163.454C76.5049 161.946 78.0097 161.837 79.1888 161.837C81.5469 161.837 84.448 162.164 86.8216 162.164C88.5437 162.164 91.2276 161.837 92.7324 161.837C94.0201 161.837 94.3459 161.946 94.8734 163.563C98.6432 176.699 102.305 189.944 106.059 203.096C106.928 206.329 107.238 208.474 108.107 208.474C108.851 208.474 109.177 207.511 110.046 204.386C113.816 191.25 117.57 178.098 121.449 165.071C121.992 162.692 122.628 161.837 123.698 161.837C125.203 161.837 127.887 162.164 129.826 162.164C131.967 162.164 135.21 161.837 137.257 161.837C138.235 161.837 139.197 162.273 139.197 163.345C139.197 164.527 137.909 164.962 134.791 165.289C133.394 165.397 132.65 166.905 132.65 171.32C132.65 181.13 134.155 208.692 134.48 221.626C134.589 224.86 135.458 226.368 136.963 226.694C139.972 227.44 141.151 227.549 141.151 228.746C141.151 229.943 140.174 230.145 138.669 230.145C136.839 230.145 134.48 229.71 129.423 229.71C125.234 229.71 121.79 230.145 119.959 230.145C118.346 230.145 117.369 229.71 117.369 228.746V228.622V228.606Z" fill="#C1C1C1"/>
<path d="M166.486 189.244C166.486 184.192 165.089 182.575 162.297 182.575C157.348 182.575 154.99 186.555 153.485 191.825C152.74 194.204 151.437 196.022 149.948 197.204C148.66 198.168 147.264 198.712 145.65 198.712C143.509 198.712 142.641 197.966 142.641 195.805C142.641 189.462 151.778 179.544 164.888 179.544C168.968 179.544 171.543 180.088 173.172 181.487C174.894 182.777 175.53 184.938 175.53 187.83V220.118C175.53 222.808 176.508 223.989 178.323 223.989C180.262 223.989 181.115 223.025 181.55 221.937C182.077 220.864 182.294 219.792 183.054 219.792C183.706 219.792 183.923 220.336 183.923 221.611C183.923 223.989 180.914 230.658 174.351 230.658C169.743 230.658 168.549 227.005 167.789 224.844C167.463 223.989 167.137 223.336 166.61 223.336C165.741 223.336 164.143 225.388 161.552 227.316C159.194 229.259 155.967 230.969 151.67 230.969C146.721 230.969 143.075 227.518 143.075 221.175C143.075 215.796 145.976 212.034 155.005 206.112C158.651 203.733 161.133 202.241 162.84 200.935C165.632 199.209 166.486 198.137 166.486 195.758V189.198V189.244ZM152.507 219.481C152.507 223.461 154.555 225.513 157.565 225.513C159.815 225.513 161.754 224.222 163.802 222.279C165.741 220.336 166.486 218.937 166.486 216.247V204.293C166.486 203.111 166.268 202.894 165.741 202.894C165.213 202.894 164.67 203.002 163.274 204.075C161.025 205.583 158.868 207.417 157.255 209.252C154.354 212.268 152.523 215.61 152.523 219.372V219.481H152.507Z" fill="#C1C1C1"/>
<path d="M197.048 220.367C197.048 224.346 198.336 225.201 200.384 225.201C202.323 225.201 203.502 223.693 204.371 222.294C205.24 220.895 205.767 219.496 206.745 219.496C207.396 219.496 207.815 219.823 207.815 220.569C207.815 221.968 205.674 230.875 197.064 230.875C194.163 230.875 191.898 230.129 190.393 228.513C188.779 226.911 188.035 224.331 188.035 220.88V186.399C188.035 185.435 187.492 185 186.856 184.798C186.204 184.689 185.134 184.689 184.373 184.689C183.396 184.58 182.651 184.472 182.651 183.29C182.651 182.653 183.303 181.891 184.699 180.507C187.709 177.834 190.191 174.927 193.946 168.475C195.016 166.532 195.233 165.895 195.993 165.895C196.645 165.895 197.064 166.112 197.064 168.257V178.673C197.064 180.383 197.607 181.036 199.205 181.036H204.045C205.876 181.036 206.419 181.362 206.419 182.87C206.419 184.472 205.984 185.125 203.828 185.125H198.77C197.483 185.125 197.048 185.56 197.048 187.27V220.351V220.367Z" fill="#C1C1C1"/>
<path d="M242.039 212.703C242.783 212.703 243.435 213.029 243.435 215.827C243.435 217.879 243.326 224.968 243.326 227.238C243.218 229.601 242.69 229.818 241.511 229.818C236.811 229.818 231.784 229.601 225.78 229.601C220.645 229.601 215.075 229.818 210.483 229.818C209.847 229.818 209.521 229.399 209.521 228.637C209.521 227.673 209.956 227.238 211.352 224.875L230.729 188.296C232.001 185.933 232.451 185.389 232.451 184.845C232.451 184.301 232.032 183.99 229.348 183.99C227.316 183.99 225.284 183.99 223.779 184.207C219.388 184.751 217.573 185.933 215.758 189.695C213.509 194.001 213.726 194.965 212.438 194.965C211.693 194.965 211.368 194.421 211.368 193.348C211.368 191.094 212.764 182.917 213.183 180.647C213.617 178.595 214.036 177.849 214.796 177.849C215.975 177.849 216.192 178.595 216.518 179.357C216.844 180.01 217.372 180.865 218.768 180.865C221.762 180.974 224.756 180.974 230.853 180.974C233.956 180.974 238.455 180.865 241.666 180.865C242.939 180.865 243.388 181.3 243.388 181.938C243.388 182.575 243.063 183.554 241.356 186.555L221.56 223.134C220.924 224.533 220.49 225.497 220.49 225.932C220.49 226.367 220.707 226.678 222.739 226.678C225.315 226.678 227.874 226.678 230.45 226.46C236.33 225.714 237.943 223.553 239.432 219.356C241.03 214.506 240.611 212.687 242.008 212.687H242.116H242.07L242.039 212.703Z" fill="#C1C1C1"/>
<path d="M270.801 189.244C270.801 184.192 269.405 182.575 266.613 182.575C261.664 182.575 259.306 186.555 257.801 191.825C257.041 194.204 255.753 196.022 254.264 197.204C252.976 198.168 251.58 198.712 249.966 198.712C247.825 198.712 246.957 197.966 246.957 195.805C246.957 189.462 256.094 179.544 269.204 179.544C273.284 179.544 275.859 180.088 277.488 181.487C279.21 182.777 279.846 184.938 279.846 187.83V220.118C279.846 222.808 280.823 223.989 282.639 223.989C284.578 223.989 285.431 223.025 285.866 221.937C286.408 220.864 286.626 219.792 287.37 219.792C288.022 219.792 288.239 220.336 288.239 221.611C288.239 223.989 285.229 230.658 278.667 230.658C274.059 230.658 272.865 227.005 272.105 224.844C271.779 223.989 271.453 223.336 270.926 223.336C270.072 223.336 268.459 225.388 265.868 227.316C263.494 229.259 260.283 230.969 255.986 230.969C251.037 230.969 247.391 227.518 247.391 221.175C247.391 215.796 250.292 212.034 259.321 206.112C262.967 203.733 265.449 202.241 267.156 200.935C269.948 199.209 270.801 198.137 270.801 195.758V189.198V189.244ZM256.839 219.481C256.839 223.461 258.887 225.513 261.896 225.513C264.146 225.513 266.085 224.222 268.133 222.279C270.072 220.336 270.817 218.937 270.817 216.247V204.293C270.817 203.111 270.6 202.894 270.072 202.894C269.545 202.894 269.002 203.002 267.606 204.075C265.356 205.583 263.2 207.417 261.586 209.252C258.685 212.268 256.87 215.61 256.87 219.372V219.481H256.839Z" fill="#C1C1C1"/>
<path d="M291.264 150.738L297.16 156.629L303.055 150.722C306.313 147.473 306.313 142.172 303.055 138.907L297.129 132.984L291.218 138.907C287.96 142.172 287.96 147.473 291.218 150.738H291.264Z" fill="#39C2D8"/>
<path d="M320.089 155.93C316.831 152.665 311.526 152.665 308.268 155.93L314.209 161.853L308.299 167.776C311.557 171.04 316.862 171.04 320.12 167.776L326.031 161.853L320.12 155.93H320.089Z" fill="#B2D235"/>
<path d="M303.086 172.937H303.07L297.175 167.045L291.28 172.952C288.022 176.201 288.022 181.502 291.28 184.767L297.191 190.69L303.101 184.767C306.359 181.502 306.359 176.201 303.101 172.937H303.086Z" fill="#C1C1C1"/>
<path d="M286.052 167.76L280.141 161.837L286.052 155.914C282.794 152.65 277.488 152.65 274.23 155.914L268.319 161.837L274.23 167.76C277.488 171.025 282.794 171.025 286.052 167.76Z" fill="#FEC023"/>
</g>
<defs>
<clipPath id="clip0_394_334">
<rect width="251" height="98" fill="white" transform="translate(75 133)"/>
</clipPath>
</defs>
</svg>
