<svg width="400" height="400" viewBox="0 0 400 400" fill="none" xmlns="http://www.w3.org/2000/svg">
<rect width="400" height="400" fill="white"/>
<g clip-path="url(#clip0_389_172)">
<path d="M52 162.901H75.1073V176.017C79.7243 168.023 89.4467 160.986 101.722 160.986C122.121 160.986 138.081 176.173 138.081 203.853V205.122C138.081 232.779 122.454 248.3 101.722 248.3C80.9896 248.3 79.4136 241.909 75.1073 233.737V275H52V162.901ZM114.641 205.278V204.008C114.641 187.062 106.361 178.734 94.7075 178.734C83.0539 178.734 74.3082 187.218 74.3082 204.008V205.278C74.3082 222.068 82.277 230.218 94.8628 230.218C107.449 230.218 114.641 221.578 114.641 205.278Z" fill="black"/>
<path d="M143.342 216.79V162.901H166.294V213.606C166.294 224.963 170.911 230.396 180.811 230.396C190.711 230.396 198.191 224.317 198.191 212.003V162.901H221.143V246.541H198.191V233.425C193.885 241.909 185.428 248.3 171.732 248.3C158.036 248.3 143.364 238.703 143.364 216.79H143.342Z" fill="black"/>
<path d="M250.332 233.269V246.541H227.225V125H250.332V176.017C254.949 168.023 264.672 160.986 276.947 160.986C297.346 160.986 313.306 176.173 313.306 203.852V205.122C313.306 232.779 297.679 248.3 276.947 248.3C256.215 248.3 254.639 241.909 250.332 233.269ZM289.866 205.278V204.008C289.866 187.062 281.586 178.734 269.933 178.734C258.279 178.734 249.533 187.218 249.533 204.008V205.278C249.533 222.068 257.502 230.218 270.088 230.218C282.674 230.218 289.866 221.578 289.866 205.278Z" fill="black"/>
<path d="M313.572 231.287C313.572 222.024 321.075 214.497 330.686 214.497C340.298 214.497 348 222.024 348 231.287C348 240.551 340.497 248.278 330.686 248.278C320.875 248.278 313.572 240.751 313.572 231.287Z" fill="#DA2128"/>
</g>
<defs>
<clipPath id="clip0_389_172">
<rect width="296" height="150" fill="white" transform="translate(52 125)"/>
</clipPath>
</defs>
</svg>
