<svg width="296" height="150" viewBox="0 0 296 150" fill="none" xmlns="http://www.w3.org/2000/svg">
<g clip-path="url(#clip0_389_181)">
<path d="M0 37.9009H23.1073V51.017C27.7243 43.0227 37.4467 35.9858 49.7218 35.9858C70.121 35.9858 86.0808 51.1729 86.0808 78.8525V80.1218C86.0808 107.779 70.454 123.3 49.7218 123.3C28.9896 123.3 27.4136 116.909 23.1073 108.737V150H0V37.9009ZM62.6406 80.2777V79.0084C62.6406 62.0621 54.361 53.7338 42.7075 53.7338C31.0539 53.7338 22.3082 62.218 22.3082 79.0084V80.2777C22.3082 97.0681 30.277 105.218 42.8628 105.218C55.4487 105.218 62.6406 96.5782 62.6406 80.2777Z" fill="black"/>
<path d="M91.3418 91.7904V37.9009H114.294V88.606C114.294 99.9629 118.911 105.396 128.811 105.396C138.711 105.396 146.191 99.3172 146.191 87.0027V37.9009H169.143V121.541H146.191V108.425C141.885 116.909 133.428 123.3 119.732 123.3C106.036 123.3 91.364 113.703 91.364 91.7904H91.3418Z" fill="black"/>
<path d="M198.332 108.269V121.541H175.225V0H198.332V51.0169C202.949 43.0226 212.672 35.9858 224.947 35.9858C245.346 35.9858 261.306 51.1728 261.306 78.8524V80.1217C261.306 107.779 245.679 123.3 224.947 123.3C204.215 123.3 202.639 116.909 198.332 108.269ZM237.866 80.2776V79.0083C237.866 62.0621 229.586 53.7337 217.933 53.7337C206.279 53.7337 197.533 62.2179 197.533 79.0083V80.2776C197.533 97.068 205.502 105.218 218.088 105.218C230.674 105.218 237.866 96.5781 237.866 80.2776Z" fill="black"/>
<path d="M261.572 106.287C261.572 97.0235 269.075 89.4968 278.686 89.4968C288.298 89.4968 296 97.0235 296 106.287C296 115.551 288.497 123.278 278.686 123.278C268.875 123.278 261.572 115.751 261.572 106.287Z" fill="#DA2128"/>
</g>
<defs>
<clipPath id="clip0_389_181">
<rect width="296" height="150" fill="white"/>
</clipPath>
</defs>
</svg>
