<svg width="159" height="50" viewBox="0 0 159 50" fill="none" xmlns="http://www.w3.org/2000/svg">
<g clip-path="url(#clip0_137_896)">
<path d="M42.8081 16.3887C42.0449 15.498 31.815 3.47416 31.7114 3.35189C31.5198 3.12724 31.3312 2.90755 31.1426 2.68887C29.6963 1.01193 27.4945 0.00894632 25.2536 0.00596421C22.3619 0.00198807 19.2396 0 15.4293 0C13.0389 0 10.7071 0.000994036 8.5015 0.000994036H7.68744C4.84069 0.00198807 3.05132 1.27634 2.05061 2.34493C0.691247 3.79722 0.00228027 5.64612 0.00228027 7.83996C0.00228027 8.16103 0.00130301 8.48211 0.00130301 8.81014C-0.000651503 9.82704 -0.00260602 10.8787 0.0130301 11.9443C0.0374616 13.6481 0.575931 15.3469 1.52876 16.7286C2.01152 17.4284 2.5109 18.1412 3.06598 18.9225C3.09042 18.9573 3.1041 18.999 3.1041 19.0408C3.10214 20.5358 3.10214 22.0308 3.10116 23.5258V23.6054C3.10019 25.3718 3.10019 27.1362 3.09726 28.9016C3.09335 31.4125 4.19276 33.7366 6.11503 35.2783C6.3828 35.493 6.675 35.7425 6.98479 36.006L9.6918 38.3032L9.74164 38.3459C13.5119 41.5447 17.4102 44.8529 21.2518 48.1004C22.6551 49.2863 24.4357 49.9602 26.2671 49.999C26.6814 50.0079 27.085 50.0089 27.3518 50.0089C27.5101 50.0089 27.6636 50.0089 27.8111 50.0079C27.9567 50.0079 28.1033 50.007 28.2499 50.007C28.6095 50.007 28.8773 50.0099 29.1177 50.0159C29.193 50.0179 29.2633 50.0189 29.3337 50.0189C31.3898 50.0189 33.3023 49.2406 34.7194 47.829C36.1901 46.3628 36.9935 44.3509 36.9827 42.164C36.9798 41.4911 36.9768 40.8091 36.9759 40.1282H37.1752C39.378 40.1272 41.224 39.3916 42.6635 37.9443C44.1245 36.4742 44.8662 34.5775 44.8672 32.3072V29.6918C44.8672 27.1779 44.8672 24.5775 44.8741 22.0219C44.8799 19.9215 44.1656 17.9732 42.8081 16.3887Z" fill="white"/>
<path d="M30.4009 4.50599C30.2133 4.28631 30.0266 4.06861 29.84 3.85191C28.7171 2.54973 27.002 1.7714 25.2517 1.76941C22.362 1.76543 19.2416 1.76344 15.4332 1.76344C13.0418 1.76344 10.7101 1.76444 8.50348 1.76444H7.68942C5.89713 1.76543 4.42245 2.3698 3.30739 3.56165C1.73694 5.24058 1.73596 7.19883 1.73596 7.84197C1.73596 8.16404 1.73498 8.48511 1.73498 8.81513C1.73303 9.82507 1.73107 10.8688 1.74573 11.9205C1.76528 13.2744 2.19234 14.6233 2.94776 15.7187C3.51457 16.5408 4.10581 17.3817 4.78305 18.332C4.81823 18.3807 4.83778 18.4414 4.83778 18.501C4.83583 20.1769 4.83485 21.8529 4.83387 23.5288V23.6093C4.83289 25.3757 4.83289 27.1421 4.82996 28.9076C4.82703 30.9026 5.66454 32.675 7.18809 33.8966C7.4754 34.1272 7.77737 34.3847 8.09792 34.6571L10.8029 36.9523L10.8753 37.0129C14.6377 40.2048 18.5282 43.506 22.361 46.7465C23.4477 47.665 24.8843 48.2087 26.3033 48.2376C26.702 48.2455 27.0929 48.2465 27.3528 48.2465C27.5053 48.2465 27.6528 48.2465 27.7955 48.2455H27.8082C27.9578 48.2455 28.1043 48.2445 28.2509 48.2445C28.6262 48.2445 28.9067 48.2475 29.1627 48.2545C29.2223 48.2555 29.278 48.2565 29.3347 48.2565C30.9579 48.2565 32.4004 47.673 33.5076 46.5696C34.6569 45.4235 35.2598 43.9026 35.251 42.172C35.2452 40.9125 35.2432 39.6272 35.2422 38.3658H35.6791L37.1743 38.3638C37.8193 38.3638 39.7826 38.3618 41.4459 36.6889C43.1346 34.9901 43.1346 32.9682 43.1356 32.3042V29.6889C43.1356 27.174 43.1356 24.5726 43.1424 22.0149C43.1473 20.3469 42.5795 18.8012 41.5026 17.5437C40.7364 16.6531 30.5045 4.62726 30.4009 4.50599ZM42.4124 29.6919V32.3062C42.4124 32.8946 42.4114 34.6859 40.9377 36.169C39.4855 37.6292 37.745 37.6312 37.1733 37.6312L35.6781 37.6332H34.52C34.521 39.1282 34.521 40.671 34.5288 42.1779C34.5367 43.7058 34.0089 45.0437 33.0024 46.0477C32.0329 47.0139 30.7654 47.5239 29.3347 47.5239C29.2839 47.5239 29.2331 47.5229 29.1813 47.5219C28.9194 47.5149 28.633 47.5119 28.2509 47.5119C28.1024 47.5119 27.9548 47.5119 27.8063 47.5129C27.6607 47.5129 27.5092 47.5139 27.3528 47.5139C27.0968 47.5139 26.7108 47.5129 26.3179 47.505C25.0592 47.4791 23.7849 46.997 22.8223 46.1829C18.9865 42.9394 15.0921 39.6352 11.3258 36.4394L11.2662 36.3887L8.56309 34.0944C8.23864 33.8181 7.93178 33.5567 7.63665 33.3201C6.28999 32.2406 5.5502 30.674 5.55313 28.9086C5.55607 27.1422 5.55704 25.3757 5.55704 23.6093V23.5288C5.55802 21.7634 5.55802 19.999 5.56095 18.2336C5.56095 18.1919 5.54727 18.1501 5.52382 18.1163C4.78208 17.0785 4.14784 16.1759 3.53998 15.2962C2.86665 14.3201 2.4865 13.1173 2.4689 11.9095C2.45425 10.8628 2.4562 9.82209 2.45815 8.81613C2.45913 8.48611 2.45913 8.16404 2.45913 7.84197C2.45913 7.27139 2.46011 5.53382 3.8312 4.06762C4.80455 3.02686 6.10333 2.49903 7.6904 2.49903H8.50446C10.7121 2.49804 13.0438 2.49804 15.4361 2.49804C19.2426 2.49804 22.362 2.50002 25.2527 2.504C26.7987 2.50599 28.3115 3.19088 29.2995 4.337C29.4862 4.55271 29.6719 4.76941 29.8575 4.9871C29.9611 5.10837 40.193 17.1352 40.9592 18.0298C41.9198 19.1511 42.4251 20.5298 42.4212 22.0169C42.4124 24.5756 42.4124 27.1769 42.4124 29.6919Z" fill="#003870"/>
<path d="M28.8177 5.89963C28.6349 5.68492 28.4502 5.4702 28.2655 5.25649C27.5336 4.40758 26.4058 3.90062 25.2478 3.89863C22.3678 3.89466 19.2562 3.89267 15.4556 3.89267C13.1806 3.89267 10.9641 3.89366 8.85722 3.89366H7.68842C7.24181 3.89366 5.8844 3.89466 4.82309 5.02885C3.82922 6.09048 3.82922 7.36285 3.82922 7.84098C3.82922 8.16404 3.82825 8.4871 3.82825 8.81812C3.82629 9.8211 3.82434 10.8569 3.83899 11.8887C3.85268 12.8191 4.1439 13.7445 4.66087 14.494C5.25016 15.3489 6.61245 17.2654 6.88413 17.6481C6.9154 17.6928 6.93202 17.7445 6.93202 17.7992C6.93104 18.3767 6.92811 21.8091 6.92713 23.5288V23.6223C6.92616 25.3847 6.92615 27.1471 6.92322 28.9095C6.92127 30.2376 7.47537 31.4145 8.48391 32.2237C8.79565 32.4732 9.1074 32.7396 9.43869 33.0219L12.2277 35.3887C15.7879 38.4095 19.823 41.832 23.6988 45.1093C24.4269 45.7247 25.3914 46.0895 26.3462 46.1093C26.7244 46.1173 27.1006 46.1183 27.3498 46.1183C27.5033 46.1183 27.6518 46.1183 27.7955 46.1173C27.947 46.1173 28.0994 46.1163 28.2528 46.1163C28.5177 46.1163 28.8666 46.1173 29.2154 46.1262C29.2555 46.1272 29.2956 46.1272 29.3347 46.1272C30.3979 46.1272 31.3341 45.7545 32.0417 45.0497C32.7775 44.3161 33.1626 43.3251 33.1567 42.1839C33.1489 40.6392 33.1489 39.0775 33.1479 37.5666V36.2416L33.6493 36.2386C33.917 36.2366 34.1838 36.2366 34.4496 36.2366H35.6761L37.1703 36.2346C37.6492 36.2346 38.9206 36.2336 39.9711 35.1759C41.0383 34.1024 41.0383 32.8429 41.0393 32.3052V29.6183C41.0393 27.1253 41.0393 24.5467 41.0461 22.0099C41.0491 20.8658 40.6601 19.8062 39.9213 18.9433C39.1542 18.0487 28.9193 6.01891 28.8177 5.89963ZM39.8851 29.6203V32.3062C39.8851 32.7634 39.8851 33.6143 39.16 34.3429C38.4456 35.0616 37.5847 35.0616 37.1703 35.0626L35.6751 35.0646H34.4516C34.1828 35.0646 33.9141 35.0656 33.6444 35.0666L31.9928 35.0765V37.5567C31.9948 39.0726 31.9948 40.6412 32.0026 42.1928C32.0065 43.0209 31.7485 43.7008 31.2344 44.2137C30.7409 44.7058 30.1018 44.9553 29.3356 44.9553C29.3053 44.9553 29.275 44.9553 29.2457 44.9543C28.9144 44.9453 28.5831 44.9433 28.2538 44.9433C28.0994 44.9433 27.946 44.9433 27.7935 44.9443C27.6518 44.9443 27.5033 44.9453 27.3508 44.9453C27.0352 44.9453 26.7009 44.9433 26.3706 44.9364C25.6836 44.9225 24.9614 44.6491 24.4386 44.2078C20.6126 40.9722 16.727 37.676 12.9695 34.4881L10.1863 32.1262C9.84714 31.838 9.52762 31.5646 9.20219 31.3032C8.46729 30.7137 8.07932 29.8877 8.08127 28.9145C8.08421 27.1471 8.08518 25.3797 8.08518 23.6133V23.5318C8.08616 21.6511 8.08616 19.7694 8.09007 17.8887V17.4533C8.09105 17.3777 8.06759 17.3042 8.02362 17.2435L7.77148 16.8917C6.94961 15.7455 6.2626 14.7704 5.60979 13.8231C5.22475 13.2644 5.00682 12.5736 4.99705 11.8758C4.98239 10.8529 4.98434 9.82209 4.9863 8.82408C4.98727 8.49307 4.98727 8.16901 4.98727 7.84595C4.98727 7.43044 4.98727 6.56464 5.66256 5.84297C6.3828 5.07259 7.30045 5.07259 7.69135 5.07259H8.50541C10.7169 5.0716 13.0555 5.0716 15.4586 5.0716C18.6562 5.0716 21.9681 5.07259 25.2487 5.07756C26.0667 5.07855 26.8905 5.44535 27.3997 6.03482C27.5834 6.24754 27.7662 6.46026 27.946 6.67199C28.0496 6.79327 38.2844 18.8241 39.0535 19.7217C39.6056 20.3658 39.8959 21.159 39.8939 22.0129C39.8851 24.5457 39.8851 27.1253 39.8851 29.6203Z" fill="#003870"/>
<path d="M34.1681 17.4354C33.6472 16.8191 33.1263 16.2028 32.538 15.507C32.5253 15.7237 32.5136 15.838 32.5136 15.9533C32.5126 20.0358 32.5136 24.1173 32.5126 28.1998C32.5126 28.6899 32.5029 28.6958 32.0347 28.6958C28.7189 28.6948 25.4031 28.7018 22.0863 28.6859C21.7794 28.6849 21.6699 28.7734 21.6396 28.9911V38.8747C23.0479 40.0686 24.4561 41.2624 25.8663 42.4543C26.009 42.5746 26.2289 42.6541 26.4145 42.6581C27.3752 42.6779 28.3368 42.6511 29.2974 42.6759C29.6629 42.6849 29.7636 42.5746 29.7616 42.2018C29.747 39.2197 29.7587 36.2376 29.746 33.2555C29.7441 32.8897 29.8418 32.7744 30.2122 32.7773C32.5312 32.7942 34.8502 32.7863 37.1683 32.7843C37.6442 32.7843 37.6462 32.7803 37.6462 32.3052C37.6471 28.8708 37.6442 25.4364 37.653 22.002C37.654 21.6869 37.566 21.4483 37.3637 21.2117C36.2917 19.9602 35.2323 18.6958 34.1681 17.4354Z" fill="#003870"/>
<path d="M42.8081 16.3887C42.0449 15.498 31.815 3.47416 31.7114 3.35189C31.5198 3.12724 31.3312 2.90755 31.1426 2.68887C29.6963 1.01193 27.4945 0.00894632 25.2536 0.00596421C22.3619 0.00198807 19.2396 0 15.4293 0C13.0389 0 10.7071 0.000994036 8.5015 0.000994036H7.68744C4.84069 0.00198807 3.05132 1.27634 2.05061 2.34493C0.691247 3.79722 0.00228027 5.64612 0.00228027 7.83996C0.00228027 8.16103 0.00130301 8.48211 0.00130301 8.81014C-0.000651503 9.82704 -0.00260602 10.8787 0.0130301 11.9443C0.0374616 13.6481 0.575931 15.3469 1.52876 16.7286C2.01152 17.4284 2.5109 18.1412 3.06598 18.9225C3.09042 18.9573 3.1041 18.999 3.1041 19.0408C3.10214 20.5358 3.10214 22.0308 3.10116 23.5258V23.6054C3.10019 25.3718 3.10019 27.1362 3.09726 28.9016C3.09335 31.4125 4.19276 33.7366 6.11503 35.2783C6.3828 35.493 6.675 35.7425 6.98479 36.006L9.6918 38.3032L9.74164 38.3459C13.5119 41.5447 17.4102 44.8529 21.2518 48.1004C22.6551 49.2863 24.4357 49.9602 26.2671 49.999C26.6814 50.0079 27.085 50.0089 27.3518 50.0089C27.5101 50.0089 27.6636 50.0089 27.8111 50.0079C27.9567 50.0079 28.1033 50.007 28.2499 50.007C28.6095 50.007 28.8773 50.0099 29.1177 50.0159C29.193 50.0179 29.2633 50.0189 29.3337 50.0189C31.3898 50.0189 33.3023 49.2406 34.7194 47.829C36.1901 46.3628 36.9935 44.3509 36.9827 42.164C36.9798 41.4911 36.9768 40.8091 36.9759 40.1282H37.1752C39.378 40.1272 41.224 39.3916 42.6635 37.9443C44.1245 36.4742 44.8662 34.5775 44.8672 32.3072V29.6918C44.8672 27.1779 44.8672 24.5775 44.8741 22.0219C44.8799 19.9215 44.1656 17.9732 42.8081 16.3887ZM44.578 29.6928V32.3081C44.577 34.498 43.8646 36.3241 42.4602 37.7366C41.0774 39.1282 39.2988 39.834 37.1752 39.836H36.6876C36.6885 40.6163 36.6905 41.3966 36.6944 42.168C36.7052 44.2753 35.9321 46.2117 34.5181 47.6223C33.1558 48.9801 31.3146 49.7286 29.3347 49.7286C29.2672 49.7286 29.1988 49.7276 29.1265 49.7256C28.8832 49.7197 28.6135 49.7167 28.2519 49.7167C28.1053 49.7167 27.9587 49.7167 27.8131 49.7177C27.6655 49.7177 27.5121 49.7187 27.3547 49.7187C27.0889 49.7187 26.6873 49.7177 26.2759 49.7087C24.5354 49.673 22.7734 49.005 21.4394 47.8787C17.5988 44.6312 13.6995 41.3231 9.92924 38.1243L9.8794 38.0815L7.17243 35.7843C6.86068 35.5189 6.56652 35.2684 6.29582 35.0507C4.44392 33.5656 3.38359 31.3251 3.3875 28.9056C3.39043 27.1402 3.39141 25.3748 3.39141 23.6083V23.5288C3.39141 21.995 3.39239 20.4602 3.39434 18.9264C3.39434 18.8986 3.38555 18.8718 3.36991 18.8489C2.78844 18.0318 2.26854 17.2903 1.76721 16.5626C0.846632 15.2286 0.32673 13.5875 0.303276 11.9423C0.28764 10.8787 0.290571 9.82803 0.291549 8.81213C0.292526 8.4831 0.292526 8.16302 0.292526 7.84195C0.293503 5.72565 0.955107 3.94533 2.2617 2.5497C3.66016 1.05567 5.48568 0.297217 7.68939 0.296223H8.50345C10.7091 0.295229 13.0408 0.295229 15.4312 0.295229C19.2415 0.295229 22.3629 0.297217 25.2546 0.301193C27.4134 0.304175 29.534 1.26938 30.9266 2.8837C31.1152 3.10239 31.3038 3.32207 31.4944 3.54573C31.598 3.667 41.8279 15.6909 42.5912 16.5825C43.9017 18.1123 44.5916 19.994 44.5858 22.0229C44.578 24.5785 44.578 27.1779 44.578 29.6928Z" fill="#003870"/>
<path d="M26.6911 16.6441C25.1314 16.6551 23.5717 16.661 22.012 16.6481C21.6983 16.6451 21.6289 16.7624 21.6338 17.0517C21.6475 17.9304 21.6387 18.8091 21.6396 19.6879C21.6406 20.5785 21.6475 21.4702 21.6357 22.3608C21.6318 22.6441 21.7305 22.7455 22.013 22.7435C23.5727 22.7346 25.1324 22.7356 26.6921 22.7445C26.9569 22.7465 27.0527 22.6481 27.0517 22.3807C27.0449 20.5865 27.0439 18.7922 27.0517 16.998C27.0527 16.7247 26.952 16.6422 26.6911 16.6441Z" fill="#003870"/>
<path d="M15.6345 32.9642V31.5994C15.6287 26.7724 15.6287 21.9443 15.6394 17.1173C15.6404 16.7435 15.5378 16.6282 15.1742 16.6441C14.5146 16.671 13.853 16.6531 13.1923 16.6531C12.6676 16.6531 12.6617 16.6521 12.6607 16.1024C12.6578 14.672 12.6588 13.2425 12.6607 11.8121C12.6617 11.2704 12.6656 11.2704 13.209 11.2704C18.2555 11.2704 23.3011 11.2694 28.3477 11.2694H28.8148C28.7356 11.1342 28.7132 11.0775 28.6751 11.0328C27.6919 9.86287 26.7127 8.68991 25.7149 7.53285C25.6153 7.41754 25.4032 7.35094 25.2439 7.35094C19.3931 7.34299 13.5412 7.34497 7.69041 7.34696C7.22328 7.34696 7.22328 7.34994 7.2223 7.84398C7.2223 9.17599 7.21252 10.5079 7.23109 11.84C7.23402 12.0666 7.31025 12.328 7.43828 12.5129C8.30022 13.7624 9.17975 14.999 10.0671 16.2306C10.2469 16.4801 10.327 16.7266 10.327 17.0378C10.3182 20.998 10.3231 24.9573 10.3173 28.9175C10.3173 29.173 10.3866 29.3549 10.586 29.5149C11.0287 29.8698 11.4587 30.2425 11.8926 30.6103C13.1396 31.669 14.3875 32.7266 15.6345 33.7853V33.5596C15.6111 33.4493 15.6306 33.2654 15.6345 32.9642Z" fill="#003870"/>
<path d="M50.7275 14.5117H55.3246C58.1293 14.5197 59.5307 16.0823 59.5307 19.1986V25.475C59.5307 27.7752 58.5231 29.2583 56.507 29.9243C56.0233 30.0833 55.3207 30.1628 54.3981 30.1628H53.8851V36.7801H50.7275V14.5117ZM53.8851 17.6787V26.9849H54.6102C55.049 26.9849 55.35 26.9551 55.5142 26.8934C56.0868 26.6589 56.3732 26.1867 56.3732 25.475V19.1996C56.3732 18.1857 55.9158 17.6787 55.0001 17.6787H53.8851Z" fill="#003870"/>
<path d="M71.807 32.4551C71.807 35.5724 70.2932 37.135 67.2657 37.1429C64.2459 37.1429 62.7361 35.5803 62.7361 32.4551V14.5117H65.8936V32.4551C65.8936 33.461 66.351 33.965 67.2657 33.965C68.1804 33.965 68.6495 33.462 68.6495 32.4551V14.5117H71.807V32.4551Z" fill="#003870"/>
<path d="M74.8706 36.7801V14.5117H78.0281V33.6131H83.06V36.7791H74.8706V36.7801Z" fill="#003870"/>
<path d="M87.1607 30.2196V32.4552C87.1607 33.4611 87.622 33.9651 88.5445 33.9651C89.467 33.9651 89.9166 33.4621 89.9166 32.4552V32.0466C89.9166 30.9721 88.9305 29.7166 86.9594 28.2782C84.9883 26.8478 84.0022 25.1083 84.0022 23.0576V18.8359C84.0022 15.7186 85.5121 14.1599 88.5328 14.1599C91.5535 14.1599 93.0741 15.7186 93.0741 18.8359V21.8319H89.9166V18.8359C89.9166 17.8369 89.4592 17.3339 88.5445 17.3259H88.522C87.6141 17.3259 87.1607 17.8289 87.1607 18.8359V22.99C87.1607 23.981 88.1458 25.1957 90.1179 26.6331C92.089 28.0635 93.0741 29.7772 93.0741 31.7743V32.4552C93.0741 35.5804 91.5642 37.143 88.5445 37.143C85.5169 37.1351 84.0032 35.5725 84.0032 32.4552V30.2196H87.1607Z" fill="#003870"/>
<path d="M95.657 14.5117H103.846V17.6787H98.8145V27.0197H103.144V30.1976H98.8145V33.6141H103.846V36.7801H95.657V14.5117Z" fill="#003870"/>
<path d="M120.766 29.7662L124.436 14.5127H127.594V36.7801H124.57V24.2841L121.87 36.7801H119.728L116.949 24.2841V36.7801H113.893V14.5117H117.05L120.766 29.7662Z" fill="#003870"/>
<path d="M135.654 19.6191L133.422 36.7791H130.242L133.5 14.5117H137.83L141.077 36.7791H137.885L135.654 19.6191Z" fill="#003870"/>
<path d="M143.747 14.5117H146.905V36.7791H143.747V14.5117Z" fill="#003870"/>
<path d="M153.088 30.2196V32.4552C153.088 33.4611 153.55 33.9651 154.472 33.9651C155.395 33.9651 155.844 33.4621 155.844 32.4552V32.0466C155.844 30.9721 154.858 29.7166 152.887 28.2782C150.916 26.8478 149.931 25.1083 149.931 23.0576V18.8359C149.931 15.7186 151.441 14.1599 154.461 14.1599C157.48 14.1599 159.002 15.7186 159.002 18.8359V21.8319H155.844V18.8359C155.844 17.8369 155.387 17.3339 154.472 17.3259H154.45C153.542 17.3259 153.088 17.8289 153.088 18.8359V22.99C153.088 23.981 154.074 25.1957 156.046 26.6331C158.017 28.0635 159.003 29.7772 159.003 31.7743V32.4552C159.003 35.5804 157.493 37.143 154.472 37.143C151.445 37.1351 149.931 35.5725 149.931 32.4552V30.2196H153.088Z" fill="#003870"/>
</g>
<defs>
<clipPath id="clip0_137_896">
<rect width="159" height="50" fill="white"/>
</clipPath>
</defs>
</svg>
