<svg width="294" height="92" viewBox="0 0 294 92" fill="none" xmlns="http://www.w3.org/2000/svg">
<g clip-path="url(#clip0_89_164)">
<path d="M79.1547 30.1551C77.7434 28.5163 58.8276 6.39245 58.6361 6.16748C58.2819 5.75412 57.9332 5.3499 57.5844 4.94752C54.9101 1.86195 50.8389 0.0164612 46.6954 0.0109742C41.3485 0.00365805 35.5751 0 28.5296 0C24.1096 0 19.7981 0.00182903 15.7197 0.00182903H14.2145C8.9507 0.00365805 5.64207 2.34847 3.7917 4.31467C1.27816 6.98688 0.00421635 10.3889 0.00421635 14.4255C0.00421635 15.0163 0.00240934 15.6071 0.00240934 16.2107C-0.00120467 18.0817 -0.00481869 20.0169 0.0240934 21.9776C0.0692685 25.1125 1.06493 28.2383 2.82675 30.7807C3.71942 32.0683 4.6428 33.3797 5.66918 34.8173C5.71435 34.8814 5.73965 34.9582 5.73965 35.035C5.73604 37.7858 5.73604 40.5367 5.73423 43.2876V43.4339C5.73242 46.6841 5.73242 49.9306 5.727 53.1789C5.71977 57.799 7.75266 62.0753 11.307 64.9121C11.8022 65.3072 12.3425 65.7663 12.9153 66.251L17.9207 70.4779L18.0128 70.5565C24.9842 76.4423 32.1924 82.5293 39.2957 88.5047C41.8906 90.6868 45.1829 91.9268 48.5693 91.9982C49.3354 92.0146 50.0817 92.0165 50.575 92.0165C50.8678 92.0165 51.1515 92.0165 51.4243 92.0146C51.6936 92.0146 51.9646 92.0128 52.2357 92.0128C52.9007 92.0128 53.3958 92.0183 53.8403 92.0293C53.9794 92.0329 54.1096 92.0348 54.2397 92.0348C58.0416 92.0348 61.5779 90.6026 64.1981 88.0054C66.9176 85.3076 68.403 81.6057 68.3831 77.5818C68.3777 76.3435 68.3723 75.0888 68.3705 73.8359H68.7391C72.8121 73.8341 76.2255 72.4806 78.8872 69.8176C81.5887 67.1124 82.9602 63.6227 82.962 59.4452V54.633C82.962 50.0074 82.962 45.2227 82.9747 40.5202C82.9855 36.6555 81.6646 33.0706 79.1547 30.1551Z" fill="white"/>
<path d="M56.2129 8.29091C55.866 7.8867 55.5209 7.48614 55.1757 7.08741C53.0995 4.69139 49.9282 3.25926 46.6918 3.2556C41.3485 3.24829 35.5787 3.24463 28.5368 3.24463C24.1151 3.24463 19.8036 3.24646 15.7234 3.24646H14.2181C10.9041 3.24829 8.17731 4.36033 6.11552 6.55334C3.21166 9.64256 3.20985 13.2457 3.20985 14.4291C3.20985 15.0217 3.20805 15.6125 3.20805 16.2197C3.20443 18.078 3.20082 19.9985 3.22792 21.9336C3.26406 24.4247 4.05372 26.9067 5.45054 28.9223C6.49861 30.4349 7.59184 31.9822 8.8441 33.7308C8.90915 33.8204 8.94529 33.932 8.94529 34.0417C8.94168 37.1255 8.93987 40.2092 8.93806 43.2929V43.4411C8.93626 46.6913 8.93626 49.9415 8.93084 53.1898C8.92542 56.8607 10.474 60.1218 13.2911 62.3697C13.8224 62.794 14.3808 63.2677 14.9735 63.7689L19.9752 67.9921L20.1089 68.1037C27.0659 73.9767 34.2596 80.0509 41.3467 86.0135C43.3561 87.7035 46.0124 88.704 48.6362 88.757C49.3734 88.7717 50.0962 88.7735 50.5769 88.7735C50.8588 88.7735 51.1316 88.7735 51.3955 88.7717H51.419C51.6954 88.7717 51.9665 88.7698 52.2375 88.7698C52.9314 88.7698 53.45 88.7753 53.9235 88.7881C54.0337 88.79 54.1367 88.7918 54.2415 88.7918C57.2429 88.7918 59.9101 87.7181 61.9574 85.6879C64.0825 83.5791 65.1974 80.7807 65.1811 77.5963C65.1703 75.2789 65.1667 72.914 65.1649 70.593H65.9726L68.7373 70.5893C69.9299 70.5893 73.5602 70.5857 76.6357 67.5074C79.7582 64.3816 79.7582 60.6614 79.7601 59.4396V54.6274C79.7601 50 79.7601 45.2134 79.7727 40.5073C79.7817 37.4382 78.7319 34.5941 76.7405 32.2804C75.3239 30.6416 56.4045 8.51405 56.2129 8.29091ZM78.4229 54.6329V59.4432C78.4229 60.526 78.4211 63.8219 75.6961 66.5508C73.0109 69.2377 69.7926 69.2413 68.7355 69.2413L65.9708 69.245H63.8295C63.8313 71.9958 63.8313 74.8345 63.8457 77.6073C63.8602 80.4185 62.8844 82.8804 61.0232 84.7277C59.2306 86.5055 56.887 87.4438 54.2415 87.4438C54.1475 87.4438 54.0536 87.442 53.9578 87.4401C53.4735 87.4273 52.9441 87.4219 52.2375 87.4219C51.9629 87.4219 51.69 87.4219 51.4153 87.4237C51.1461 87.4237 50.866 87.4255 50.5769 87.4255C50.1035 87.4255 49.3897 87.4237 48.6633 87.409C46.3358 87.3615 43.9795 86.4744 42.1996 84.9764C35.1071 79.0083 27.9062 72.9286 20.942 67.0483L20.8317 66.9551L15.8336 62.7337C15.2337 62.2252 14.6663 61.7442 14.1206 61.3088C11.6305 59.3225 10.2626 56.44 10.268 53.1916C10.2734 49.9415 10.2752 46.6913 10.2752 43.4411V43.2929C10.2771 40.0446 10.2771 36.7981 10.2825 33.5497C10.2825 33.4729 10.2572 33.3961 10.2138 33.3339C8.84229 31.4244 7.66955 29.7636 6.54559 28.145C5.30056 26.3488 4.59763 24.1357 4.56511 21.9135C4.538 19.9875 4.54162 18.0725 4.54523 16.2216C4.54704 15.6143 4.54704 15.0217 4.54704 14.4291C4.54704 13.3793 4.54884 10.1821 7.08408 7.48431C8.88385 5.56932 11.2854 4.59811 14.2199 4.59811H15.7252C19.8072 4.59628 24.1187 4.59628 28.5422 4.59628C35.5805 4.59628 41.3485 4.59994 46.6936 4.60725C49.5523 4.61091 52.3496 5.87111 54.1764 7.97998C54.5216 8.37688 54.8649 8.7756 55.2083 9.17616C55.3998 9.3993 74.3192 31.5286 75.7358 33.1748C77.5121 35.2379 78.4464 37.7748 78.4391 40.511C78.4229 45.2189 78.4229 50.0055 78.4229 54.6329Z" fill="#003870"/>
<path d="M53.2855 10.8554C52.9476 10.4603 52.6061 10.0653 52.2646 9.67202C50.9111 8.11003 48.8259 7.17723 46.6846 7.17357C41.3593 7.16626 35.6058 7.1626 28.5783 7.1626C24.3716 7.1626 20.2733 7.16443 16.3775 7.16443H14.2163C13.3905 7.16443 10.8806 7.16626 8.91818 9.25317C7.08046 11.2066 7.08046 13.5477 7.08046 14.4275C7.08046 15.0219 7.07865 15.6164 7.07865 16.2254C7.07504 18.0709 7.07142 19.9767 7.09853 21.8752C7.12383 23.5872 7.66231 25.29 8.61822 26.6691C9.70785 28.2421 12.2268 31.7684 12.7292 32.4726C12.787 32.5549 12.8177 32.65 12.8177 32.7506C12.8159 33.8133 12.8105 40.1289 12.8087 43.2931V43.4651C12.8069 46.7079 12.8069 49.9508 12.8014 53.1937C12.7978 55.6372 13.8224 57.8028 15.6872 59.2916C16.2637 59.7507 16.8401 60.2409 17.4527 60.7603L22.6098 65.1152C29.1927 70.6737 36.6539 76.971 43.8204 83.0013C45.1667 84.1335 46.9502 84.8047 48.7156 84.8413C49.4149 84.8559 50.1106 84.8578 50.5714 84.8578C50.8551 84.8578 51.1298 84.8578 51.3954 84.8559C51.6755 84.8559 51.9574 84.8541 52.2411 84.8541C52.7308 84.8541 53.3759 84.8559 54.021 84.8724C54.0951 84.8742 54.1692 84.8742 54.2415 84.8742C56.2075 84.8742 57.9386 84.1883 59.2469 82.8916C60.6075 81.5417 61.3195 79.7182 61.3087 77.6185C61.2942 74.7762 61.2942 71.9028 61.2924 69.1226V66.6846L62.2194 66.6791C62.7145 66.6754 63.2078 66.6754 63.6993 66.6754H65.9671L68.73 66.6717C69.6155 66.6717 71.9664 66.6699 73.9089 64.7238C75.8822 62.7485 75.8822 60.4311 75.884 59.4416V54.4978C75.884 49.9106 75.884 45.1661 75.8966 40.4984C75.902 38.3932 75.1829 36.4434 73.8168 34.8558C72.3983 33.2097 53.4735 11.0749 53.2855 10.8554ZM73.7499 54.5014V59.4434C73.7499 60.2848 73.7499 61.8504 72.4091 63.1911C71.0882 64.5135 69.4962 64.5135 68.73 64.5153L65.9653 64.519H63.7029C63.206 64.519 62.7091 64.5208 62.2104 64.5226L59.1565 64.5409V69.1044C59.1601 71.8936 59.1601 74.7798 59.1746 77.6349C59.1818 79.1585 58.7048 80.4096 57.7543 81.3533C56.8417 82.2587 55.66 82.7178 54.2433 82.7178C54.1872 82.7178 54.1312 82.7178 54.077 82.716C53.4644 82.6995 52.8519 82.6958 52.2429 82.6958C51.9574 82.6958 51.6737 82.6958 51.3918 82.6977C51.1298 82.6977 50.8551 82.6995 50.5732 82.6995C49.9896 82.6995 49.3716 82.6958 48.7608 82.683C47.4905 82.6574 46.1551 82.1545 45.1884 81.3424C38.1139 75.3889 30.9293 69.3238 23.9813 63.4582L18.835 59.1124C18.2079 58.582 17.6171 58.079 17.0154 57.598C15.6565 56.5133 14.9391 54.9934 14.9427 53.2028C14.9482 49.9508 14.95 46.6988 14.95 43.4486V43.2986C14.9518 39.8381 14.9518 36.3758 14.959 32.9152V32.1141C14.9608 31.9751 14.9174 31.8398 14.8361 31.7282L14.3699 31.0807C12.8502 28.9719 11.5799 27.1776 10.3728 25.4345C9.66086 24.4066 9.2579 23.1354 9.23983 21.8515C9.21273 19.9694 9.21634 18.0727 9.21995 16.2364C9.22176 15.6273 9.22176 15.0311 9.22176 14.4366C9.22176 13.6721 9.22176 12.079 10.4704 10.7511C11.8022 9.33365 13.4989 9.33365 14.2217 9.33365H15.727C19.8162 9.33182 24.1403 9.33182 28.5838 9.33182C34.4963 9.33182 40.6202 9.33365 46.6864 9.3428C48.1988 9.34463 49.7221 10.0195 50.6636 11.1041C51.0033 11.4956 51.3412 11.887 51.6737 12.2766C51.8652 12.4997 70.79 34.6364 72.2121 36.288C73.2331 37.4732 73.7698 38.9327 73.7662 40.5039C73.7499 45.1642 73.7499 49.9106 73.7499 54.5014Z" fill="#003870"/>
<path d="M63.179 32.081C62.2159 30.947 61.2527 29.813 60.1649 28.5327C60.1414 28.9314 60.1197 29.1418 60.1197 29.3539C60.1179 36.8658 60.1197 44.3757 60.1179 51.8875C60.1179 52.7893 60.0999 52.8002 59.2343 52.8002C53.1031 52.7984 46.972 52.8112 40.839 52.7819C40.2716 52.7801 40.0692 52.9429 40.0132 53.3434V71.5294C42.6171 73.7261 45.221 75.9228 47.8285 78.1158C48.0923 78.3371 48.4989 78.4834 48.8422 78.4907C50.6185 78.5273 52.3966 78.4779 54.1729 78.5236C54.8487 78.5401 55.0348 78.3371 55.0312 77.6512C55.0041 72.1641 55.0258 66.677 55.0023 61.19C54.9987 60.5169 55.1794 60.3047 55.8643 60.3102C60.1523 60.3413 64.4403 60.3267 68.7265 60.323C69.6065 60.323 69.6101 60.3157 69.6101 59.4414C69.612 53.1221 69.6065 46.8029 69.6228 40.4836C69.6246 39.9038 69.462 39.4648 69.0879 39.0295C67.1056 36.7268 65.1468 34.4002 63.179 32.081Z" fill="#003870"/>
<path d="M79.1547 30.1551C77.7434 28.5163 58.8276 6.39245 58.6361 6.16748C58.2819 5.75412 57.9332 5.3499 57.5844 4.94752C54.9101 1.86195 50.8389 0.0164612 46.6954 0.0109742C41.3485 0.00365805 35.5751 0 28.5296 0C24.1096 0 19.7981 0.00182903 15.7197 0.00182903H14.2145C8.9507 0.00365805 5.64207 2.34847 3.7917 4.31467C1.27816 6.98688 0.00421635 10.3889 0.00421635 14.4255C0.00421635 15.0163 0.00240934 15.6071 0.00240934 16.2107C-0.00120467 18.0817 -0.00481869 20.0169 0.0240934 21.9776C0.0692685 25.1125 1.06493 28.2383 2.82675 30.7807C3.71942 32.0683 4.6428 33.3797 5.66918 34.8173C5.71435 34.8814 5.73965 34.9582 5.73965 35.035C5.73604 37.7858 5.73604 40.5367 5.73423 43.2876V43.4339C5.73242 46.6841 5.73242 49.9306 5.727 53.1789C5.71977 57.799 7.75266 62.0753 11.307 64.9121C11.8022 65.3072 12.3425 65.7663 12.9153 66.251L17.9207 70.4779L18.0128 70.5565C24.9842 76.4423 32.1924 82.5293 39.2957 88.5047C41.8906 90.6868 45.1829 91.9268 48.5693 91.9982C49.3354 92.0146 50.0817 92.0165 50.575 92.0165C50.8678 92.0165 51.1515 92.0165 51.4243 92.0146C51.6936 92.0146 51.9646 92.0128 52.2357 92.0128C52.9007 92.0128 53.3958 92.0183 53.8403 92.0293C53.9794 92.0329 54.1096 92.0348 54.2397 92.0348C58.0416 92.0348 61.5779 90.6026 64.1981 88.0054C66.9176 85.3076 68.403 81.6057 68.3831 77.5818C68.3777 76.3435 68.3723 75.0888 68.3705 73.8359H68.7391C72.8121 73.8341 76.2255 72.4806 78.8872 69.8176C81.5887 67.1124 82.9602 63.6227 82.962 59.4452V54.633C82.962 50.0074 82.962 45.2227 82.9747 40.5202C82.9855 36.6555 81.6646 33.0706 79.1547 30.1551ZM82.4272 54.6348V59.447C82.4254 63.4763 81.108 66.8363 78.5114 69.4353C75.9545 71.9959 72.6657 73.2946 68.7391 73.2982H67.8374C67.8392 74.734 67.8428 76.1698 67.85 77.5891C67.8699 81.4666 66.4406 85.0296 63.8258 87.625C61.3069 90.1234 57.9025 91.5007 54.2415 91.5007C54.1168 91.5007 53.9903 91.4988 53.8566 91.4952C53.4066 91.4842 52.9079 91.4787 52.2393 91.4787C51.9682 91.4787 51.6972 91.4787 51.428 91.4806C51.1551 91.4806 50.8714 91.4824 50.5805 91.4824C50.089 91.4824 49.3463 91.4806 48.5855 91.4641C45.3673 91.3983 42.1092 90.1692 39.6427 88.0969C32.5411 82.1214 25.3312 76.0344 18.3597 70.1486L18.2676 70.07L13.2622 65.8431C12.6858 65.3548 12.1419 64.8938 11.6413 64.4933C8.21706 61.7607 6.25645 57.6381 6.26368 53.1862C6.2691 49.9379 6.27091 46.6895 6.27091 43.4394V43.293C6.27091 40.4709 6.27272 37.6468 6.27633 34.8247C6.27633 34.7734 6.26007 34.7241 6.23116 34.682C5.15599 33.1785 4.19466 31.8141 3.26766 30.4752C1.56547 28.0207 0.604142 25.001 0.560774 21.9739C0.531862 20.0169 0.537283 18.0836 0.53909 16.2143C0.540897 15.6089 0.540897 15.02 0.540897 14.4292C0.542704 10.5352 1.76605 7.2594 4.18201 4.69145C6.76784 1.94243 10.1433 0.546879 14.2181 0.54505H15.7234C19.8017 0.543221 24.1132 0.543221 28.5332 0.543221C35.5787 0.543221 41.3503 0.546879 46.6972 0.554195C50.6889 0.559682 54.6101 2.33567 57.1851 5.306C57.5338 5.70839 57.8826 6.1126 58.235 6.52414C58.4265 6.74728 77.3422 28.8712 78.7535 30.5118C81.1767 33.3267 82.4525 36.789 82.4416 40.5221C82.4272 45.2245 82.4272 50.0074 82.4272 54.6348Z" fill="#003870"/>
<path d="M49.3536 30.6253C46.4697 30.6454 43.5857 30.6564 40.7017 30.6326C40.1216 30.6271 39.9934 30.843 40.0024 31.3752C40.0277 32.9921 40.0114 34.6089 40.0132 36.2258C40.015 37.8646 40.0277 39.5052 40.006 41.144C39.9988 41.6653 40.1813 41.8519 40.7035 41.8482C43.5875 41.8317 46.4715 41.8336 49.3555 41.85C49.8452 41.8537 50.0222 41.6726 50.0204 41.1806C50.0078 37.8792 50.006 34.5778 50.0204 31.2764C50.0222 30.7735 49.8361 30.6217 49.3536 30.6253Z" fill="#003870"/>
<path d="M28.909 60.6541V58.1429C28.8982 49.2611 28.8982 40.3776 28.9181 31.4958C28.9199 30.8081 28.7301 30.5959 28.0579 30.6252C26.8382 30.6746 25.6149 30.6417 24.3933 30.6417C23.423 30.6417 23.4121 30.6398 23.4103 29.6284C23.4049 26.9964 23.4067 24.3663 23.4103 21.7343C23.4121 20.7375 23.4193 20.7375 24.424 20.7375C33.7554 20.7375 43.085 20.7357 52.4164 20.7357H53.2801C53.1338 20.4869 53.0922 20.3827 53.0217 20.3003C51.2039 18.1477 49.3933 15.9894 47.5483 13.8604C47.364 13.6483 46.9719 13.5257 46.6773 13.5257C35.8588 13.5111 25.0384 13.5148 14.2199 13.5184C13.3562 13.5184 13.3562 13.5239 13.3544 14.4329C13.3544 16.8838 13.3363 19.3346 13.3706 21.7855C13.376 22.2025 13.517 22.6836 13.7537 23.0238C15.3475 25.3228 16.9738 27.5982 18.6145 29.8643C18.947 30.3234 19.0952 30.777 19.0952 31.3495C19.0789 38.6363 19.0879 45.9213 19.0771 53.2082C19.0771 53.6782 19.2054 54.013 19.574 54.3074C20.3926 54.9604 21.1877 55.6463 21.99 56.323C24.2957 58.2709 26.6033 60.217 28.909 62.1649V61.7497C28.8657 61.5467 28.9018 61.2083 28.909 60.6541Z" fill="#003870"/>
<path d="M93.7981 26.7017H102.298C107.484 26.7163 110.076 29.5915 110.076 35.3255V46.874C110.076 51.1064 108.213 53.8353 104.485 55.0607C103.59 55.3533 102.291 55.4997 100.585 55.4997H99.6365V67.6755H93.7981V26.7017ZM99.6365 32.5289V49.6523H100.977C101.789 49.6523 102.345 49.5974 102.649 49.484C103.708 49.0524 104.237 48.1836 104.237 46.874V35.3273C104.237 33.4617 103.391 32.5289 101.698 32.5289H99.6365Z" fill="white"/>
<path d="M132.775 59.7174C132.775 65.4532 129.976 68.3285 124.378 68.3431C118.795 68.3431 116.003 65.4679 116.003 59.7174V26.7017H121.841V59.7174C121.841 61.5684 122.687 62.4957 124.378 62.4957C126.07 62.4957 126.937 61.5702 126.937 59.7174V26.7017H132.775V59.7174Z" fill="white"/>
<path d="M138.44 67.6755V26.7017H144.279V61.8482H153.583V67.6737H138.44V67.6755Z" fill="white"/>
<path d="M161.165 55.6039V59.7174C161.165 61.5684 162.018 62.4957 163.724 62.4957C165.43 62.4957 166.261 61.5702 166.261 59.7174V58.9657C166.261 56.9885 164.438 54.6785 160.793 52.0319C157.148 49.3999 155.325 46.1991 155.325 42.4258V34.6579C155.325 28.9221 158.117 26.0542 163.702 26.0542C169.288 26.0542 172.099 28.9221 172.099 34.6579V40.1706H166.261V34.6579C166.261 32.8198 165.415 31.8943 163.724 31.8796H163.682C162.004 31.8796 161.165 32.8051 161.165 34.6579V42.3014C161.165 44.125 162.987 46.36 166.633 49.0048C170.278 51.6368 172.099 54.79 172.099 58.4645V59.7174C172.099 65.4679 169.308 68.3431 163.724 68.3431C158.126 68.3285 155.327 65.4532 155.327 59.7174V55.6039H161.165Z" fill="white"/>
<path d="M176.875 26.7017H192.018V32.5289H182.714V49.7163H190.719V55.5637H182.714V61.85H192.018V67.6755H176.875V26.7017Z" fill="white"/>
<path d="M223.303 54.7699L230.09 26.7035H235.928V67.6755H230.337V44.6828L225.345 67.6755H221.384L216.246 44.6828V67.6755H210.594V26.7017H216.432L223.303 54.7699Z" fill="white"/>
<path d="M250.832 36.0992L246.705 67.6737H240.825L246.85 26.7017H254.855L260.859 67.6737H254.958L250.832 36.0992Z" fill="white"/>
<path d="M265.796 26.7017H271.635V67.6737H265.796V26.7017Z" fill="white"/>
<path d="M283.069 55.6039V59.7174C283.069 61.5684 283.922 62.4957 285.628 62.4957C287.334 62.4957 288.165 61.5702 288.165 59.7174V58.9657C288.165 56.9885 286.342 54.6785 282.697 52.0319C279.052 49.3999 277.231 46.1991 277.231 42.4258V34.6579C277.231 28.9221 280.023 26.0542 285.606 26.0542C291.19 26.0542 294.004 28.9221 294.004 34.6579V40.1706H288.165V34.6579C288.165 32.8198 287.319 31.8943 285.628 31.8796H285.587C283.908 31.8796 283.069 32.8051 283.069 34.6579V42.3014C283.069 44.125 284.893 46.36 288.537 49.0048C292.182 51.6368 294.005 54.79 294.005 58.4645V59.7174C294.005 65.4679 291.214 68.3431 285.628 68.3431C280.03 68.3285 277.231 65.4532 277.231 59.7174V55.6039H283.069Z" fill="white"/>
</g>
<defs>
<clipPath id="clip0_89_164">
<rect width="294" height="92" fill="white"/>
</clipPath>
</defs>
</svg>
