<svg width="294" height="92" viewBox="0 0 294 92" fill="none" xmlns="http://www.w3.org/2000/svg">
<g clip-path="url(#clip0_81_204)">
<path d="M79.1547 30.1551C77.7434 28.5163 58.8276 6.39245 58.6361 6.16748C58.2819 5.75412 57.9332 5.3499 57.5844 4.94752C54.9101 1.86195 50.8389 0.0164612 46.6954 0.0109742C41.3485 0.00365805 35.5751 0 28.5296 0C24.1096 0 19.7981 0.00182903 15.7197 0.00182903H14.2145C8.9507 0.00365805 5.64207 2.34847 3.7917 4.31467C1.27816 6.98688 0.00421635 10.3889 0.00421635 14.4255C0.00421635 15.0163 0.00240934 15.6071 0.00240934 16.2107C-0.00120467 18.0817 -0.00481869 20.0169 0.0240934 21.9776C0.0692685 25.1125 1.06493 28.2383 2.82675 30.7807C3.71942 32.0683 4.6428 33.3797 5.66918 34.8173C5.71435 34.8814 5.73965 34.9582 5.73965 35.035C5.73604 37.7858 5.73604 40.5367 5.73423 43.2876V43.4339C5.73242 46.6841 5.73242 49.9306 5.727 53.1789C5.71977 57.799 7.75266 62.0753 11.307 64.9121C11.8022 65.3072 12.3425 65.7663 12.9153 66.251L17.9207 70.4779L18.0128 70.5565C24.9842 76.4423 32.1924 82.5293 39.2957 88.5047C41.8906 90.6868 45.1829 91.9268 48.5693 91.9982C49.3354 92.0146 50.0817 92.0165 50.575 92.0165C50.8678 92.0165 51.1515 92.0165 51.4243 92.0146C51.6936 92.0146 51.9646 92.0128 52.2357 92.0128C52.9007 92.0128 53.3958 92.0183 53.8403 92.0293C53.9794 92.0329 54.1096 92.0348 54.2397 92.0348C58.0416 92.0348 61.5779 90.6026 64.1981 88.0054C66.9176 85.3076 68.403 81.6057 68.3831 77.5818C68.3777 76.3435 68.3723 75.0888 68.3705 73.8359H68.7391C72.8121 73.8341 76.2255 72.4806 78.8872 69.8176C81.5887 67.1124 82.9602 63.6227 82.962 59.4452V54.633C82.962 50.0074 82.962 45.2227 82.9747 40.5202C82.9855 36.6555 81.6646 33.0706 79.1547 30.1551Z" fill="white"/>
<path d="M56.2129 8.29102C55.866 7.8868 55.5209 7.48625 55.1757 7.08752C53.0995 4.69149 49.9282 3.25937 46.6918 3.25571C41.3485 3.24839 35.5787 3.24474 28.5368 3.24474C24.1151 3.24474 19.8036 3.24656 15.7234 3.24656H14.2181C10.9041 3.24839 8.17731 4.36044 6.11552 6.55344C3.21166 9.64267 3.20985 13.2458 3.20985 14.4292C3.20985 15.0218 3.20805 15.6126 3.20805 16.2198C3.20443 18.0781 3.20082 19.9986 3.22792 21.9337C3.26406 24.4248 4.05372 26.9068 5.45054 28.9224C6.49861 30.435 7.59184 31.9824 8.8441 33.7309C8.90915 33.8205 8.94529 33.9321 8.94529 34.0418C8.94168 37.1256 8.93987 40.2093 8.93806 43.293V43.4412C8.93626 46.6914 8.93626 49.9416 8.93084 53.1899C8.92542 56.8608 10.474 60.1219 13.2911 62.3698C13.8224 62.7941 14.3808 63.2678 14.9735 63.769L19.9752 67.9922L20.1089 68.1038C27.0659 73.9768 34.2596 80.051 41.3467 86.0136C43.3561 87.7036 46.0124 88.7041 48.6362 88.7571C49.3734 88.7718 50.0962 88.7736 50.5769 88.7736C50.8588 88.7736 51.1316 88.7736 51.3955 88.7718H51.419C51.6954 88.7718 51.9665 88.77 52.2375 88.77C52.9314 88.77 53.45 88.7754 53.9235 88.7882C54.0337 88.7901 54.1367 88.7919 54.2415 88.7919C57.2429 88.7919 59.9101 87.7183 61.9574 85.688C64.0825 83.5792 65.1974 80.7808 65.1811 77.5964C65.1703 75.2791 65.1667 72.9141 65.1649 70.5931H65.9726L68.7373 70.5894C69.9299 70.5894 73.5602 70.5858 76.6357 67.5075C79.7582 64.3817 79.7582 60.6615 79.7601 59.4397V54.6275C79.7601 50.0001 79.7601 45.2135 79.7727 40.5074C79.7817 37.4383 78.7319 34.5942 76.7405 32.2805C75.3239 30.6417 56.4045 8.51416 56.2129 8.29102ZM78.4229 54.633V59.4433C78.4229 60.5261 78.4211 63.822 75.6961 66.5509C73.0109 69.2378 69.7926 69.2414 68.7355 69.2414L65.9708 69.2451H63.8295C63.8313 71.9959 63.8313 74.8346 63.8457 77.6074C63.8602 80.4186 62.8844 82.8805 61.0232 84.7278C59.2306 86.5056 56.887 87.4439 54.2415 87.4439C54.1475 87.4439 54.0536 87.4421 53.9578 87.4402C53.4735 87.4274 52.9441 87.422 52.2375 87.422C51.9629 87.422 51.69 87.422 51.4153 87.4238C51.1461 87.4238 50.866 87.4256 50.5769 87.4256C50.1035 87.4256 49.3897 87.4238 48.6633 87.4091C46.3358 87.3616 43.9795 86.4745 42.1996 84.9765C35.1071 79.0084 27.9062 72.9288 20.942 67.0484L20.8317 66.9552L15.8336 62.7338C15.2337 62.2253 14.6663 61.7443 14.1206 61.309C11.6305 59.3226 10.2626 56.4401 10.268 53.1917C10.2734 49.9416 10.2752 46.6914 10.2752 43.4412V43.293C10.2771 40.0447 10.2771 36.7982 10.2825 33.5498C10.2825 33.473 10.2572 33.3962 10.2138 33.334C8.84229 31.4245 7.66955 29.7637 6.54559 28.1451C5.30056 26.349 4.59763 24.1358 4.56511 21.9136C4.538 19.9876 4.54162 18.0726 4.54523 16.2217C4.54704 15.6144 4.54704 15.0218 4.54704 14.4292C4.54704 13.3794 4.54884 10.1822 7.08408 7.48442C8.88385 5.56943 11.2854 4.59821 14.2199 4.59821H15.7252C19.8072 4.59639 24.1187 4.59639 28.5422 4.59639C35.5805 4.59639 41.3485 4.60004 46.6936 4.60736C49.5523 4.61102 52.3496 5.87122 54.1764 7.98008C54.5216 8.37698 54.8649 8.77571 55.2083 9.17627C55.3998 9.39941 74.3192 31.5288 75.7358 33.1749C77.5121 35.238 78.4464 37.7749 78.4391 40.5111C78.4229 45.219 78.4229 50.0056 78.4229 54.633Z" fill="#003870"/>
<path d="M53.2855 10.8553C52.9476 10.4602 52.6061 10.0652 52.2646 9.67193C50.9111 8.10994 48.8259 7.17714 46.6846 7.17348C41.3593 7.16616 35.6058 7.16251 28.5783 7.16251C24.3716 7.16251 20.2733 7.16434 16.3775 7.16434H14.2163C13.3905 7.16434 10.8806 7.16616 8.91818 9.25308C7.08046 11.2065 7.08046 13.5476 7.08046 14.4274C7.08046 15.0218 7.07865 15.6163 7.07865 16.2253C7.07504 18.0708 7.07142 19.9766 7.09853 21.8752C7.12383 23.5871 7.66231 25.2899 8.61822 26.669C9.70785 28.242 12.2268 31.7684 12.7292 32.4725C12.787 32.5548 12.8177 32.6499 12.8177 32.7505C12.8159 33.8132 12.8105 40.1288 12.8087 43.293V43.465C12.8069 46.7078 12.8069 49.9507 12.8014 53.1936C12.7978 55.6371 13.8224 57.8027 15.6872 59.2915C16.2637 59.7506 16.8401 60.2408 17.4527 60.7603L22.6098 65.1152C29.1927 70.6736 36.6539 76.9709 43.8204 83.0012C45.1667 84.1334 46.9502 84.8046 48.7156 84.8412C49.4149 84.8558 50.1106 84.8577 50.5714 84.8577C50.8551 84.8577 51.1298 84.8577 51.3954 84.8558C51.6755 84.8558 51.9574 84.854 52.2411 84.854C52.7308 84.854 53.3759 84.8558 54.021 84.8723C54.0951 84.8741 54.1692 84.8741 54.2415 84.8741C56.2075 84.8741 57.9386 84.1882 59.2469 82.8915C60.6075 81.5416 61.3195 79.7181 61.3087 77.6184C61.2942 74.7761 61.2942 71.9027 61.2924 69.1226V66.6845L62.2194 66.679C62.7145 66.6753 63.2078 66.6753 63.6993 66.6753H65.9671L68.73 66.6717C69.6155 66.6717 71.9664 66.6698 73.9089 64.7237C75.8822 62.7484 75.8822 60.431 75.884 59.4415V54.4977C75.884 49.9105 75.884 45.166 75.8966 40.4983C75.902 38.3931 75.1829 36.4433 73.8168 34.8558C72.3983 33.2096 53.4735 11.0748 53.2855 10.8553ZM73.7499 54.5013V59.4433C73.7499 60.2847 73.7499 61.8503 72.4091 63.191C71.0882 64.5134 69.4962 64.5134 68.73 64.5152L65.9653 64.5189H63.7029C63.206 64.5189 62.7091 64.5207 62.2104 64.5226L59.1565 64.5408V69.1043C59.1601 71.8935 59.1601 74.7797 59.1746 77.6348C59.1818 79.1584 58.7048 80.4095 57.7543 81.3532C56.8417 82.2586 55.66 82.7177 54.2433 82.7177C54.1872 82.7177 54.1312 82.7177 54.077 82.7159C53.4644 82.6994 52.8519 82.6958 52.2429 82.6958C51.9574 82.6958 51.6737 82.6958 51.3918 82.6976C51.1298 82.6976 50.8551 82.6994 50.5732 82.6994C49.9896 82.6994 49.3716 82.6958 48.7608 82.683C47.4905 82.6573 46.1551 82.1544 45.1884 81.3423C38.1139 75.3888 30.9293 69.3237 23.9813 63.4581L18.835 59.1123C18.2079 58.5819 17.6171 58.0789 17.0154 57.5979C15.6565 56.5132 14.9391 54.9933 14.9427 53.2027C14.9482 49.9507 14.95 46.6987 14.95 43.4485V43.2985C14.9518 39.838 14.9518 36.3757 14.959 32.9152V32.114C14.9608 31.975 14.9174 31.8397 14.8361 31.7281L14.3699 31.0806C12.8502 28.9718 11.5799 27.1775 10.3728 25.4344C9.66086 24.4065 9.2579 23.1354 9.23983 21.8514C9.21273 19.9693 9.21634 18.0726 9.21995 16.2363C9.22176 15.6272 9.22176 15.031 9.22176 14.4365C9.22176 13.672 9.22176 12.0789 10.4704 10.7511C11.8022 9.33356 13.4989 9.33356 14.2217 9.33356H15.727C19.8162 9.33173 24.1403 9.33173 28.5838 9.33173C34.4963 9.33173 40.6202 9.33356 46.6864 9.34271C48.1988 9.34453 49.7221 10.0194 50.6636 11.1041C51.0033 11.4955 51.3412 11.8869 51.6737 12.2765C51.8652 12.4996 70.79 34.6363 72.2121 36.2879C73.2331 37.4731 73.7698 38.9326 73.7662 40.5038C73.7499 45.1641 73.7499 49.9105 73.7499 54.5013Z" fill="#003870"/>
<path d="M63.179 32.0811C62.2159 30.9471 61.2527 29.8131 60.1649 28.5328C60.1414 28.9315 60.1197 29.1419 60.1197 29.354C60.1179 36.8658 60.1197 44.3758 60.1179 51.8876C60.1179 52.7893 60.0999 52.8003 59.2343 52.8003C53.1031 52.7985 46.972 52.8113 40.839 52.782C40.2716 52.7802 40.0692 52.943 40.0132 53.3435V71.5295C42.6171 73.7262 45.221 75.9229 47.8285 78.1159C48.0923 78.3372 48.4989 78.4835 48.8422 78.4908C50.6185 78.5274 52.3966 78.478 54.1729 78.5237C54.8487 78.5402 55.0348 78.3372 55.0312 77.6513C55.0041 72.1642 55.0258 66.6771 55.0023 61.1901C54.9987 60.517 55.1794 60.3048 55.8643 60.3103C60.1523 60.3414 64.4403 60.3268 68.7265 60.3231C69.6065 60.3231 69.6101 60.3158 69.6101 59.4415C69.612 53.1222 69.6065 46.8029 69.6228 40.4837C69.6246 39.9039 69.462 39.4649 69.0879 39.0296C67.1056 36.7268 65.1468 34.4003 63.179 32.0811Z" fill="#003870"/>
<path d="M79.1547 30.1551C77.7434 28.5163 58.8276 6.39245 58.6361 6.16748C58.2819 5.75412 57.9332 5.3499 57.5844 4.94752C54.9101 1.86195 50.8389 0.0164612 46.6954 0.0109742C41.3485 0.00365805 35.5751 0 28.5296 0C24.1096 0 19.7981 0.00182903 15.7197 0.00182903H14.2145C8.9507 0.00365805 5.64207 2.34847 3.7917 4.31467C1.27816 6.98688 0.00421635 10.3889 0.00421635 14.4255C0.00421635 15.0163 0.00240934 15.6071 0.00240934 16.2107C-0.00120467 18.0817 -0.00481869 20.0169 0.0240934 21.9776C0.0692685 25.1125 1.06493 28.2383 2.82675 30.7807C3.71942 32.0683 4.6428 33.3797 5.66918 34.8173C5.71435 34.8814 5.73965 34.9582 5.73965 35.035C5.73604 37.7858 5.73604 40.5367 5.73423 43.2876V43.4339C5.73242 46.6841 5.73242 49.9306 5.727 53.1789C5.71977 57.799 7.75266 62.0753 11.307 64.9121C11.8022 65.3072 12.3425 65.7663 12.9153 66.251L17.9207 70.4779L18.0128 70.5565C24.9842 76.4423 32.1924 82.5293 39.2957 88.5047C41.8906 90.6868 45.1829 91.9268 48.5693 91.9982C49.3354 92.0146 50.0817 92.0165 50.575 92.0165C50.8678 92.0165 51.1515 92.0165 51.4243 92.0146C51.6936 92.0146 51.9646 92.0128 52.2357 92.0128C52.9007 92.0128 53.3958 92.0183 53.8403 92.0293C53.9794 92.0329 54.1096 92.0348 54.2397 92.0348C58.0416 92.0348 61.5779 90.6026 64.1981 88.0054C66.9176 85.3076 68.403 81.6057 68.3831 77.5818C68.3777 76.3435 68.3723 75.0888 68.3705 73.8359H68.7391C72.8121 73.8341 76.2255 72.4806 78.8872 69.8176C81.5887 67.1124 82.9602 63.6227 82.962 59.4452V54.633C82.962 50.0074 82.962 45.2227 82.9747 40.5202C82.9855 36.6555 81.6646 33.0706 79.1547 30.1551ZM82.4272 54.6348V59.447C82.4254 63.4763 81.108 66.8363 78.5114 69.4353C75.9545 71.9959 72.6657 73.2946 68.7391 73.2982H67.8374C67.8392 74.734 67.8428 76.1698 67.85 77.5891C67.8699 81.4666 66.4406 85.0296 63.8258 87.625C61.3069 90.1234 57.9025 91.5007 54.2415 91.5007C54.1168 91.5007 53.9903 91.4988 53.8566 91.4952C53.4066 91.4842 52.9079 91.4787 52.2393 91.4787C51.9682 91.4787 51.6972 91.4787 51.428 91.4806C51.1551 91.4806 50.8714 91.4824 50.5805 91.4824C50.089 91.4824 49.3463 91.4806 48.5855 91.4641C45.3673 91.3983 42.1092 90.1692 39.6427 88.0969C32.5411 82.1214 25.3312 76.0344 18.3597 70.1486L18.2676 70.07L13.2622 65.8431C12.6858 65.3548 12.1419 64.8938 11.6413 64.4933C8.21706 61.7607 6.25645 57.6381 6.26368 53.1862C6.2691 49.9379 6.27091 46.6895 6.27091 43.4394V43.293C6.27091 40.4709 6.27272 37.6468 6.27633 34.8247C6.27633 34.7734 6.26007 34.7241 6.23116 34.682C5.15599 33.1785 4.19466 31.8141 3.26766 30.4752C1.56547 28.0207 0.604142 25.001 0.560774 21.9739C0.531862 20.0169 0.537283 18.0836 0.53909 16.2143C0.540897 15.6089 0.540897 15.02 0.540897 14.4292C0.542704 10.5352 1.76605 7.2594 4.18201 4.69145C6.76784 1.94243 10.1433 0.546879 14.2181 0.54505H15.7234C19.8017 0.543221 24.1132 0.543221 28.5332 0.543221C35.5787 0.543221 41.3503 0.546879 46.6972 0.554195C50.6889 0.559682 54.6101 2.33567 57.1851 5.306C57.5338 5.70839 57.8826 6.1126 58.235 6.52414C58.4265 6.74728 77.3422 28.8712 78.7535 30.5118C81.1767 33.3267 82.4525 36.789 82.4416 40.5221C82.4272 45.2245 82.4272 50.0074 82.4272 54.6348Z" fill="#003870"/>
<path d="M49.3536 30.6252C46.4697 30.6453 43.5857 30.6563 40.7017 30.6325C40.1216 30.627 39.9934 30.8429 40.0024 31.3751C40.0277 32.992 40.0114 34.6088 40.0132 36.2257C40.015 37.8645 40.0277 39.5051 40.006 41.1439C39.9988 41.6652 40.1813 41.8518 40.7035 41.8481C43.5875 41.8317 46.4715 41.8335 49.3555 41.8499C49.8452 41.8536 50.0222 41.6725 50.0204 41.1805C50.0078 37.8791 50.006 34.5777 50.0204 31.2763C50.0222 30.7734 49.8361 30.6216 49.3536 30.6252Z" fill="#003870"/>
<path d="M28.909 60.6542V58.1429C28.8982 49.2612 28.8982 40.3776 28.9181 31.4958C28.9199 30.8081 28.7301 30.5959 28.0579 30.6252C26.8382 30.6746 25.6149 30.6417 24.3933 30.6417C23.423 30.6417 23.4121 30.6398 23.4103 29.6284C23.4049 26.9964 23.4067 24.3663 23.4103 21.7343C23.4121 20.7375 23.4193 20.7375 24.424 20.7375C33.7554 20.7375 43.085 20.7357 52.4164 20.7357H53.2801C53.1338 20.4869 53.0922 20.3827 53.0217 20.3004C51.2039 18.1477 49.3933 15.9894 47.5483 13.8605C47.364 13.6483 46.9719 13.5257 46.6773 13.5257C35.8588 13.5111 25.0384 13.5148 14.2199 13.5184C13.3562 13.5184 13.3562 13.5239 13.3544 14.4329C13.3544 16.8838 13.3363 19.3346 13.3706 21.7855C13.376 22.2025 13.517 22.6836 13.7537 23.0238C15.3475 25.3229 16.9738 27.5982 18.6145 29.8643C18.947 30.3234 19.0952 30.777 19.0952 31.3495C19.0789 38.6363 19.0879 45.9214 19.0771 53.2082C19.0771 53.6783 19.2054 54.013 19.574 54.3074C20.3926 54.9604 21.1877 55.6463 21.99 56.323C24.2957 58.2709 26.6033 60.217 28.909 62.1649V61.7497C28.8657 61.5467 28.9018 61.2084 28.909 60.6542Z" fill="#003870"/>
<path d="M93.7981 26.7016H102.298C107.484 26.7162 110.076 29.5914 110.076 35.3254V46.8739C110.076 51.1063 108.213 53.8352 104.485 55.0606C103.59 55.3533 102.291 55.4996 100.585 55.4996H99.6365V67.6754H93.7981V26.7016ZM99.6365 32.5289V49.6522H100.977C101.789 49.6522 102.345 49.5973 102.649 49.4839C103.708 49.0523 104.237 48.1835 104.237 46.8739V35.3273C104.237 33.4617 103.391 32.5289 101.698 32.5289H99.6365Z" fill="#003870"/>
<path d="M132.775 59.7173C132.775 65.4532 129.976 68.3284 124.378 68.343C118.795 68.343 116.003 65.4678 116.003 59.7173V26.7016H121.841V59.7173C121.841 61.5683 122.687 62.4956 124.378 62.4956C126.07 62.4956 126.937 61.5701 126.937 59.7173V26.7016H132.775V59.7173Z" fill="#003870"/>
<path d="M138.44 67.6754V26.7016H144.279V61.8481H153.583V67.6736H138.44V67.6754Z" fill="#003870"/>
<path d="M161.165 55.604V59.7175C161.165 61.5685 162.018 62.4958 163.724 62.4958C165.43 62.4958 166.261 61.5703 166.261 59.7175V58.9658C166.261 56.9886 164.438 54.6785 160.793 52.0319C157.148 49.4 155.325 46.1992 155.325 42.4259V34.658C155.325 28.9222 158.117 26.0543 163.702 26.0543C169.288 26.0543 172.099 28.9222 172.099 34.658V40.1707H166.261V34.658C166.261 32.8199 165.415 31.8944 163.724 31.8797H163.682C162.004 31.8797 161.165 32.8052 161.165 34.658V42.3015C161.165 44.1251 162.987 46.3601 166.633 49.0049C170.278 51.6369 172.099 54.7901 172.099 58.4646V59.7175C172.099 65.468 169.308 68.3432 163.724 68.3432C158.126 68.3286 155.327 65.4533 155.327 59.7175V55.604H161.165Z" fill="#003870"/>
<path d="M176.875 26.7016H192.018V32.5289H182.714V49.7162H190.719V55.5636H182.714V61.85H192.018V67.6754H176.875V26.7016Z" fill="#003870"/>
<path d="M223.303 54.7698L230.09 26.7034H235.928V67.6754H230.337V44.6827L225.345 67.6754H221.384L216.246 44.6827V67.6754H210.594V26.7016H216.432L223.303 54.7698Z" fill="#003870"/>
<path d="M250.832 36.0991L246.705 67.6736H240.825L246.85 26.7016H254.855L260.859 67.6736H254.958L250.832 36.0991Z" fill="#003870"/>
<path d="M265.796 26.7016H271.635V67.6736H265.796V26.7016Z" fill="#003870"/>
<path d="M283.069 55.604V59.7175C283.069 61.5685 283.922 62.4958 285.628 62.4958C287.334 62.4958 288.165 61.5703 288.165 59.7175V58.9658C288.165 56.9886 286.342 54.6785 282.697 52.0319C279.052 49.4 277.231 46.1992 277.231 42.4259V34.658C277.231 28.9222 280.023 26.0543 285.606 26.0543C291.19 26.0543 294.004 28.9222 294.004 34.658V40.1707H288.165V34.658C288.165 32.8199 287.319 31.8944 285.628 31.8797H285.587C283.908 31.8797 283.069 32.8052 283.069 34.658V42.3015C283.069 44.1251 284.893 46.3601 288.537 49.0049C292.182 51.6369 294.005 54.7901 294.005 58.4646V59.7175C294.005 65.468 291.214 68.3432 285.628 68.3432C280.03 68.3286 277.231 65.4533 277.231 59.7175V55.604H283.069Z" fill="#003870"/>
</g>
<defs>
<clipPath id="clip0_81_204">
<rect width="294" height="92" fill="white"/>
</clipPath>
</defs>
</svg>
