<svg width="400" height="400" viewBox="0 0 400 400" fill="none" xmlns="http://www.w3.org/2000/svg">
<rect width="400" height="400" fill="white"/>
<g clip-path="url(#clip0_394_345)">
<path d="M63.3507 186.674L61.6053 195.993C63.1967 195.941 64.3773 195.583 65.25 194.815C66.1227 194.098 66.6873 192.921 66.9953 191.333C67.3033 189.797 67.1493 188.62 66.636 187.852C66.1227 187.084 65.1473 186.674 63.8127 186.674H63.3507ZM46 217.651L53.2893 178.533H66.5847C71.102 178.533 74.4387 179.608 76.5947 181.759C78.802 183.909 79.5207 186.879 78.8533 190.565C78.4427 192.869 77.4673 194.815 76.03 196.402C74.5413 198.041 72.5907 199.321 70.0753 200.294L75.0547 217.6H62.786L60.3733 202.444L57.55 217.651H46ZM88.504 200.498H94.7153C95.0233 198.962 94.972 197.785 94.6127 197.017C94.2533 196.249 93.5347 195.839 92.508 195.839C91.6867 195.839 90.968 196.197 90.3007 196.966C89.6333 197.734 89.0687 198.911 88.504 200.498ZM102.107 208.076C101.081 211.302 99.284 213.811 96.7173 215.654C94.1507 217.497 91.122 218.419 87.6313 218.419C83.576 218.419 80.65 217.19 78.9047 214.681C77.1593 212.172 76.6973 208.64 77.57 204.031C78.4427 199.423 80.2393 195.839 82.9087 193.279C85.6293 190.719 88.966 189.439 92.97 189.439C97.3333 189.439 100.362 190.565 102.107 192.818C103.853 195.071 104.263 198.502 103.442 203.059C103.339 203.571 103.237 203.98 103.185 204.287C103.134 204.543 103.031 204.799 102.98 205.055H87.6313L87.58 205.414C87.2207 207.411 87.1693 208.896 87.4773 209.766C87.7853 210.636 88.504 211.097 89.582 211.097C90.4033 211.097 91.122 210.841 91.6867 210.329C92.3027 209.817 92.7647 209.049 93.2267 208.025H102.107M120.228 217.241C119.407 217.651 118.534 217.958 117.61 218.163C116.686 218.368 115.659 218.47 114.581 218.47C110.834 218.47 108.113 217.19 106.471 214.579C104.777 212.019 104.366 208.486 105.239 203.98C106.06 199.577 107.805 196.044 110.526 193.433C113.247 190.821 116.429 189.49 120.125 189.49C121.152 189.49 122.076 189.592 122.949 189.746C123.77 189.951 124.591 190.207 125.259 190.565L123.667 198.962C123.359 198.758 123 198.604 122.641 198.502C122.281 198.399 121.871 198.348 121.46 198.348C120.382 198.348 119.407 198.86 118.534 199.833C117.713 200.857 117.097 202.188 116.789 203.929C116.481 205.67 116.532 207.001 116.943 207.871C117.405 208.742 118.175 209.203 119.407 209.203C119.766 209.203 120.125 209.152 120.536 209.049C120.947 208.947 121.357 208.793 121.871 208.639L120.228 217.241ZM123.462 217.651L131.419 175H141.942L133.985 217.651H123.462ZM151.028 203.929C150.669 205.875 150.617 207.359 150.823 208.332C151.079 209.305 151.593 209.817 152.465 209.817C153.338 209.817 154.057 209.305 154.673 208.281C155.289 207.257 155.802 205.823 156.161 203.929C156.521 201.983 156.572 200.55 156.315 199.526C156.059 198.502 155.494 197.99 154.673 197.99C153.851 197.99 153.133 198.502 152.517 199.474C151.901 200.55 151.387 201.983 151.028 203.929ZM153.851 217.651L154.416 214.63C153.133 215.961 151.901 216.934 150.669 217.549C149.437 218.163 148.205 218.47 146.87 218.47C143.995 218.47 141.942 217.19 140.813 214.63C139.632 212.07 139.478 208.537 140.351 203.98C141.223 199.372 142.661 195.788 144.765 193.279C146.87 190.77 149.385 189.49 152.311 189.49C153.646 189.49 154.775 189.797 155.751 190.412C156.726 191.026 157.65 191.948 158.42 193.279L158.985 190.309H169.508L164.375 217.651H153.851ZM168.225 217.651L173.358 190.207H183.471L182.701 194.303C183.984 192.716 185.37 191.589 186.807 190.821C188.296 190.053 189.887 189.695 191.684 189.695C193.327 189.695 194.661 190.053 195.585 190.821C196.509 191.589 197.125 192.716 197.331 194.303C198.46 192.716 199.692 191.589 201.078 190.821C202.464 190.053 204.107 189.695 205.903 189.695C208.111 189.695 209.702 190.309 210.626 191.589C211.55 192.818 211.807 194.661 211.345 197.068L207.495 217.702H196.971L199.949 201.727C200.103 200.857 200.051 200.242 199.846 199.833C199.589 199.423 199.127 199.218 198.511 199.218C197.895 199.218 197.382 199.474 196.971 199.935C196.561 200.396 196.253 201.062 196.099 201.881L193.173 217.702H182.701L185.678 201.727C185.832 200.857 185.781 200.242 185.575 199.833C185.319 199.423 184.857 199.218 184.241 199.218C183.625 199.218 183.06 199.474 182.649 199.935C182.187 200.396 181.931 201.062 181.777 201.881L178.851 217.702H168.225M223.613 200.498H229.825C230.133 198.962 230.081 197.785 229.722 197.017C229.363 196.249 228.644 195.839 227.617 195.839C226.796 195.839 226.077 196.197 225.41 196.966C224.743 197.734 224.127 198.911 223.613 200.498ZM237.165 208.076C236.139 211.302 234.342 213.811 231.775 215.654C229.209 217.497 226.18 218.419 222.689 218.419C218.634 218.419 215.708 217.19 213.963 214.681C212.217 212.172 211.755 208.64 212.628 204.031C213.501 199.423 215.297 195.839 217.967 193.279C220.687 190.719 224.024 189.439 228.028 189.439C232.391 189.439 235.42 190.565 237.165 192.818C238.911 195.071 239.321 198.502 238.5 203.059C238.397 203.571 238.295 203.98 238.243 204.287C238.192 204.543 238.089 204.799 238.038 205.055H222.689L222.638 205.414C222.279 207.411 222.227 208.896 222.535 209.766C222.843 210.636 223.562 211.097 224.64 211.097C225.461 211.097 226.18 210.841 226.745 210.329C227.361 209.817 227.823 209.049 228.285 208.025H237.165" fill="#90B823"/>
<path d="M252.103 203.98H256.672L257.031 189.49L252.103 203.98ZM236.241 217.651L252.617 178.533H265.604L267.349 217.651H256.107L256.313 211.916H249.485L247.535 217.651H236.241ZM283.211 197.887C282.441 201.932 282.236 204.697 282.493 206.233C282.801 207.718 283.622 208.486 285.059 208.486C286.497 208.486 287.575 207.769 288.396 206.284C289.217 204.799 290.039 202.034 290.809 197.938C291.579 193.842 291.835 191.026 291.527 189.541C291.219 188.056 290.398 187.339 289.012 187.339C287.626 187.339 286.445 188.107 285.624 189.592C284.803 191.026 283.981 193.791 283.211 197.887ZM287.934 224L284.546 218.419H283.93C283.673 218.419 283.468 218.47 283.314 218.47C278.335 218.47 274.844 216.729 272.791 213.145C270.737 209.612 270.327 204.594 271.507 198.143C272.739 191.692 274.998 186.674 278.386 183.141C281.774 179.608 285.881 177.816 290.809 177.816C295.737 177.816 299.176 179.608 301.178 183.141C303.231 186.674 303.642 191.692 302.41 198.194C301.691 201.932 300.665 205.158 299.227 207.923C297.79 210.687 295.993 212.991 293.786 214.886L297.944 219.852L287.934 224ZM304.515 203.673L309.186 178.533H320.736L315.859 204.697C315.654 205.823 315.705 206.694 316.013 207.206C316.321 207.769 316.989 208.025 317.861 208.025C318.785 208.025 319.504 207.769 320.069 207.206C320.582 206.642 320.993 205.823 321.198 204.697L326.075 178.533H337.676L333.005 203.673C332.029 208.793 330.181 212.531 327.461 214.886C324.74 217.241 320.89 218.419 315.962 218.419C311.034 218.419 307.697 217.241 305.849 214.886C304.001 212.531 303.591 208.793 304.515 203.673ZM335.161 217.651L342.45 178.533H354L346.711 217.651H335.161Z" fill="#007535"/>
</g>
<defs>
<clipPath id="clip0_394_345">
<rect width="308" height="49" fill="white" transform="translate(46 175)"/>
</clipPath>
</defs>
</svg>
