<svg width="485" height="63" viewBox="0 0 485 63" fill="none" xmlns="http://www.w3.org/2000/svg">
<g clip-path="url(#clip0_131_532)">
<path d="M44.7806 16.6764L42.2514 30.1658C44.5574 30.0917 46.2683 29.5729 47.5329 28.4611C48.7974 27.4235 49.6157 25.7188 50.062 23.4211C50.5083 21.1976 50.2852 19.4929 49.5413 18.3811C48.7974 17.2693 47.3841 16.6764 45.4501 16.6764H44.7806ZM19.6379 61.5176L30.2008 4.8917H49.4669C56.0129 4.8917 60.8481 6.44816 63.9723 9.5611C67.1709 12.674 68.2123 16.9729 67.2453 22.3093C66.6502 25.6446 65.2369 28.4611 63.154 30.7588C60.9968 33.1305 58.1701 34.9835 54.5252 36.3917L61.7407 61.4435H43.9623L40.4662 39.5046L36.3749 61.5176H19.6379ZM81.23 36.6882H90.2307C90.677 34.4646 90.6027 32.7599 90.082 31.6482C89.5612 30.5364 88.5198 29.9435 87.0321 29.9435C85.8419 29.9435 84.8005 30.4623 83.8335 31.5741C82.8665 32.6858 82.0482 34.3905 81.23 36.6882ZM100.942 47.6576C99.4547 52.327 96.8511 55.9588 93.1318 58.627C89.4125 61.2952 85.0237 62.6293 79.9654 62.6293C74.0889 62.6293 69.8488 60.8505 67.3197 57.2188C64.7905 53.587 64.1211 48.4729 65.3856 41.8023C66.6502 35.1317 69.2537 29.9435 73.1218 26.2376C77.0643 22.5317 81.8994 20.6788 87.7016 20.6788C94.0244 20.6788 98.4132 22.3093 100.942 25.5705C103.472 28.8317 104.067 33.7976 102.876 40.3941C102.728 41.1352 102.579 41.7282 102.505 42.1729C102.43 42.5435 102.281 42.914 102.207 43.2846H79.9654L79.891 43.8035C79.3703 46.6941 79.2959 48.8435 79.7422 50.1035C80.1885 51.3635 81.23 52.0305 82.7921 52.0305C83.9823 52.0305 85.0237 51.6599 85.8419 50.9188C86.7346 50.1776 87.404 49.0658 88.0735 47.5835H100.942M127.201 60.9246C126.011 61.5176 124.746 61.9623 123.407 62.2588C122.068 62.5552 120.58 62.7035 119.018 62.7035C113.588 62.7035 109.646 60.8505 107.265 57.0705C104.81 53.3646 104.215 48.2505 105.48 41.7282C106.67 35.354 109.199 30.2399 113.142 26.4599C117.084 22.6799 121.696 20.7529 127.052 20.7529C128.54 20.7529 129.879 20.9011 131.143 21.1235C132.333 21.4199 133.524 21.7905 134.491 22.3093L132.185 34.4646C131.738 34.1682 131.218 33.9458 130.697 33.7976C130.176 33.6493 129.581 33.5752 128.986 33.5752C127.424 33.5752 126.011 34.3164 124.746 35.7246C123.556 37.207 122.663 39.1341 122.217 41.6541C121.771 44.1741 121.845 46.1011 122.44 47.3611C123.11 48.6211 124.225 49.2882 126.011 49.2882C126.531 49.2882 127.052 49.2141 127.647 49.0658C128.242 48.9176 128.837 48.6952 129.581 48.4729L127.201 60.9246ZM131.887 61.5176L143.417 -0.222412H158.666L147.136 61.5176H131.887ZM171.833 41.6541C171.312 44.4705 171.238 46.6199 171.535 48.0282C171.907 49.4364 172.651 50.1776 173.916 50.1776C175.18 50.1776 176.222 49.4364 177.114 47.9541C178.007 46.4717 178.751 44.3964 179.271 41.6541C179.792 38.8376 179.866 36.7623 179.495 35.2799C179.123 33.7976 178.304 33.0564 177.114 33.0564C175.924 33.0564 174.883 33.7976 173.99 35.2058C173.097 36.7623 172.353 38.8376 171.833 41.6541ZM175.924 61.5176L176.742 57.1446C174.883 59.0717 173.097 60.4799 171.312 61.3693C169.527 62.2587 167.741 62.7035 165.807 62.7035C161.642 62.7035 158.666 60.8505 157.03 57.1446C155.319 53.4388 155.096 48.3246 156.36 41.7282C157.625 35.0576 159.708 29.8693 162.758 26.2376C165.807 22.6058 169.452 20.7529 173.692 20.7529C175.626 20.7529 177.263 21.1976 178.676 22.087C180.09 22.9764 181.429 24.3105 182.544 26.2376L183.363 21.9388H198.612L191.173 61.5176H175.924ZM196.752 61.5176L204.191 21.7905H218.845L217.729 27.7199C219.589 25.4223 221.597 23.7917 223.68 22.6799C225.837 21.5682 228.143 21.0493 230.747 21.0493C233.127 21.0493 235.061 21.5682 236.4 22.6799C237.739 23.7917 238.632 25.4223 238.929 27.7199C240.566 25.4223 242.351 23.7917 244.36 22.6799C246.368 21.5682 248.748 21.0493 251.352 21.0493C254.551 21.0493 256.857 21.9388 258.195 23.7917C259.534 25.5705 259.906 28.2387 259.237 31.7223L253.658 61.5917H238.409L242.723 38.467C242.946 37.207 242.872 36.3176 242.574 35.7246C242.202 35.1317 241.533 34.8352 240.64 34.8352C239.748 34.8352 239.004 35.2058 238.409 35.8729C237.814 36.5399 237.367 37.5035 237.144 38.6894L232.904 61.5917H217.729L222.044 38.467C222.267 37.207 222.192 36.3176 221.895 35.7246C221.523 35.1317 220.853 34.8352 219.961 34.8352C219.068 34.8352 218.25 35.2058 217.655 35.8729C216.985 36.5399 216.613 37.5035 216.39 38.6894L212.15 61.5917H196.752M277.015 36.6882H286.016C286.462 34.4646 286.388 32.7599 285.867 31.6482C285.347 30.5364 284.305 29.9435 282.817 29.9435C281.627 29.9435 280.586 30.4623 279.619 31.5741C278.652 32.6858 277.759 34.3905 277.015 36.6882ZM296.653 47.6576C295.166 52.327 292.562 55.9588 288.843 58.627C285.123 61.2952 280.735 62.6293 275.676 62.6293C269.8 62.6293 265.56 60.8505 263.031 57.2188C260.501 53.587 259.832 48.4729 261.097 41.8023C262.361 35.1317 264.965 29.9435 268.833 26.2376C272.775 22.5317 277.61 20.6788 283.412 20.6788C289.735 20.6788 294.124 22.3093 296.653 25.5705C299.182 28.8317 299.777 33.7976 298.587 40.3941C298.439 41.1352 298.29 41.7282 298.215 42.1729C298.141 42.5435 297.992 42.914 297.918 43.2846H275.676L275.602 43.8035C275.081 46.6941 275.007 48.8435 275.453 50.1035C275.899 51.3635 276.941 52.0305 278.503 52.0305C279.693 52.0305 280.735 51.6599 281.553 50.9188C282.445 50.1776 283.115 49.0658 283.784 47.5835H296.653" fill="#90B823"/>
<path d="M318.3 41.7281H324.92L325.441 20.7528L318.3 41.7281ZM295.314 61.5175L319.044 4.89165H337.864L340.393 61.5175H324.102L324.4 53.2163H314.506L311.679 61.5175H295.314ZM363.378 32.9081C362.262 38.7634 361.965 42.7658 362.337 44.9893C362.783 47.1387 363.973 48.2505 366.056 48.2505C368.064 48.2505 369.701 47.2128 370.891 45.0634C372.081 42.914 373.271 38.9116 374.387 32.9822C375.503 27.0528 375.875 22.9764 375.429 20.8269C374.982 18.6775 373.792 17.6399 371.784 17.6399C369.701 17.6399 368.064 18.7517 366.874 20.9011C365.684 22.9764 364.494 26.9787 363.378 32.9081ZM370.222 70.7081L365.312 62.6293C365.089 62.6293 364.791 62.6293 364.42 62.6293C364.048 62.6293 363.75 62.7034 363.527 62.7034C356.311 62.7034 351.253 60.1834 348.278 54.9952C345.302 49.8811 344.707 42.6175 346.418 33.2787C348.203 23.9399 351.476 16.6764 356.386 11.5622C361.295 6.44812 367.246 3.854 374.387 3.854C381.454 3.854 386.512 6.44812 389.413 11.5622C392.389 16.6764 392.984 23.9399 391.199 33.3528C390.157 38.7634 388.67 43.4328 386.587 47.4352C384.504 51.4375 381.9 54.7728 378.702 57.5152L384.727 64.7046L370.222 70.7081ZM394.248 41.2834L401.018 4.89165H417.755L410.688 42.7658C410.39 44.3964 410.465 45.6564 410.911 46.3975C411.357 47.2128 412.324 47.5834 413.589 47.5834C414.928 47.5834 415.969 47.2128 416.788 46.3975C417.531 45.5822 418.127 44.3964 418.424 42.7658L425.491 4.89165H442.302L435.533 41.2834C434.12 48.6952 431.442 54.1058 427.499 57.5152C423.557 60.9246 417.978 62.6293 410.837 62.6293C403.696 62.6293 398.86 60.9246 396.183 57.5152C393.505 54.1058 392.91 48.6952 394.248 41.2834ZM438.657 61.5175L449.22 4.89165H465.957L455.394 61.5175H438.657Z" fill="#007535"/>
</g>
<defs>
<clipPath id="clip0_131_532">
<rect width="485" height="63" fill="white"/>
</clipPath>
</defs>
</svg>