<?xml version="1.0" standalone="no"?>
<!DOCTYPE svg PUBLIC "-//W3C//DTD SVG 20010904//EN"
 "http://www.w3.org/TR/2001/REC-SVG-20010904/DTD/svg10.dtd">
<svg version="1.0" xmlns="http://www.w3.org/2000/svg"
 width="1455.000000pt" height="408.000000pt" viewBox="0 0 1455.000000 408.000000"
 preserveAspectRatio="xMidYMid meet">

<g transform="translate(0.000000,408.000000) scale(0.100000,-0.100000)"
fill="#000000" stroke="none">
<path d="M8 3060 c-2 -555 -3 -1124 -3 -1262 l0 -253 73 -3 72 -3 0 514 c0
282 3 852 7 1265 l6 752 -76 0 -77 0 -2 -1010z"/>
<path d="M3460 3420 l0 -330 -155 0 -155 0 0 -75 0 -75 155 0 155 0 0 -700 0
-701 73 3 72 3 3 698 2 697 155 0 155 0 0 75 0 75 -155 0 -155 0 0 330 0 330
-75 0 -75 0 0 -330z"/>
<path d="M4920 3420 l0 -330 -160 0 -160 0 0 -75 0 -75 160 0 159 0 -2 -702
-2 -703 73 -3 72 -3 0 706 0 705 160 0 161 0 -3 73 -3 72 -157 3 -158 3 0 329
0 330 -70 0 -70 0 0 -330z"/>
<path d="M7380 3410 l0 -330 -160 0 -160 0 0 -70 0 -70 159 0 159 0 -5 -705
-6 -705 76 0 77 0 0 700 0 699 158 3 157 3 3 73 3 72 -161 0 -160 0 0 330 0
330 -70 0 -70 0 0 -330z"/>
<path d="M4225 3633 c-90 -23 -134 -137 -82 -214 65 -98 208 -85 252 23 21 52
14 96 -22 139 -41 48 -92 66 -148 52z"/>
<path d="M8753 3211 c-332 -53 -611 -301 -705 -628 -19 -66 -23 -102 -23 -233
0 -132 3 -167 23 -234 73 -252 273 -476 510 -572 205 -83 444 -84 652 -3 191
74 371 243 461 435 128 271 103 620 -61 859 -85 124 -245 258 -375 314 -128
56 -344 83 -482 62z m365 -183 c110 -39 177 -84 272 -178 64 -64 96 -105 127
-165 66 -128 78 -179 78 -340 0 -131 -2 -146 -31 -226 -73 -205 -243 -375
-446 -446 -99 -35 -280 -44 -392 -18 -169 37 -336 152 -435 300 -141 211 -158
482 -45 711 88 178 261 321 454 376 102 28 319 21 418 -14z"/>
<path d="M1015 3175 c-110 -24 -205 -72 -288 -145 l-37 -32 0 51 0 52 -72 -3
-73 -3 -3 -777 -2 -778 75 0 75 0 0 603 0 602 30 52 c38 67 123 151 187 185
144 79 336 76 471 -5 69 -41 152 -124 185 -186 56 -101 57 -118 57 -708 l0
-543 70 0 70 0 3 438 c4 740 4 743 -68 887 -43 87 -98 152 -179 209 -137 99
-333 138 -501 101z"/>
<path d="M2447 3170 c-103 -26 -207 -111 -255 -210 -24 -49 -27 -66 -27 -155
0 -88 3 -107 27 -158 35 -75 110 -147 224 -216 251 -152 321 -208 363 -293 27
-52 31 -72 31 -138 0 -66 -4 -86 -30 -138 -35 -69 -92 -125 -159 -155 -69 -31
-189 -30 -256 3 -97 47 -170 146 -182 248 l-5 49 -70 -18 c-38 -9 -71 -19 -73
-21 -10 -10 19 -121 44 -173 41 -82 139 -176 228 -217 59 -28 81 -33 168 -36
145 -6 244 30 338 123 99 96 141 198 141 335 0 205 -90 327 -365 490 -177 105
-260 181 -278 254 -45 181 137 341 307 271 67 -29 101 -72 131 -172 l16 -51
63 25 c69 28 70 29 46 113 -28 101 -125 201 -222 230 -52 16 -160 21 -205 10z"/>
<path d="M12923 3165 c-99 -30 -186 -105 -226 -194 -17 -36 -21 -66 -21 -133
0 -79 3 -93 34 -155 63 -123 170 -179 324 -171 188 10 308 137 308 328 0 86
-17 140 -64 206 -77 107 -229 159 -355 119z"/>
<path d="M4190 2310 l0 -780 70 0 70 0 2 725 c1 399 2 749 3 778 l0 52 -72 3
-73 3 0 -781z"/>
<path d="M5586 2621 c-4 -258 -5 -500 -1 -538 27 -270 172 -461 409 -540 73
-24 96 -27 226 -27 131 0 152 2 225 27 148 49 267 153 336 292 67 135 69 155
69 738 l0 518 -72 -3 -73 -3 -5 -535 c-5 -531 -5 -535 -28 -593 -62 -153 -215
-274 -376 -296 -260 -37 -510 133 -556 378 -6 31 -10 261 -10 552 l0 499 -69
0 -68 0 -7 -469z"/>
<path d="M10344 2790 c-75 -30 -136 -87 -168 -161 -26 -57 -28 -69 -24 -158 3
-79 9 -105 30 -147 53 -102 152 -164 274 -172 128 -8 235 41 295 136 39 62 52
112 51 202 -1 134 -59 237 -164 292 -63 32 -221 37 -294 8z"/>
<path d="M11683 2602 c-90 -32 -151 -91 -195 -188 -34 -76 -32 -200 5 -275 36
-75 107 -140 183 -169 123 -46 274 -11 362 84 64 69 85 119 90 211 3 66 0 91
-19 140 -28 76 -101 155 -172 186 -72 31 -184 36 -254 11z"/>
<path d="M12875 2257 c-136 -45 -217 -127 -267 -267 l-23 -65 -5 -780 c-5
-737 -6 -782 -24 -818 -28 -56 -69 -81 -143 -85 -87 -6 -128 4 -168 39 -64 56
-66 77 -74 609 -7 462 -8 477 -30 532 -63 162 -227 249 -439 235 -186 -12
-302 -90 -364 -246 -21 -53 -22 -74 -28 -396 -5 -339 -5 -341 -30 -389 -32
-62 -82 -91 -160 -91 -79 0 -129 28 -160 91 l-25 49 -5 480 c-5 468 -6 481
-28 535 -49 121 -138 205 -255 241 -56 17 -87 21 -175 17 -95 -3 -115 -7 -174
-35 -79 -37 -136 -91 -171 -164 -36 -73 -46 -134 -56 -351 -10 -206 -23 -257
-78 -296 -62 -44 -80 -45 -926 -51 l-809 -6 -25 -29 c-22 -26 -25 -37 -21 -83
3 -38 11 -61 27 -76 l22 -22 726 -3 c836 -3 972 2 1057 41 77 36 127 77 166
137 57 89 70 152 76 364 6 215 16 258 69 305 74 65 222 63 288 -3 59 -59 60
-67 66 -581 6 -447 8 -473 28 -527 55 -147 161 -234 315 -259 215 -35 422 106
467 319 7 32 11 162 11 327 0 158 5 295 11 324 23 108 83 156 194 156 79 0
136 -22 168 -66 41 -57 47 -122 47 -544 0 -226 5 -428 11 -465 27 -171 127
-290 283 -335 91 -26 252 -18 328 17 109 50 162 108 210 227 l23 56 5 780 c5
769 5 781 26 825 48 102 144 142 257 108 22 -7 55 -27 73 -45 61 -61 66 -92
73 -543 6 -346 10 -412 25 -450 42 -110 107 -183 205 -229 l56 -26 474 -3
c526 -3 508 -5 537 63 17 41 10 82 -21 121 l-23 29 -439 5 c-398 5 -442 7
-481 24 -23 10 -51 30 -61 45 -39 54 -44 104 -51 516 -6 375 -7 404 -27 458
-41 111 -127 201 -230 241 -62 24 -269 32 -328 13z"/>
<path d="M6825 1241 c-40 -12 -54 -30 -231 -291 l-179 -265 -3 -145 c-4 -161
5 -208 45 -239 48 -39 137 -20 161 34 7 16 12 75 12 151 l0 124 160 240 c88
133 163 254 167 270 14 73 -62 143 -132 121z"/>
<path d="M7063 1234 c-42 -21 -67 -74 -58 -122 5 -32 58 -89 373 -406 202
-202 385 -381 406 -397 53 -40 104 -39 148 0 l33 29 3 409 c2 394 2 409 -18
441 -36 59 -119 67 -169 17 l-26 -25 -5 -258 -5 -257 -285 282 c-157 155 -298
286 -313 292 -37 14 -46 14 -84 -5z"/>
<path d="M5367 1224 c-71 -22 -150 -102 -171 -173 -40 -136 -1 -266 101 -341
65 -48 128 -60 310 -60 149 0 165 -2 183 -20 31 -31 36 -68 13 -98 l-20 -27
-211 -5 c-194 -5 -213 -7 -239 -26 -44 -32 -58 -69 -44 -115 6 -21 23 -47 38
-58 24 -20 39 -21 275 -21 274 0 289 3 347 61 77 77 110 219 77 333 -13 44
-29 70 -69 111 -73 75 -113 85 -333 85 l-172 0 -26 31 c-31 37 -33 58 -5 93
l20 26 182 0 c100 0 198 5 218 10 54 15 84 53 84 107 0 38 -5 49 -33 74 l-32
29 -223 -1 c-166 0 -234 -4 -270 -15z"/>
<path d="M6069 1211 c-23 -24 -29 -38 -29 -74 0 -42 7 -54 110 -186 61 -77
121 -147 133 -156 29 -20 97 -19 123 3 42 34 56 91 33 134 -21 40 -229 296
-245 302 -8 3 -34 6 -56 6 -30 0 -46 -7 -69 -29z"/>
<path d="M7064 820 c-12 -4 -31 -21 -43 -36 -20 -25 -21 -38 -21 -226 0 -217
6 -244 55 -266 63 -29 126 -6 151 54 22 51 20 374 -2 420 -26 54 -85 77 -140
54z"/>
</g>
</svg>
