<svg width="405" height="169" viewBox="0 0 405 169" fill="none" xmlns="http://www.w3.org/2000/svg">
<g clip-path="url(#clip0_931_7976)">
<path d="M405 84.4939L391.5 84.4939C378 84.4939 351 84.4939 324 70.3919C297 56.5012 270 27.9804 243 36.5895C216 44.8817 189 90.3037 162 112.645C135 135.198 108 135.198 81 126.747C54 118.296 27 101.395 13.5 92.9445L-2.18638e-05 84.4939L-7.08829e-06 169L13.5 169C27 169 54 169 81 169C108 169 135 169 162 169C189 169 216 169 243 169C270 169 297 169 324 169C351 169 378 169 391.5 169L405 169L405 84.4939Z" fill="url(#paint0_linear_931_7976)" fill-opacity="0.5"/>
<path d="M405 19.5377L386.033 19.5377C367.067 19.5377 329.133 19.5377 291.2 -5.40384C253.267 -29.9717 215.333 -80.4152 177.4 -65.1887C139.467 -50.5227 101.533 29.8132 63.6 69.3273C25.6667 109.215 -12.2667 109.215 -50.2 94.2689C-88.1333 79.3226 -126.067 49.4302 -145.033 34.484L-164 19.5378L-164 169L-145.033 169C-126.067 169 -88.1333 169 -50.2 169C-12.2667 169 25.6667 169 63.6 169C101.533 169 139.467 169 177.4 169C215.333 169 253.267 169 291.2 169C329.133 169 367.067 169 386.033 169L405 169L405 19.5377Z" fill="url(#paint1_linear_931_7976)" fill-opacity="0.5"/>
</g>
<defs>
<linearGradient id="paint0_linear_931_7976" x1="202.38" y1="102" x2="202.38" y2="169" gradientUnits="userSpaceOnUse">
<stop stop-color="#0071BD"/>
<stop offset="1" stop-color="#009EE6"/>
</linearGradient>
<linearGradient id="paint1_linear_931_7976" x1="120.331" y1="50.5" x2="120.331" y2="169" gradientUnits="userSpaceOnUse">
<stop stop-color="#0071BD"/>
<stop offset="1" stop-color="#009EE6"/>
</linearGradient>
<clipPath id="clip0_931_7976">
<rect width="405" height="169" fill="white"/>
</clipPath>
</defs>
</svg>
