<svg width="330" height="152" viewBox="0 0 330 152" fill="none" xmlns="http://www.w3.org/2000/svg">
<g clip-path="url(#clip0_143_179)">
<path d="M353.179 -75.178C342.898 -75.178 347.398 -68.2405 347.398 -68.2405C347.398 -68.2405 330.302 82.6904 262.408 87.6222C188.077 93.0144 106.126 96.6475 106.126 96.6475C64.5593 98.949 22.2698 127.044 1.42893 163.162L353.179 163.162L353.179 -75.178Z" stroke="#25B957" stroke-miterlimit="10"/>
<path d="M339.301 45.6192C307.9 82.1971 268.731 87.0139 268.731 87.0139L129.792 100.215C87.6829 104.226 51.7491 128.573 31.7294 163.26L339.301 163.26L339.301 45.6028L339.301 45.6192Z" fill="#FCC41F"/>
<path d="M339.301 50.1238C311.513 85.3043 276.877 89.9402 276.877 89.9402L153.967 102.648C116.719 106.495 84.9238 129.921 67.2197 163.293L339.301 163.293L339.301 50.1402L339.301 50.1238Z" fill="#003870"/>
</g>
<defs>
<clipPath id="clip0_143_179">
<rect width="164" height="354" fill="white" transform="translate(354 1.54738e-05) rotate(90)"/>
</clipPath>
</defs>
</svg>
