<svg width="392" height="163" viewBox="0 0 392 163" fill="none" xmlns="http://www.w3.org/2000/svg">
<g clip-path="url(#clip0_137_438)">
<path d="M-37.9585 260.959C-24.9186 260.959 -30.6262 252.171 -30.6262 252.171C-30.6262 252.171 -8.9417 60.9923 77.1713 54.7453C171.45 47.9152 275.394 43.3132 275.394 43.3132C328.116 40.398 381.754 4.81088 408.188 -40.938L-37.9585 -40.938L-37.9585 260.959Z" stroke="#25B957" stroke-miterlimit="10"/>
<path d="M-20.3569 107.949C19.4709 61.617 69.1514 55.5157 69.1514 55.5157L245.377 38.7946C298.786 33.7137 344.363 2.87434 369.755 -41.0629L-20.3569 -41.0629L-20.3569 107.97L-20.3569 107.949Z" fill="#FCC41F"/>
<path d="M-20.3569 102.243C14.8882 57.6814 58.8195 51.8092 58.8195 51.8092L214.715 35.7128C261.958 30.8401 302.286 1.16682 324.741 -41.1046L-20.3569 -41.1046L-20.3569 102.223L-20.3569 102.243Z" fill="#003870"/>
</g>
<defs>
<clipPath id="clip0_137_438">
<rect width="163" height="392" fill="white" transform="translate(0 163) rotate(-90)"/>
</clipPath>
</defs>
</svg>
