<svg width="101" height="127" viewBox="0 0 101 127" fill="none" xmlns="http://www.w3.org/2000/svg">
<mask id="mask0_128_987" style="mask-type:luminance" maskUnits="userSpaceOnUse" x="0" y="0" width="127" height="127">
<path d="M126.805 0H0V126.93H126.805V0Z" fill="white"/>
</mask>
<g mask="url(#mask0_128_987)">
<path d="M50.4996 95.9208H46.5116C40.8806 95.9208 36.3014 91.337 36.3014 85.7006V69.0726C36.3014 68.6365 35.9462 68.281 35.5105 68.281H18.8987C13.2677 68.281 8.68842 63.6973 8.68842 58.0608V54.0689C8.68842 48.4343 13.2677 43.8488 18.8987 43.8488H35.5105C35.9462 43.8488 36.3014 43.4933 36.3014 43.0572V26.4291C36.3014 20.7945 40.8806 16.209 46.5116 16.209H50.4996C56.1287 16.209 60.7098 20.7945 60.7098 26.4291V43.0572C60.7098 43.4933 61.065 43.8488 61.5006 43.8488H78.1125C83.7417 43.8488 88.3228 48.4343 88.3228 54.0689V58.0608C88.3228 63.6973 83.7435 68.281 78.1125 68.281H61.5006C61.065 68.281 60.7098 68.6365 60.7098 69.0726V85.7006C60.7098 91.337 56.1305 95.9208 50.4996 95.9208ZM18.8996 44.8163C13.8022 44.8163 9.65681 48.9667 9.65681 54.0689V58.0608C9.65681 63.1631 13.8031 67.3135 18.8996 67.3135H35.5115C36.4808 67.3135 37.2698 68.1023 37.2698 69.0735V85.7015C37.2698 90.8038 41.4161 94.9533 46.5125 94.9533H50.5005C55.5978 94.9533 59.7433 90.8029 59.7433 85.7015V69.0735C59.7433 68.1032 60.5313 67.3135 61.5016 67.3135H78.1134C83.2108 67.3135 87.3562 63.1631 87.3562 58.0608V54.0689C87.3562 48.9667 83.2099 44.8163 78.1134 44.8163H61.5016C60.5323 44.8163 59.7433 44.0274 59.7433 43.0572V26.4291C59.7433 21.3269 55.5969 17.1765 50.5005 17.1765H46.5125C41.4152 17.1765 37.2698 21.3269 37.2698 26.4291V43.0572C37.2698 44.0274 36.4817 44.8163 35.5115 44.8163H18.8996Z" fill="#FCC41F"/>
<path d="M50.5006 100.255H46.5126C38.4936 100.255 31.9702 93.7265 31.9702 85.7015V73.6984C31.9702 73.102 31.4842 72.6155 30.8884 72.6155H18.8997C10.8807 72.6155 4.3573 66.0867 4.3573 58.0617V54.0699C4.3573 46.0431 10.8798 39.5133 18.8997 39.5133H30.8884C31.4842 39.5133 31.9702 39.0268 31.9702 38.4304V26.4301C31.9702 18.4033 38.4927 11.8735 46.5126 11.8735H50.5006C58.5178 11.8735 65.0402 18.4023 65.0402 26.4301V38.4304C65.0402 39.0268 65.5263 39.5133 66.1221 39.5133H78.1108C86.1298 39.5133 92.6532 46.0422 92.6532 54.0699V58.0617C92.6532 66.0867 86.1307 72.6155 78.1136 72.6155H66.1221C65.5263 72.6155 65.0402 73.102 65.0402 73.6984V85.7015C65.0402 93.7265 58.5178 100.255 50.5006 100.255ZM18.9006 39.8991C11.0949 39.8991 4.74356 46.2565 4.74356 54.0699V58.0617C4.74356 65.875 11.094 72.2298 18.9006 72.2298H30.8893C31.6984 72.2298 32.3565 72.8885 32.3565 73.6984V85.7015C32.3565 93.5148 38.7069 99.8696 46.5135 99.8696H50.5015C58.3073 99.8696 64.6558 93.5148 64.6558 85.7015V73.6984C64.6558 72.8885 65.3139 72.2298 66.1231 72.2298H78.1145C85.9202 72.2298 92.2688 65.875 92.2688 58.0617V54.0699C92.2688 46.2565 85.9184 39.8991 78.1117 39.8991H66.1231C65.3139 39.8991 64.6558 39.2403 64.6558 38.4313V26.431C64.6558 18.6177 58.3073 12.2602 50.5015 12.2602H46.5135C38.7078 12.2602 32.3565 18.6167 32.3565 26.431V38.4313C32.3565 39.2412 31.6984 39.8991 30.8893 39.8991H18.9006Z" fill="#FCC41F"/>
<path d="M50.5007 104.399H46.5127C36.211 104.399 27.8313 96.0121 27.8313 85.6994V77.9383C27.8313 77.2887 27.3023 76.7592 26.6533 76.7592H18.8998C8.59801 76.7592 0.218384 68.3723 0.218384 58.0596V54.0678C0.218384 43.7578 8.59709 35.3682 18.8998 35.3682H26.6533C27.3023 35.3682 27.8313 34.8405 27.8313 34.1891V26.428C27.8313 16.118 36.21 7.72839 46.5127 7.72839H50.5007C60.8007 7.72839 69.1821 16.118 69.1821 26.428V34.1891C69.1821 34.8405 69.7093 35.3682 70.3601 35.3682H78.1137C88.4136 35.3682 96.7951 43.7578 96.7951 54.0678V58.0596C96.7951 68.3714 88.4136 76.7592 78.1137 76.7592H70.3601C69.7093 76.7592 69.1821 77.2887 69.1821 77.9383V85.6994C69.1821 96.0112 60.8007 104.399 50.5007 104.399ZM18.9007 35.5615C8.70602 35.5615 0.412429 43.8641 0.412429 54.0678V58.0596C0.412429 68.266 8.70418 76.5659 18.9007 76.5659H26.6542C27.4085 76.5659 28.0245 77.1834 28.0245 77.9374V85.6985C28.0245 95.9049 36.3162 104.205 46.5127 104.205H50.5007C60.6954 104.205 68.989 95.9049 68.989 85.6985V77.9374C68.989 77.1825 69.6031 76.5659 70.3592 76.5659H78.1127C88.3074 76.5659 96.601 68.266 96.601 58.0596V54.0678C96.601 43.8632 88.3065 35.5615 78.1127 35.5615H70.3592C69.6031 35.5615 68.989 34.9467 68.989 34.19V26.4289C68.989 16.2243 60.6945 7.92263 50.5007 7.92263H46.5127C36.318 7.92263 28.0245 16.2252 28.0245 26.4289V34.19C28.0245 34.9467 27.4075 35.5615 26.6542 35.5615H18.9007Z" fill="#FCC41F"/>
</g>
</svg>
