<svg width="170" height="218" viewBox="0 0 170 218" fill="none" xmlns="http://www.w3.org/2000/svg">
<g opacity="0.8">
<mask id="mask0_128_969" style="mask-type:luminance" maskUnits="userSpaceOnUse" x="-13" y="0" width="241" height="241">
<path d="M227.022 0H-13V240.257H227.022V0Z" fill="white"/>
</mask>
<g mask="url(#mask0_128_969)">
<path d="M82.5875 181.563H75.0389C64.3804 181.563 55.7126 172.886 55.7126 162.217V130.743C55.7126 129.918 55.0403 129.245 54.2157 129.245H22.7721C12.1136 129.245 3.44574 120.569 3.44574 109.9V102.344C3.44574 91.6784 12.1136 82.9987 22.7721 82.9987H54.2157C55.0403 82.9987 55.7126 82.3258 55.7126 81.5003V50.0261C55.7126 39.3608 64.3804 30.681 75.0389 30.681H82.5875C93.2425 30.681 101.914 39.3608 101.914 50.0261V81.5003C101.914 82.3258 102.586 82.9987 103.411 82.9987H134.854C145.509 82.9987 154.181 91.6784 154.181 102.344V109.9C154.181 120.569 145.513 129.245 134.854 129.245H103.411C102.586 129.245 101.914 129.918 101.914 130.743V162.217C101.914 172.886 93.246 181.563 82.5875 181.563ZM22.7738 84.83C13.1254 84.83 5.27875 92.686 5.27875 102.344V109.9C5.27875 119.558 13.1271 127.414 22.7738 127.414H54.2174C56.0521 127.414 57.5456 128.907 57.5456 130.745V162.219C57.5456 171.877 65.3939 179.731 75.0406 179.731H82.5892C92.2377 179.731 100.084 171.875 100.084 162.219V130.745C100.084 128.908 101.576 127.414 103.412 127.414H134.856C144.504 127.414 152.351 119.558 152.351 109.9V102.344C152.351 92.686 144.503 84.83 134.856 84.83H103.412C101.578 84.83 100.084 83.3369 100.084 81.5003V50.0261C100.084 40.3683 92.2359 32.5124 82.5892 32.5124H75.0406C65.3922 32.5124 57.5456 40.3683 57.5456 50.0261V81.5003C57.5456 83.3369 56.0539 84.83 54.2174 84.83H22.7738Z" fill="#25B957"/>
<path d="M82.5894 189.767H75.0408C59.8622 189.767 47.5144 177.409 47.5144 162.219V139.499C47.5144 138.37 46.5945 137.449 45.4666 137.449H22.774C7.59533 137.449 -4.75238 125.091 -4.75238 109.901V102.346C-4.75238 87.1521 7.5936 74.7924 22.774 74.7924H45.4666C46.5945 74.7924 47.5144 73.8715 47.5144 72.7426V50.0279C47.5144 34.8344 59.8604 22.4747 75.0408 22.4747H82.5894C97.7646 22.4747 110.111 34.8327 110.111 50.0279V72.7426C110.111 73.8715 111.031 74.7924 112.158 74.7924H134.851C150.03 74.7924 162.377 87.1504 162.377 102.346V109.901C162.377 125.091 150.031 137.449 134.856 137.449H112.158C111.031 137.449 110.111 138.37 110.111 139.499V162.219C110.111 177.409 97.7646 189.767 82.5894 189.767ZM22.7757 75.5225C8.00074 75.5225 -4.02125 87.5562 -4.02125 102.346V109.901C-4.02125 124.691 7.99901 136.719 22.7757 136.719H45.4683C46.9999 136.719 48.2456 137.966 48.2456 139.499V162.219C48.2456 177.008 60.2658 189.037 75.0425 189.037H82.5912C97.3661 189.037 109.383 177.008 109.383 162.219V139.499C109.383 137.966 110.629 136.719 112.16 136.719H134.858C149.633 136.719 161.65 124.691 161.65 109.901V102.346C161.65 87.5562 149.629 75.5225 134.853 75.5225H112.16C110.629 75.5225 109.383 74.2756 109.383 72.7443V50.0296C109.383 35.2403 97.3661 23.2066 82.5912 23.2066H75.0425C60.2676 23.2066 48.2456 35.2385 48.2456 50.0296V72.7443C48.2456 74.2773 46.9999 75.5225 45.4683 75.5225H22.7757Z" fill="#25B957"/>
<path d="M82.5897 197.61H75.0411C55.5415 197.61 39.6802 181.735 39.6802 162.215V147.525C39.6802 146.295 38.6788 145.293 37.4505 145.293H22.7742C3.27466 145.293 -12.5866 129.418 -12.5866 109.898V102.342C-12.5866 82.8265 3.27293 66.9463 22.7742 66.9463H37.4505C38.6788 66.9463 39.6802 65.9474 39.6802 64.7144V50.0239C39.6802 30.5088 55.5398 14.6287 75.0411 14.6287H82.5897C102.086 14.6287 117.951 30.5088 117.951 50.0239V64.7144C117.951 65.9474 118.948 66.9463 120.18 66.9463H134.857C154.353 66.9463 170.217 82.8265 170.217 102.342V109.898C170.217 129.416 154.353 145.293 134.857 145.293H120.18C118.948 145.293 117.951 146.295 117.951 147.525V162.215C117.951 181.734 102.086 197.61 82.5897 197.61ZM22.776 67.3122C3.4791 67.3122 -12.2193 83.0277 -12.2193 102.342V109.898C-12.2193 129.217 3.47563 144.927 22.776 144.927H37.4522C38.8798 144.927 40.0458 146.096 40.0458 147.523V162.213C40.0458 181.533 55.7407 197.243 75.0411 197.243H82.5897C101.887 197.243 117.585 181.533 117.585 162.213V147.523C117.585 146.094 118.747 144.927 120.179 144.927H134.855C154.152 144.927 169.85 129.217 169.85 109.898V102.342C169.85 83.0259 154.15 67.3122 134.855 67.3122H120.179C118.747 67.3122 117.585 66.1486 117.585 64.7161V50.0256C117.585 30.71 101.885 14.9963 82.5897 14.9963H75.0411C55.7442 14.9963 40.0458 30.7117 40.0458 50.0256V64.7161C40.0458 66.1486 38.8781 67.3122 37.4522 67.3122H22.776Z" fill="#25B957"/>
</g>
</g>
</svg>
