<svg width="173" height="241" viewBox="0 0 173 241" fill="none" xmlns="http://www.w3.org/2000/svg">
<mask id="mask0_128_961" style="mask-type:luminance" maskUnits="userSpaceOnUse" x="-68" y="0" width="241" height="241">
<path d="M172.608 0H-67.4135V240.257H172.608V0Z" fill="white"/>
</mask>
<g mask="url(#mask0_128_961)">
<path d="M57.5509 219.181H47.6396C33.645 219.181 22.2642 207.789 22.2642 193.781V152.455C22.2642 151.371 21.3815 150.488 20.2987 150.488H-20.9867C-34.9813 150.488 -46.3622 139.096 -46.3622 125.088V115.167C-46.3622 101.163 -34.9813 89.7667 -20.9867 89.7667H20.2987C21.3815 89.7667 22.2642 88.8833 22.2642 87.7994V46.4738C22.2642 32.4701 33.645 21.0737 47.6396 21.0737H57.5509C71.541 21.0737 82.9264 32.4701 82.9264 46.4738V87.7994C82.9264 88.8833 83.809 89.7667 84.8918 89.7667H126.177C140.167 89.7667 151.553 101.163 151.553 115.167V125.088C151.553 139.096 140.172 150.488 126.177 150.488H84.8918C83.809 150.488 82.9264 151.371 82.9264 152.455V193.781C82.9264 207.789 71.5456 219.181 57.5509 219.181ZM-20.9844 92.1713C-33.6528 92.1713 -43.9554 102.486 -43.9554 115.167V125.088C-43.9554 137.769 -33.6506 148.083 -20.9844 148.083H20.301C22.71 148.083 24.6709 150.044 24.6709 152.458V193.783C24.6709 206.464 34.9758 216.777 47.6419 216.777H57.5532C70.2216 216.777 80.5242 206.462 80.5242 193.783V152.458C80.5242 150.046 82.4828 148.083 84.8941 148.083H126.18C138.848 148.083 149.151 137.769 149.151 125.088V115.167C149.151 102.486 138.846 92.1713 126.18 92.1713H84.8941C82.4851 92.1713 80.5242 90.2108 80.5242 87.7994V46.4738C80.5242 33.7931 70.2193 23.4782 57.5532 23.4782H47.6419C34.9735 23.4782 24.6709 33.7931 24.6709 46.4738V87.7994C24.6709 90.2108 22.7123 92.1713 20.301 92.1713H-20.9844Z" fill="#FCC41F"/>
<path d="M57.5535 229.954H47.6421C27.7125 229.954 11.5 213.728 11.5 193.783V163.952C11.5 162.47 10.2921 161.261 8.81118 161.261H-20.9842C-40.9138 161.261 -57.1263 145.035 -57.1263 125.09V115.169C-57.1263 95.2202 -40.9161 78.9919 -20.9842 78.9919H8.81118C10.2921 78.9919 11.5 77.7828 11.5 76.3004V46.476C11.5 26.5271 27.7103 10.2988 47.6421 10.2988H57.5535C77.4785 10.2988 93.6887 26.5248 93.6887 46.476V76.3004C93.6887 77.7828 94.8967 78.9919 96.3776 78.9919H126.173C146.103 78.9919 162.315 95.2179 162.315 115.169V125.09C162.315 145.035 146.105 161.261 126.18 161.261H96.3776C94.8967 161.261 93.6887 162.47 93.6887 163.952V193.783C93.6887 213.728 77.4785 229.954 57.5535 229.954ZM-20.9819 79.9505C-40.3815 79.9505 -56.1664 95.7507 -56.1664 115.169V125.09C-56.1664 144.509 -40.3838 160.302 -20.9819 160.302H8.81345C10.8244 160.302 12.46 161.939 12.46 163.952V193.783C12.46 213.202 28.2426 228.995 47.6444 228.995H57.5557C76.9553 228.995 92.7333 213.202 92.7333 193.783V163.952C92.7333 161.939 94.3689 160.302 96.3798 160.302H126.182C145.582 160.302 161.36 144.509 161.36 125.09V115.169C161.36 95.7507 145.577 79.9505 126.175 79.9505H96.3798C94.3689 79.9505 92.7333 78.3133 92.7333 76.3027V46.4783C92.7333 27.0599 76.9553 11.2597 57.5557 11.2597H47.6444C28.2449 11.2597 12.46 27.0576 12.46 46.4783V76.3027C12.46 78.3156 10.8244 79.9505 8.81345 79.9505H-20.9819Z" fill="#FCC41F"/>
<path d="M57.5538 240.252H47.6424C22.0395 240.252 1.21363 219.408 1.21363 193.778V174.489C1.21363 172.875 -0.101212 171.559 -1.71405 171.559H-20.9839C-46.5869 171.559 -67.4127 150.715 -67.4127 125.085V115.164C-67.4127 89.5408 -46.5891 68.6901 -20.9839 68.6901H-1.71405C-0.101212 68.6901 1.21363 67.3785 1.21363 65.7596V46.471C1.21363 20.8477 22.0372 -0.00299072 47.6424 -0.00299072H57.5538C83.1521 -0.00299072 103.983 20.8477 103.983 46.471V65.7596C103.983 67.3785 105.293 68.6901 106.91 68.6901H126.18C151.779 68.6901 172.609 89.5408 172.609 115.164V125.085C172.609 150.713 151.779 171.559 126.18 171.559H106.91C105.293 171.559 103.983 172.875 103.983 174.489V193.778C103.983 219.406 83.1521 240.252 57.5538 240.252ZM-20.9817 69.1705C-46.3184 69.1705 -66.9305 89.8049 -66.9305 115.164V125.085C-66.9305 150.451 -46.323 171.078 -20.9817 171.078H-1.71177C0.162674 171.078 1.69362 172.613 1.69362 174.487V193.776C1.69362 219.142 22.3011 239.769 47.6424 239.769H57.5538C82.8905 239.769 103.503 219.142 103.503 193.776V174.487C103.503 172.611 105.029 171.078 106.908 171.078H126.178C151.515 171.078 172.127 150.451 172.127 125.085V115.164C172.127 89.8026 151.512 69.1705 126.178 69.1705H106.908C105.029 69.1705 103.503 67.6427 103.503 65.7619V46.4732C103.503 21.1118 82.8883 0.479737 57.5538 0.479737H47.6424C22.3056 0.479737 1.69362 21.1141 1.69362 46.4732V65.7619C1.69362 67.6427 0.160393 69.1705 -1.71177 69.1705H-20.9817Z" fill="#FCC41F"/>
</g>
</svg>
