<svg width="274" height="360" viewBox="0 0 274 360" fill="none" xmlns="http://www.w3.org/2000/svg">
<g opacity="0.8">
<mask id="mask0_119_173" style="mask-type:luminance" maskUnits="userSpaceOnUse" x="0" y="0" width="361" height="360">
<path d="M360.032 0H0V359.919H360.032V0Z" fill="white"/>
</mask>
<g mask="url(#mask0_119_173)">
<path d="M187.447 328.345H172.58C151.588 328.345 134.516 311.28 134.516 290.294V228.386C134.516 226.763 133.192 225.439 131.568 225.439H69.64C48.6481 225.439 31.5768 208.374 31.5768 187.389V172.526C31.5768 151.548 48.6481 134.476 69.64 134.476H131.568C133.192 134.476 134.516 133.152 134.516 131.528V69.6204C134.516 48.6421 151.588 31.5696 172.58 31.5696H187.447C208.432 31.5696 225.51 48.6421 225.51 69.6204V131.528C225.51 133.152 226.834 134.476 228.458 134.476H290.386C311.371 134.476 328.449 151.548 328.449 172.526V187.389C328.449 208.374 311.378 225.439 290.386 225.439H228.458C226.834 225.439 225.51 226.763 225.51 228.386V290.294C225.51 311.28 208.438 328.345 187.447 328.345ZM69.6434 138.078C50.6409 138.078 35.187 153.53 35.187 172.526V187.389C35.187 206.385 50.6443 221.837 69.6434 221.837H131.572C135.185 221.837 138.126 224.774 138.126 228.39V290.298C138.126 309.294 153.584 324.743 172.583 324.743H187.45C206.453 324.743 221.906 309.291 221.906 290.298V228.39C221.906 224.778 224.844 221.837 228.461 221.837H290.389C309.392 221.837 324.846 206.385 324.846 187.389V172.526C324.846 153.53 309.389 138.078 290.389 138.078H228.461C224.848 138.078 221.906 135.141 221.906 131.528V69.6204C221.906 50.624 206.449 35.1717 187.45 35.1717H172.583C153.58 35.1717 138.126 50.624 138.126 69.6204V131.528C138.126 135.141 135.189 138.078 131.572 138.078H69.6434Z" fill="white" fill-opacity="0.6"/>
<path d="M187.45 344.483H172.583C142.689 344.483 118.37 320.176 118.37 290.298V245.609C118.37 243.388 116.558 241.577 114.337 241.577H69.6439C39.7495 241.577 15.4307 217.27 15.4307 187.392V172.53C15.4307 142.645 39.7461 118.334 69.6439 118.334H114.337C116.558 118.334 118.37 116.523 118.37 114.302V69.6236C118.37 39.739 142.686 15.4281 172.583 15.4281H187.45C217.338 15.4281 241.653 39.7356 241.653 69.6236V114.302C241.653 116.523 243.465 118.334 245.687 118.334H290.38C320.274 118.334 344.593 142.642 344.593 172.53V187.392C344.593 217.27 320.277 241.577 290.39 241.577H245.687C243.465 241.577 241.653 243.388 241.653 245.609V290.298C241.653 320.176 217.338 344.483 187.45 344.483ZM69.6473 119.77C40.548 119.77 16.8707 143.44 16.8707 172.53V187.392C16.8707 216.482 40.5446 240.141 69.6473 240.141H114.34C117.357 240.141 119.81 242.594 119.81 245.609V290.298C119.81 319.388 143.484 343.047 172.587 343.047H187.454C216.553 343.047 240.22 319.388 240.22 290.298V245.609C240.22 242.594 242.674 240.141 245.69 240.141H290.393C319.493 240.141 343.16 216.482 343.16 187.392V172.53C343.16 143.44 319.486 119.77 290.383 119.77H245.69C242.674 119.77 240.22 117.318 240.22 114.306V69.627C240.22 40.5372 216.553 16.8676 187.454 16.8676H172.587C143.488 16.8676 119.81 40.5338 119.81 69.627V114.306C119.81 117.321 117.357 119.77 114.34 119.77H69.6473Z" fill="white" fill-opacity="0.6"/>
<path d="M187.451 359.911H172.584C134.179 359.911 102.94 328.686 102.94 290.291V261.395C102.94 258.977 100.968 257.005 98.549 257.005H69.6442C31.2397 257.005 0.000976562 225.78 0.000976562 187.385V172.522C0.000976562 134.137 31.2363 102.902 69.6442 102.902H98.549C100.968 102.902 102.94 100.937 102.94 98.5119V69.6165C102.94 31.2314 134.176 -0.00402832 172.584 -0.00402832H187.451C225.848 -0.00402832 257.094 31.2314 257.094 69.6165V98.5119C257.094 100.937 259.059 102.902 261.485 102.902H290.39C328.788 102.902 360.033 134.137 360.033 172.522V187.385C360.033 225.777 328.788 257.005 290.39 257.005H261.485C259.059 257.005 257.094 258.977 257.094 261.395V290.291C257.094 328.682 225.848 359.911 187.451 359.911ZM69.6476 103.622C31.6424 103.622 0.724365 134.533 0.724365 172.522V187.385C0.724365 225.384 31.6356 256.285 69.6476 256.285H98.5524C101.364 256.285 103.66 258.584 103.66 261.392V290.287C103.66 328.287 134.572 359.188 172.584 359.188H187.451C225.456 359.188 256.374 328.287 256.374 290.287V261.392C256.374 258.581 258.663 256.285 261.482 256.285H290.387C328.392 256.285 359.31 225.384 359.31 187.385V172.522C359.31 134.53 328.389 103.622 290.387 103.622H261.482C258.663 103.622 256.374 101.333 256.374 98.5153V69.6199C256.374 31.6271 225.452 0.719124 187.451 0.719124H172.584C134.578 0.719124 103.66 31.6305 103.66 69.6199V98.5153C103.66 101.333 101.361 103.622 98.5524 103.622H69.6476Z" fill="white" fill-opacity="0.6"/>
</g>
</g>
</svg>
