<svg width="1440" height="559" viewBox="0 0 1440 559" fill="none" xmlns="http://www.w3.org/2000/svg">
<g clip-path="url(#clip0_160_634)">
<rect width="1440" height="559" fill="#009EE6"/>
<path d="M1614 373.059H1557.77C1501.53 373.059 1389.07 373.059 1276.6 336.857C1164.13 301.197 1051.67 227.98 939.2 250.08C826.733 271.368 714.267 387.974 601.8 445.327C489.333 503.224 376.867 503.224 264.4 481.529C151.933 459.835 39.4667 416.447 -16.7666 394.753L-73 373.059V590H-16.7666C39.4667 590 151.933 590 264.4 590C376.867 590 489.333 590 601.8 590C714.267 590 826.733 590 939.2 590C1051.67 590 1164.13 590 1276.6 590C1389.07 590 1501.53 590 1557.77 590H1614V373.059Z" fill="url(#paint0_linear_160_634)" fill-opacity="0.5"/>
<path d="M1687 408.375H1630.77C1574.53 408.375 1462.07 408.375 1349.6 378.066C1237.13 348.212 1124.67 286.913 1012.2 305.416C899.733 323.238 787.267 420.862 674.8 468.879C562.333 517.35 449.867 517.35 337.4 499.187C224.933 481.025 112.467 444.7 56.2334 426.537L0 408.375V590H56.2334C112.467 590 224.933 590 337.4 590C449.867 590 562.333 590 674.8 590C787.267 590 899.733 590 1012.2 590C1124.67 590 1237.13 590 1349.6 590C1462.07 590 1574.53 590 1630.77 590H1687V408.375Z" fill="url(#paint1_linear_160_634)" fill-opacity="0.5"/>
</g>
<defs>
<linearGradient id="paint0_linear_160_634" x1="770" y1="418" x2="770" y2="590" gradientUnits="userSpaceOnUse">
<stop stop-color="#0071BD"/>
<stop offset="1" stop-color="#009EE6"/>
</linearGradient>
<linearGradient id="paint1_linear_160_634" x1="843" y1="446" x2="843" y2="590" gradientUnits="userSpaceOnUse">
<stop stop-color="#0071BD"/>
<stop offset="1" stop-color="#009EE6"/>
</linearGradient>
<clipPath id="clip0_160_634">
<rect width="1440" height="559" fill="white"/>
</clipPath>
</defs>
</svg>
