<svg width="1998" height="110" viewBox="0 0 1998 110" fill="none" xmlns="http://www.w3.org/2000/svg">
<path d="M1998 48.632H1931.4C1864.8 48.632 1819 79.2185 1598.4 69.7544C1382.5 136.704 1293 39.96 1206.5 86.93C1095.2 160.753 895 29.4439 767 78.1666C679 101.651 459 29.4811 403.6 72.9459C118.1 98.3607 168.5 24.5366 70.5001 43.6289L0 48.632V2.22818e-06H66.6001C133.2 2.22818e-06 266.4 2.22818e-06 399.6 2.22818e-06C532.8 2.22818e-06 666 2.22818e-06 799.2 2.22818e-06C932.4 2.22818e-06 1065.6 2.22818e-06 1198.8 2.22818e-06C1332 2.22818e-06 1465.2 2.22818e-06 1598.4 2.22818e-06C1731.6 2.22818e-06 1864.8 2.22818e-06 1931.4 2.22818e-06H1998V48.632Z" fill="#0099FF"/>
</svg>
