<svg width="1998" height="110" viewBox="0 0 1998 110" fill="none" xmlns="http://www.w3.org/2000/svg">
<path d="M0 48.632H66.5961C133.204 48.632 179 79.2185 399.6 69.7544C615.5 136.704 705 39.96 791.5 86.93C902.8 160.753 1103 29.4439 1231 78.1666C1319 101.651 1539 29.4811 1594.4 72.9459C1879.9 98.3607 1829.5 24.5366 1927.5 43.6289L1998 48.632V2.22818e-06H1931.4C1864.8 2.22818e-06 1731.6 2.22818e-06 1598.4 2.22818e-06C1465.2 2.22818e-06 1332 2.22818e-06 1198.8 2.22818e-06C1065.6 2.22818e-06 932.4 2.22818e-06 799.2 2.22818e-06C665.996 2.22818e-06 532.804 2.22818e-06 399.6 2.22818e-06C266.396 2.22818e-06 133.204 2.22818e-06 66.5961 2.22818e-06H0V48.632Z" fill="#27C86F"/>
</svg>
