<svg width="428" height="304" viewBox="0 0 428 304" fill="none" xmlns="http://www.w3.org/2000/svg">
<g clip-path="url(#clip0_137_428)">
<path d="M447.959 1.04128C434.919 1.04128 440.626 9.82873 440.626 9.82873C440.626 9.82873 418.942 201.008 332.829 207.255C238.55 214.085 134.606 218.687 134.606 218.687C81.8845 221.602 28.2461 257.189 1.81229 302.938L447.958 302.938L447.959 1.04128Z" stroke="#25B957" stroke-miterlimit="10"/>
<path d="M430.357 154.051C390.529 200.383 340.848 206.484 340.848 206.484L164.623 223.205C111.214 228.286 65.6366 259.126 40.2443 303.063L430.357 303.063L430.357 154.03L430.357 154.051Z" fill="#FCC41F"/>
<path d="M430.357 159.757C395.112 204.319 351.18 210.191 351.18 210.191L195.285 226.287C148.042 231.16 107.714 260.833 85.2589 303.104L430.357 303.105L430.357 159.777L430.357 159.757Z" fill="#003870"/>
</g>
<defs>
<clipPath id="clip0_137_428">
<rect width="304" height="449" fill="white" transform="translate(449 1.96264e-05) rotate(90)"/>
</clipPath>
</defs>
</svg>
