<svg width="1293" height="218" viewBox="0 0 1293 218" fill="none" xmlns="http://www.w3.org/2000/svg">
<path d="M0 80.5199H43.1C86.2 80.5199 172.4 80.5199 258.6 57.5779C344.8 34.9796 431 -11.4199 517.2 2.58587C603.4 16.0761 689.6 89.9717 775.8 126.318C862 163.008 948.2 163.008 1034.4 149.26C1120.6 135.512 1206.8 108.016 1249.9 94.2679L1293 80.5199V218H1249.9C1206.8 218 1120.6 218 1034.4 218C948.2 218 862 218 775.8 218C689.6 218 603.4 218 517.2 218C431 218 344.8 218 258.6 218C172.4 218 86.2 218 43.1 218H0L0 80.5199Z" fill="url(#paint0_linear_866_7909)" fill-opacity="0.5"/>
<defs>
<linearGradient id="paint0_linear_866_7909" x1="646.5" y1="0" x2="646.5" y2="218" gradientUnits="userSpaceOnUse">
<stop stop-color="#27976F"/>
<stop offset="1" stop-color="#27C86F"/>
</linearGradient>
</defs>
</svg>
