<svg width="91" height="127" viewBox="0 0 91 127" fill="none" xmlns="http://www.w3.org/2000/svg">
<g opacity="0.8">
<mask id="mask0_143_141" style="mask-type:luminance" maskUnits="userSpaceOnUse" x="0" y="0" width="91" height="127">
<path d="M91 0H0V127H91V0Z" fill="white"/>
</mask>
<g mask="url(#mask0_143_141)">
<path d="M58.9403 111.953H54.2858C47.7136 111.953 42.3689 106.604 42.3689 100.025V80.6177C42.3689 80.1087 41.9544 79.6938 41.4459 79.6938H22.0575C15.4853 79.6938 10.1406 74.3439 10.1406 67.7654V63.1063C10.1406 56.5299 15.4853 51.1779 22.0575 51.1779H41.4459C41.9544 51.1779 42.3689 50.763 42.3689 50.254V30.8467C42.3689 24.2703 47.7136 18.9183 54.2858 18.9183H58.9403C65.5103 18.9183 70.8571 24.2703 70.8571 30.8467V50.254C70.8571 50.763 71.2716 51.1779 71.7801 51.1779H91.1686C97.7386 51.1779 103.085 56.5299 103.085 63.1063V67.7654C103.085 74.3439 97.7408 79.6938 91.1686 79.6938H71.7801C71.2716 79.6938 70.8571 80.1087 70.8571 80.6177V100.025C70.8571 106.604 65.5125 111.953 58.9403 111.953ZM22.0585 52.3071C16.1092 52.3071 11.2709 57.1512 11.2709 63.1063V67.7654C11.2709 73.7205 16.1103 78.5646 22.0585 78.5646H41.447C42.5783 78.5646 43.4992 79.4853 43.4992 80.6188V100.026C43.4992 105.981 48.3386 110.824 54.2868 110.824H58.9414C64.8907 110.824 69.729 105.98 69.729 100.026V80.6188C69.729 79.4864 70.6488 78.5646 71.7812 78.5646H91.1697C97.119 78.5646 101.957 73.7205 101.957 67.7654V63.1063C101.957 57.1512 97.118 52.3071 91.1697 52.3071H71.7812C70.6499 52.3071 69.729 51.3864 69.729 50.254V30.8467C69.729 24.8916 64.8896 20.0475 58.9414 20.0475H54.2868C48.3375 20.0475 43.4992 24.8916 43.4992 30.8467V50.254C43.4992 51.3864 42.5794 52.3071 41.447 52.3071H22.0585Z" fill="#FCC41F"/>
<path d="M58.9416 117.013H54.2871C44.9277 117.013 37.314 109.392 37.314 100.026V86.0168C37.314 85.3207 36.7467 84.7529 36.0513 84.7529H22.0588C12.6994 84.7529 5.08569 77.1328 5.08569 67.7665V63.1074C5.08569 53.739 12.6984 46.1178 22.0588 46.1178H36.0513C36.7467 46.1178 37.314 45.55 37.314 44.8539V30.8478C37.314 21.4793 44.9267 13.8582 54.2871 13.8582H58.9416C68.2988 13.8582 75.9115 21.4783 75.9115 30.8478V44.8539C75.9115 45.55 76.4787 46.1178 77.1742 46.1178H91.1667C100.526 46.1178 108.14 53.7379 108.14 63.1074V67.7665C108.14 77.1328 100.527 84.7529 91.1699 84.7529H77.1742C76.4787 84.7529 75.9115 85.3207 75.9115 86.0168V100.026C75.9115 109.392 68.2988 117.013 58.9416 117.013ZM22.0598 46.568C12.9494 46.568 5.53651 53.9881 5.53651 63.1074V67.7665C5.53651 76.8858 12.9483 84.3027 22.0598 84.3027H36.0523C36.9967 84.3027 37.7648 85.0715 37.7648 86.0168V100.026C37.7648 109.145 45.1767 116.562 54.2881 116.562H58.9427C68.0531 116.562 75.4628 109.145 75.4628 100.026V86.0168C75.4628 85.0715 76.2309 84.3027 77.1753 84.3027H91.171C100.281 84.3027 107.691 76.8858 107.691 67.7665V63.1074C107.691 53.9881 100.279 46.568 91.1678 46.568H77.1753C76.2309 46.568 75.4628 45.7992 75.4628 44.855V30.8488C75.4628 21.7295 68.0531 14.3094 58.9427 14.3094H54.2881C45.1777 14.3094 37.7648 21.7285 37.7648 30.8488V44.855C37.7648 45.8002 36.9967 46.568 36.0523 46.568H22.0598Z" fill="#FCC41F"/>
<path d="M58.9416 121.849H54.2871C42.2634 121.849 32.4832 112.06 32.4832 100.024V90.9654C32.4832 90.2072 31.8657 89.5892 31.1083 89.5892H22.0588C10.0351 89.5892 0.254883 79.8005 0.254883 67.7641V63.105C0.254883 51.0718 10.034 41.2799 22.0588 41.2799H31.1083C31.8657 41.2799 32.4832 40.6639 32.4832 39.9037V30.8453C32.4832 18.8121 42.2624 9.02023 54.2871 9.02023H58.9416C70.9632 9.02023 80.7455 18.8121 80.7455 30.8453V39.9037C80.7455 40.6639 81.3609 41.2799 82.1204 41.2799H91.17C103.191 41.2799 112.974 51.0718 112.974 63.105V67.7641C112.974 79.7994 103.191 89.5892 91.17 89.5892H82.1204C81.3609 89.5892 80.7455 90.2072 80.7455 90.9654V100.024C80.7455 112.059 70.9632 121.849 58.9416 121.849ZM22.0598 41.5055C10.1612 41.5055 0.481361 51.1958 0.481361 63.105V67.7641C0.481361 79.6764 10.159 89.3635 22.0598 89.3635H31.1094C31.9896 89.3635 32.7086 90.0843 32.7086 90.9643V100.023C32.7086 111.935 42.3863 121.622 54.2871 121.622H58.9416C70.8403 121.622 80.5201 111.935 80.5201 100.023V90.9643C80.5201 90.0832 81.2369 89.3635 82.1194 89.3635H91.1689C103.068 89.3635 112.747 79.6764 112.747 67.7641V63.105C112.747 51.1947 103.066 41.5055 91.1689 41.5055H82.1194C81.2369 41.5055 80.5201 40.788 80.5201 39.9047V30.8464C80.5201 18.9362 70.8392 9.24693 58.9416 9.24693H54.2871C42.3884 9.24693 32.7086 18.9372 32.7086 30.8464V39.9047C32.7086 40.788 31.9886 41.5055 31.1094 41.5055H22.0598Z" fill="#FCC41F"/>
</g>
</g>
</svg>
