<svg width="46" height="65" viewBox="0 0 46 65" fill="none" xmlns="http://www.w3.org/2000/svg">
<g opacity="0.8">
<mask id="mask0_143_149" style="mask-type:luminance" maskUnits="userSpaceOnUse" x="0" y="0" width="46" height="65">
<path d="M46 0H0V64.1978H46V0Z" fill="white"/>
</mask>
<g mask="url(#mask0_143_149)">
<path d="M29.794 56.5918H27.4411C24.1189 56.5918 21.4172 53.8875 21.4172 50.5621V40.7518C21.4172 40.4945 21.2077 40.2848 20.9506 40.2848H11.1499C7.82768 40.2848 5.12598 37.5804 5.12598 34.255V31.8999C5.12598 28.5755 7.82768 25.8701 11.1499 25.8701H20.9506C21.2077 25.8701 21.4172 25.6604 21.4172 25.4031V15.5928C21.4172 12.2685 24.1189 9.56305 27.4411 9.56305H29.794C33.1151 9.56305 35.8178 12.2685 35.8178 15.5928V25.4031C35.8178 25.6604 36.0274 25.8701 36.2844 25.8701H46.0852C49.4063 25.8701 52.1091 28.5755 52.1091 31.8999V34.255C52.1091 37.5804 49.4074 40.2848 46.0852 40.2848H36.2844C36.0274 40.2848 35.8178 40.4945 35.8178 40.7518V50.5621C35.8178 53.8875 33.1161 56.5918 29.794 56.5918ZM11.1504 26.4409C8.14305 26.4409 5.69731 28.8896 5.69731 31.8999V34.255C5.69731 37.2653 8.14359 39.7139 11.1504 39.7139H20.9512C21.5231 39.7139 21.9885 40.1793 21.9885 40.7523V50.5626C21.9885 53.5729 24.4348 56.021 27.4416 56.021H29.7945C32.8018 56.021 35.2476 53.5724 35.2476 50.5626V40.7523C35.2476 40.1799 35.7125 39.7139 36.285 39.7139H46.0857C49.0931 39.7139 51.5388 37.2653 51.5388 34.255V31.8999C51.5388 28.8896 49.0925 26.4409 46.0857 26.4409H36.285C35.7131 26.4409 35.2476 25.9755 35.2476 25.4031V15.5928C35.2476 12.5825 32.8013 10.1339 29.7945 10.1339H27.4416C24.4343 10.1339 21.9885 12.5825 21.9885 15.5928V25.4031C21.9885 25.9755 21.5236 26.4409 20.9512 26.4409H11.1504Z" fill="#25B957"/>
<path d="M29.7947 59.1491H27.4418C22.7107 59.1491 18.862 55.2972 18.862 50.5626V43.481C18.862 43.1291 18.5753 42.8421 18.2237 42.8421H11.1506C6.4195 42.8421 2.5708 38.9902 2.5708 34.2555V31.9004C2.5708 27.1647 6.41896 23.3123 11.1506 23.3123H18.2237C18.5753 23.3123 18.862 23.0252 18.862 22.6733V15.5933C18.862 10.8576 22.7102 7.00519 27.4418 7.00519H29.7947C34.5247 7.00519 38.3728 10.8571 38.3728 15.5933V22.6733C38.3728 23.0252 38.6596 23.3123 39.0111 23.3123H46.0843C50.8154 23.3123 54.6641 27.1642 54.6641 31.9004V34.2555C54.6641 38.9902 50.8159 42.8421 46.0859 42.8421H39.0111C38.6596 42.8421 38.3728 43.1291 38.3728 43.481V50.5626C38.3728 55.2972 34.5247 59.1491 29.7947 59.1491ZM11.1511 23.5398C6.54587 23.5398 2.79869 27.2907 2.79869 31.9004V34.2555C2.79869 38.8653 6.54533 42.6145 11.1511 42.6145H18.2243C18.7016 42.6145 19.0899 43.0031 19.0899 43.481V50.5626C19.0899 55.1724 22.8366 58.9216 27.4424 58.9216H29.7952C34.4005 58.9216 38.146 55.1724 38.146 50.5626V43.481C38.146 43.0031 38.5343 42.6145 39.0117 42.6145H46.0865C50.6917 42.6145 54.4373 38.8653 54.4373 34.2555V31.9004C54.4373 27.2907 50.6906 23.5398 46.0848 23.5398H39.0117C38.5343 23.5398 38.146 23.1512 38.146 22.6739V15.5939C38.146 10.9841 34.4005 7.2333 29.7952 7.2333H27.4424C22.8371 7.2333 19.0899 10.9836 19.0899 15.5939V22.6739C19.0899 23.1517 18.7016 23.5398 18.2243 23.5398H11.1511Z" fill="#25B957"/>
<path d="M29.7947 61.5939H27.4419C21.364 61.5939 16.4201 56.6458 16.4201 50.5615V45.9825C16.4201 45.5993 16.108 45.2868 15.7251 45.2868H11.1507C5.07276 45.2868 0.128906 40.3387 0.128906 34.2544V31.8992C0.128906 25.8165 5.07222 20.8668 11.1507 20.8668H15.7251C16.108 20.8668 16.4201 20.5554 16.4201 20.1711V15.5922C16.4201 9.50944 21.3635 4.55969 27.4419 4.55969H29.7947C35.8716 4.55969 40.8165 9.50944 40.8165 15.5922V20.1711C40.8165 20.5554 41.1275 20.8668 41.5115 20.8668H46.086C52.1628 20.8668 57.1077 25.8165 57.1077 31.8992V34.2544C57.1077 40.3382 52.1628 45.2868 46.086 45.2868H41.5115C41.1275 45.2868 40.8165 45.5993 40.8165 45.9825V50.5615C40.8165 56.6453 35.8716 61.5939 29.7947 61.5939ZM11.1512 20.9808C5.13648 20.9808 0.24339 25.8792 0.24339 31.8992V34.2544C0.24339 40.276 5.1354 45.1728 11.1512 45.1728H15.7257C16.1707 45.1728 16.5341 45.5371 16.5341 45.982V50.5609C16.5341 56.5826 21.4261 61.4793 27.4419 61.4793H29.7947C35.8095 61.4793 40.7025 56.5826 40.7025 50.5609V45.982C40.7025 45.5366 41.0649 45.1728 41.5109 45.1728H46.0854C52.1001 45.1728 56.9932 40.276 56.9932 34.2544V31.8992C56.9932 25.8787 52.0996 20.9808 46.0854 20.9808H41.5109C41.0649 20.9808 40.7025 20.6181 40.7025 20.1716V15.5927C40.7025 9.57214 35.8089 4.67429 29.7947 4.67429H27.4419C21.4272 4.67429 16.5341 9.57268 16.5341 15.5927V20.1716C16.5341 20.6181 16.1701 20.9808 15.7257 20.9808H11.1512Z" fill="#25B957"/>
</g>
</g>
</svg>
