<svg width="194" height="61" viewBox="0 0 194 61" fill="none" xmlns="http://www.w3.org/2000/svg">
<g clip-path="url(#clip0_2001_18368)">
<mask id="mask0_2001_18368" style="mask-type:luminance" maskUnits="userSpaceOnUse" x="0" y="0" width="194" height="61">
<path d="M194 0.852539H0V60.8525H194V0.852539Z" fill="white"/>
</mask>
<g mask="url(#mask0_2001_18368)">
<path d="M52.2313 20.5189C51.3001 19.4502 38.8182 5.02153 38.6919 4.87481C38.4581 4.60522 38.228 4.3416 37.9979 4.07918C36.2332 2.06685 33.5467 0.863275 30.8126 0.859696C27.2844 0.854925 23.4747 0.852539 18.8256 0.852539C15.9091 0.852539 13.0641 0.853732 10.3729 0.853732H9.37964C5.90624 0.854925 3.723 2.38415 2.502 3.66646C0.843409 5.4092 0.00278222 7.62789 0.00278222 10.2605C0.00278222 10.6458 0.00158984 11.0311 0.00158984 11.4247C-0.000794916 12.645 -0.00317968 13.907 0.0158983 15.1857C0.0457078 17.2303 0.702708 19.2688 1.86527 20.9269C2.45431 21.7667 3.06361 22.6219 3.74089 23.5595C3.77069 23.6012 3.78739 23.6513 3.78739 23.7014C3.785 25.4955 3.785 27.2895 3.78381 29.0836V29.179C3.78262 31.2987 3.78262 33.416 3.77904 35.5344C3.77427 38.5476 5.1157 41.3364 7.46111 43.1865C7.78782 43.4442 8.14434 43.7436 8.52232 44.0597L11.8252 46.8164L11.886 46.8676C16.4862 50.7062 21.2426 54.676 25.9298 58.573C27.6421 59.9961 29.8146 60.8048 32.0491 60.8513C32.5547 60.8621 33.0471 60.8633 33.3726 60.8633C33.5658 60.8633 33.753 60.8633 33.9331 60.8621C34.1107 60.8621 34.2896 60.8609 34.4684 60.8609C34.9072 60.8609 35.234 60.8645 35.5273 60.8716C35.6191 60.874 35.7049 60.8752 35.7908 60.8752C38.2996 60.8752 40.633 59.9412 42.362 58.2474C44.1565 56.4879 45.1367 54.0736 45.1235 51.4494C45.12 50.6418 45.1164 49.8235 45.1152 49.0064H45.3584C48.0461 49.0052 50.2985 48.1225 52.0548 46.3857C53.8374 44.6215 54.7425 42.3456 54.7437 39.6211V36.4828C54.7437 33.4661 54.7437 30.3456 54.752 27.2788C54.7592 24.7583 53.8875 22.4203 52.2313 20.5189Z" fill="white"/>
<path d="M37.0929 6.2598C36.864 5.99619 36.6362 5.73495 36.4085 5.47491C35.0384 3.91229 32.9458 2.97829 30.8102 2.97591C27.2844 2.97114 23.4771 2.96875 18.8304 2.96875C15.9127 2.96875 13.0677 2.96994 10.3753 2.96994H9.38203C7.19521 2.97114 5.39591 3.69638 4.03541 5.1266C2.11926 7.14131 2.11806 9.49121 2.11806 10.263C2.11806 10.6495 2.11687 11.0348 2.11687 11.4308C2.11449 12.6427 2.1121 13.8952 2.12999 15.1572C2.15383 16.7818 2.6749 18.4005 3.59661 19.715C4.28819 20.7015 5.00958 21.7107 5.8359 22.851C5.87882 22.9095 5.90267 22.9822 5.90267 23.0538C5.90029 25.0649 5.89909 27.0761 5.8979 29.0872V29.1838C5.89671 31.3035 5.89671 33.4232 5.89313 35.5417C5.88956 37.9357 6.91142 40.0626 8.77034 41.5286C9.1209 41.8053 9.48935 42.1143 9.88045 42.4411L13.1809 45.1954L13.2692 45.2681C17.8598 49.0983 22.6067 53.0598 27.2832 56.9484C28.6091 58.0506 30.3619 58.7031 32.0932 58.7377C32.5797 58.7473 33.0567 58.7484 33.3739 58.7484C33.5599 58.7484 33.7399 58.7484 33.914 58.7473H33.9295C34.1119 58.7473 34.2908 58.7461 34.4697 58.7461C34.9275 58.7461 35.2697 58.7496 35.5821 58.758C35.6549 58.7592 35.7228 58.7604 35.792 58.7604C37.7725 58.7604 39.5325 58.0602 40.8835 56.7361C42.2857 55.3608 43.0214 53.5357 43.0107 51.459C43.0035 49.9477 43.0011 48.4053 42.9999 46.8916H43.5329L45.3573 46.8892C46.1442 46.8892 48.5397 46.8868 50.5691 44.8793C52.6296 42.8407 52.6296 40.4145 52.6308 39.6176V36.4793C52.6308 33.4614 52.6308 30.3397 52.6391 27.2705C52.6451 25.2689 51.9523 23.4141 50.6383 21.9051C49.7035 20.8363 37.2193 6.40533 37.0929 6.2598ZM51.7484 36.4828V39.62C51.7484 40.3262 51.7472 42.4757 49.9491 44.2554C48.1772 46.0077 46.0536 46.0101 45.3561 46.0101L43.5317 46.0125H42.1188C42.12 47.8065 42.12 49.6578 42.1295 51.4661C42.139 53.2995 41.4951 54.9051 40.267 56.1099C39.0842 57.2693 37.5376 57.8813 35.792 57.8813C35.73 57.8813 35.668 57.8801 35.6048 57.8789C35.2852 57.8705 34.9359 57.8669 34.4697 57.8669C34.2884 57.8669 34.1084 57.8669 33.9271 57.8681C33.7495 57.8681 33.5646 57.8693 33.3739 57.8693C33.0615 57.8693 32.5905 57.8681 32.1111 57.8586C30.5753 57.8276 29.0205 57.249 27.846 56.2721C23.1659 52.3799 18.4143 48.4148 13.8188 44.5799L13.7461 44.519L10.448 41.7659C10.0521 41.4343 9.67774 41.1206 9.31764 40.8367C7.67455 39.5413 6.77192 37.6614 6.77549 35.5429C6.77907 33.4232 6.78026 31.3035 6.78026 29.1838V29.0872C6.78146 26.9687 6.78146 24.8514 6.78503 22.7329C6.78503 22.6828 6.76834 22.6327 6.73972 22.5922C5.83471 21.3469 5.06085 20.2638 4.31919 19.2081C3.49764 18.0367 3.03381 16.5934 3.01235 15.1441C2.99446 13.888 2.99685 12.6391 2.99923 11.432C3.00042 11.0359 3.00042 10.6495 3.00042 10.263C3.00042 9.57829 3.00162 7.4932 4.67452 5.73376C5.86213 4.48485 7.4468 3.85145 9.38323 3.85145H10.3765C13.07 3.85026 15.9151 3.85026 18.834 3.85026C23.4783 3.85026 27.2844 3.85265 30.8114 3.85742C32.6978 3.8598 34.5436 4.68167 35.7491 6.05702C35.9768 6.31587 36.2034 6.57591 36.4299 6.83714C36.5563 6.98267 49.0405 21.4148 49.9753 22.4884C51.1475 23.8339 51.7639 25.4884 51.7591 27.2729C51.7484 30.3433 51.7484 33.4649 51.7484 36.4828Z" fill="#003870"/>
<path d="M35.1608 7.93179C34.9379 7.67413 34.7125 7.41648 34.4872 7.16002C33.5941 6.14133 32.2181 5.53298 30.8051 5.53059C27.2911 5.52582 23.4946 5.52344 18.8575 5.52344C16.0816 5.52344 13.3773 5.52463 10.8066 5.52463H9.38048C8.83556 5.52463 7.17935 5.52582 5.88442 6.88686C4.67177 8.16081 4.67177 9.68765 4.67177 10.2614C4.67177 10.6491 4.67058 11.0368 4.67058 11.434C4.6682 12.6376 4.66581 13.8805 4.6837 15.1186C4.70039 16.2351 5.05572 17.3457 5.68649 18.2451C6.40549 19.2709 8.06767 21.5707 8.39915 22.03C8.4373 22.0837 8.45758 22.1457 8.45758 22.2113C8.45638 22.9043 8.45281 27.0232 8.45161 29.0868V29.199C8.45042 31.3139 8.45042 33.4288 8.44684 35.5437C8.44446 37.1373 9.12054 38.5497 10.3511 39.5206C10.7314 39.82 11.1118 40.1397 11.516 40.4785L14.919 43.3186C19.2629 46.9437 24.1862 51.0506 28.9152 54.9835C29.8035 55.7218 30.9804 56.1596 32.1453 56.1835C32.6068 56.193 33.0658 56.1942 33.3699 56.1942C33.5571 56.1942 33.7383 56.1942 33.9136 56.193C34.0984 56.193 34.2844 56.1918 34.4717 56.1918C34.7948 56.1918 35.2205 56.193 35.6461 56.2037C35.695 56.2049 35.7439 56.2049 35.7916 56.2049C37.0889 56.2049 38.2312 55.7576 39.0945 54.9119C39.9924 54.0316 40.4622 52.8423 40.455 51.4729C40.4455 49.6192 40.4455 47.7453 40.4443 45.9322V44.3421L41.056 44.3385C41.3827 44.3361 41.7082 44.3361 42.0325 44.3361H43.529L45.3521 44.3337C45.9364 44.3337 47.4877 44.3326 48.7695 43.0634C50.0715 41.7751 50.0715 40.2638 50.0727 39.6184V36.3942C50.0727 33.4025 50.0727 30.3083 50.0811 27.2642C50.0847 25.8912 49.6101 24.6196 48.7087 23.5842C47.7726 22.5107 35.2849 8.07493 35.1608 7.93179ZM48.6645 36.3966V39.6196C48.6645 40.1683 48.6645 41.1894 47.7798 42.0638C46.9082 42.9262 45.8577 42.9262 45.3521 42.9274L43.5278 42.9298H42.0349C41.707 42.9298 41.3791 42.931 41.05 42.9322L39.0349 42.9441V45.9202C39.0373 47.7393 39.0373 49.6216 39.0468 51.4837C39.0516 52.4773 38.7368 53.2932 38.1096 53.9087C37.5075 54.4992 36.7276 54.7986 35.7928 54.7986C35.7558 54.7986 35.7189 54.7986 35.6831 54.7974C35.2789 54.7866 34.8747 54.7842 34.4728 54.7842C34.2844 54.7842 34.0972 54.7842 33.9112 54.7854C33.7383 54.7854 33.5571 54.7866 33.3711 54.7866C32.9859 54.7866 32.5782 54.7842 32.1751 54.7759C31.3369 54.7592 30.4557 54.4312 29.8178 53.9015C25.1496 50.0188 20.4087 46.0634 15.824 42.2379L12.4281 39.4037C12.0144 39.0578 11.6245 38.7298 11.2275 38.4161C10.3308 37.7087 9.85743 36.7174 9.85981 35.5497C9.86339 33.4288 9.86458 31.3079 9.86458 29.1882V29.0904C9.86577 26.8336 9.86578 24.5755 9.87054 22.3186V21.7962C9.87174 21.7055 9.84312 21.6172 9.78946 21.5445L9.48183 21.1222C8.47904 19.7469 7.6408 18.5767 6.84429 17.4399C6.37449 16.7695 6.10859 15.9405 6.09667 15.1031C6.07878 13.8757 6.08116 12.6387 6.08355 11.4411C6.08474 11.0439 6.08474 10.655 6.08474 10.2674C6.08474 9.76877 6.08474 8.7298 6.90868 7.8638C7.78746 6.93934 8.9071 6.93934 9.38405 6.93934H10.3773C13.0756 6.93815 15.929 6.93815 18.861 6.93815C22.7625 6.93815 26.8035 6.93934 30.8063 6.94531C31.8043 6.9465 32.8095 7.38666 33.4307 8.09401C33.6549 8.34928 33.8778 8.60455 34.0972 8.85863C34.2236 9.00415 46.7114 23.4411 47.6498 24.5182C48.3235 25.2912 48.6777 26.2431 48.6753 27.2677C48.6645 30.3071 48.6645 33.4025 48.6645 36.3966Z" fill="#003870"/>
<path d="M41.6896 21.7751C41.0541 21.0355 40.4185 20.2959 39.7007 19.4609C39.6852 19.721 39.6709 19.8582 39.6709 19.9965C39.6697 24.8955 39.6709 29.7933 39.6697 34.6923C39.6697 35.2804 39.6578 35.2876 39.0867 35.2876C35.0409 35.2864 30.9952 35.2947 26.9482 35.2756C26.5738 35.2745 26.4403 35.3806 26.4033 35.6419V47.5023C28.1215 48.9349 29.8398 50.3675 31.5604 51.7977C31.7344 51.9421 32.0027 52.0375 32.2293 52.0423C33.4014 52.0661 34.5747 52.0339 35.7468 52.0637C36.1927 52.0745 36.3156 51.942 36.3132 51.4947C36.2953 47.9162 36.3096 44.3377 36.2941 40.7591C36.2917 40.3202 36.411 40.1818 36.8629 40.1854C39.6924 40.2057 42.5219 40.1961 45.3502 40.1937C45.9309 40.1937 45.9333 40.189 45.9333 39.6188C45.9345 35.4975 45.9309 31.3762 45.9416 27.255C45.9428 26.8768 45.8355 26.5906 45.5887 26.3067C44.2807 24.8049 42.9881 23.2876 41.6896 21.7751Z" fill="#003870"/>
<path d="M52.2313 20.5189C51.3001 19.4502 38.8182 5.02153 38.6919 4.87481C38.4581 4.60522 38.228 4.3416 37.9979 4.07918C36.2332 2.06685 33.5467 0.863275 30.8126 0.859696C27.2844 0.854925 23.4747 0.852539 18.8256 0.852539C15.9091 0.852539 13.0641 0.853732 10.3729 0.853732H9.37964C5.90624 0.854925 3.723 2.38415 2.502 3.66646C0.843409 5.4092 0.00278222 7.62789 0.00278222 10.2605C0.00278222 10.6458 0.00158984 11.0311 0.00158984 11.4247C-0.000794916 12.645 -0.00317968 13.907 0.0158983 15.1857C0.0457078 17.2303 0.702708 19.2688 1.86527 20.9269C2.45431 21.7667 3.06361 22.6219 3.74089 23.5595C3.77069 23.6012 3.78739 23.6513 3.78739 23.7014C3.785 25.4955 3.785 27.2895 3.78381 29.0836V29.179C3.78262 31.2987 3.78262 33.416 3.77904 35.5344C3.77427 38.5476 5.1157 41.3364 7.46111 43.1865C7.78782 43.4442 8.14434 43.7436 8.52232 44.0597L11.8252 46.8164L11.886 46.8676C16.4862 50.7062 21.2426 54.676 25.9298 58.573C27.6421 59.9961 29.8146 60.8048 32.0491 60.8513C32.5547 60.8621 33.0471 60.8633 33.3726 60.8633C33.5658 60.8633 33.753 60.8633 33.9331 60.8621C34.1107 60.8621 34.2896 60.8609 34.4684 60.8609C34.9072 60.8609 35.234 60.8645 35.5273 60.8716C35.6191 60.874 35.7049 60.8752 35.7908 60.8752C38.2996 60.8752 40.633 59.9412 42.362 58.2474C44.1565 56.4879 45.1367 54.0736 45.1235 51.4494C45.12 50.6418 45.1164 49.8235 45.1152 49.0064H45.3584C48.0461 49.0052 50.2985 48.1225 52.0548 46.3857C53.8374 44.6215 54.7425 42.3456 54.7437 39.6211V36.4828C54.7437 33.4661 54.7437 30.3456 54.752 27.2788C54.7592 24.7583 53.8875 22.4203 52.2313 20.5189ZM54.3907 36.4839V39.6223C54.3895 42.2502 53.5203 44.4414 51.8068 46.1364C50.1196 47.8064 47.9495 48.6533 45.3584 48.6557H44.7634C44.7646 49.5921 44.767 50.5285 44.7718 51.4541C44.7849 53.983 43.8417 56.3066 42.1164 57.9993C40.4542 59.6287 38.2077 60.5269 35.792 60.5269C35.7097 60.5269 35.6262 60.5257 35.538 60.5233C35.2411 60.5162 34.912 60.5126 34.4708 60.5126C34.292 60.5126 34.1131 60.5126 33.9355 60.5138C33.7554 60.5138 33.5682 60.515 33.3762 60.515C33.0519 60.515 32.5618 60.5138 32.0598 60.503C29.9362 60.4601 27.7864 59.6585 26.1588 58.307C21.4727 54.41 16.7151 50.4402 12.1149 46.6016L12.0541 46.5504L8.75126 43.7937C8.37089 43.4752 8.01199 43.1746 7.6817 42.9134C5.42214 41.1313 4.12841 38.4426 4.13318 35.5392C4.13675 33.4207 4.13795 31.3022 4.13795 29.1826V29.0871C4.13795 27.2466 4.13914 25.4048 4.14152 23.5643C4.14152 23.5309 4.13079 23.4987 4.11171 23.4712C3.40225 22.4907 2.7679 21.6008 2.15621 20.7277C1.033 19.1269 0.398651 17.1575 0.370034 15.1834C0.350956 13.907 0.354533 12.6462 0.355726 11.4271C0.356918 11.0323 0.356918 10.6482 0.356918 10.2629C0.358111 7.72331 1.16535 5.58693 2.75956 3.91218C4.46585 2.11934 6.69321 1.2092 9.38203 1.20801H10.3753C13.0664 1.20681 15.9115 1.20681 18.828 1.20681C23.4771 1.20681 27.2856 1.2092 30.8138 1.21397C33.4478 1.21755 36.0352 2.3758 37.7344 4.31298C37.9645 4.5754 38.1946 4.83902 38.4271 5.10741C38.5535 5.25294 51.0354 19.6816 51.9666 20.7515C53.5656 22.5873 54.4074 24.8454 54.4002 27.28C54.3907 30.3468 54.3907 33.4661 54.3907 36.4839Z" fill="#003870"/>
<path d="M32.5664 20.8252C30.6633 20.8384 28.7603 20.8455 26.8572 20.83C26.4745 20.8264 26.3898 20.9672 26.3958 21.3143C26.4125 22.3688 26.4018 23.4232 26.4029 24.4777C26.4041 25.5465 26.4125 26.6165 26.3982 27.6853C26.3934 28.0252 26.5138 28.1469 26.8584 28.1445C28.7615 28.1338 30.6645 28.135 32.5675 28.1457C32.8907 28.1481 33.0075 28.03 33.0063 27.7091C32.998 25.5561 32.9968 23.403 33.0063 21.2499C33.0075 20.9219 32.8847 20.8229 32.5664 20.8252Z" fill="#003870"/>
<path d="M19.0757 40.4098V38.7721C19.0685 32.9796 19.0685 27.186 19.0817 21.3935C19.0829 20.945 18.9576 20.8066 18.5141 20.8257C17.7092 20.8579 16.902 20.8365 16.0959 20.8365C15.4556 20.8365 15.4485 20.8353 15.4473 20.1756C15.4437 18.4591 15.4449 16.7438 15.4473 15.0273C15.4485 14.3772 15.4532 14.3772 16.1162 14.3772C22.2737 14.3772 28.4299 14.376 34.5873 14.376H35.1573C35.0607 14.2138 35.0333 14.1458 34.9868 14.0921C33.7873 12.6882 32.5925 11.2807 31.3751 9.89219C31.2535 9.75382 30.9947 9.6739 30.8004 9.6739C23.6616 9.66435 16.5216 9.66674 9.38288 9.66913C8.81293 9.66913 8.81293 9.6727 8.81174 10.2655C8.81174 11.864 8.7998 13.4623 8.82246 15.0607C8.82603 15.3327 8.91905 15.6464 9.07525 15.8683C10.1269 17.3677 11.2001 18.8516 12.2827 20.3295C12.5021 20.6289 12.5999 20.9247 12.5999 21.2981C12.5892 26.0504 12.5951 30.8015 12.588 35.5538C12.588 35.8603 12.6726 36.0786 12.9159 36.2707C13.456 36.6965 13.9807 37.1438 14.5101 37.5852C16.0316 38.8555 17.5542 40.1247 19.0757 41.3951V41.1243C19.0471 40.9919 19.0709 40.7713 19.0757 40.4098Z" fill="#003870"/>
<path d="M61.8936 18.2666H67.5025C70.9246 18.2761 72.6345 20.1513 72.6345 23.8909V31.4225C72.6345 34.1827 71.4052 35.9624 68.9453 36.7616C68.3551 36.9525 67.4977 37.0479 66.3721 37.0479H65.7461V44.9887H61.8936V18.2666ZM65.7461 22.067V33.2344H66.6309C67.1663 33.2344 67.5335 33.1986 67.7338 33.1247C68.4326 32.8431 68.7819 32.2765 68.7819 31.4225V23.892C68.7819 22.6753 68.2239 22.067 67.1066 22.067H65.7461Z" fill="#003870"/>
<path d="M87.6136 39.7986C87.6136 43.5394 85.7666 45.4145 82.0726 45.4241C78.3881 45.4241 76.5459 43.5489 76.5459 39.7986V18.2666H80.3985V39.7986C80.3985 41.0058 80.9565 41.6105 82.0726 41.6105C83.1886 41.6105 83.761 41.007 83.761 39.7986V18.2666H87.6136V39.7986Z" fill="#003870"/>
<path d="M91.3516 44.9887V18.2666H95.2041V41.1883H101.344V44.9875H91.3516V44.9887Z" fill="#003870"/>
<path d="M106.347 37.1163V39.799C106.347 41.0062 106.91 41.6109 108.035 41.6109C109.161 41.6109 109.709 41.0073 109.709 39.799V39.3087C109.709 38.0193 108.506 36.5127 106.101 34.7867C103.696 33.0702 102.493 30.9827 102.493 28.5219V23.4559C102.493 19.7151 104.335 17.8447 108.021 17.8447C111.707 17.8447 113.562 19.7151 113.562 23.4559V27.0511H109.709V23.4559C109.709 22.2571 109.151 21.6535 108.035 21.6439H108.008C106.9 21.6439 106.347 22.2475 106.347 23.4559V28.4408C106.347 29.63 107.549 31.0877 109.955 32.8125C112.36 34.529 113.562 36.5855 113.562 38.9819V39.799C113.562 43.5493 111.72 45.4244 108.035 45.4244C104.341 45.4149 102.494 43.5398 102.494 39.799V37.1163H106.347Z" fill="#003870"/>
<path d="M116.714 18.2666H126.706V22.067H120.566V33.2761H125.849V37.0897H120.566V41.1895H126.706V44.9887H116.714V18.2666Z" fill="#003870"/>
<path d="M147.35 36.572L151.828 18.2678H155.681V44.9887H151.992V29.9934L148.697 44.9887H146.084L142.694 29.9934V44.9887H138.964V18.2666H142.816L147.35 36.572Z" fill="#003870"/>
<path d="M165.515 24.3954L162.792 44.9875H158.912L162.887 18.2666H168.17L172.132 44.9875H168.238L165.515 24.3954Z" fill="#003870"/>
<path d="M175.39 18.2666H179.242V44.9875H175.39V18.2666Z" fill="#003870"/>
<path d="M186.787 37.1163V39.799C186.787 41.0062 187.35 41.6109 188.476 41.6109C189.601 41.6109 190.15 41.0073 190.15 39.799V39.3087C190.15 38.0193 188.947 36.5127 186.542 34.7867C184.136 33.0702 182.935 30.9827 182.935 28.5219V23.4559C182.935 19.7151 184.777 17.8447 188.461 17.8447C192.146 17.8447 194.002 19.7151 194.002 23.4559V27.0511H190.15V23.4559C190.15 22.2571 189.592 21.6535 188.476 21.6439H188.448C187.34 21.6439 186.787 22.2475 186.787 23.4559V28.4408C186.787 29.63 187.99 31.0877 190.395 32.8125C192.8 34.529 194.003 36.5855 194.003 38.9819V39.799C194.003 43.5493 192.161 45.4244 188.476 45.4244C184.782 45.4149 182.935 43.5398 182.935 39.799V37.1163H186.787Z" fill="#003870"/>
</g>
</g>
<defs>
<clipPath id="clip0_2001_18368">
<rect width="194" height="60" fill="white" transform="translate(0 0.852539)"/>
</clipPath>
</defs>
</svg>
