<svg width="55" height="60" viewBox="0 0 55 60" fill="none" xmlns="http://www.w3.org/2000/svg">
<path d="M52.2313 19.6664C51.3001 18.5977 38.8182 4.16899 38.6919 4.02227C38.4581 3.75268 38.228 3.48906 37.9979 3.22664C36.2332 1.21431 33.5467 0.010736 30.8126 0.00715697C27.2844 0.00238597 23.4747 0 18.8256 0C15.9091 0 13.0641 0.00119299 10.3729 0.00119299H9.37964C5.90624 0.00238599 3.723 1.53161 2.502 2.81392C0.843409 4.55666 0.00278222 6.77535 0.00278222 9.40796C0.00278222 9.79326 0.00158984 10.1786 0.00158984 10.5722C-0.000794914 11.7925 -0.00317968 13.0545 0.0158983 14.3332C0.0457078 16.3778 0.702708 18.4163 1.86527 20.0744C2.45431 20.9142 3.06361 21.7694 3.74089 22.707C3.77069 22.7487 3.78739 22.7988 3.78739 22.8489C3.785 24.643 3.785 26.437 3.78381 28.2311V28.3265C3.78262 30.4462 3.78262 32.5635 3.77904 34.6819C3.77427 37.6951 5.1157 40.4839 7.46111 42.334C7.78782 42.5917 8.14434 42.8911 8.52232 43.2072L11.8252 45.9639L11.886 46.0151C16.4862 49.8537 21.2426 53.8235 25.9298 57.7205C27.6421 59.1436 29.8146 59.9523 32.0491 59.9988C32.5547 60.0096 33.0471 60.0108 33.3726 60.0108C33.5658 60.0108 33.753 60.0108 33.9331 60.0096C34.1107 60.0096 34.2896 60.0084 34.4684 60.0084C34.9072 60.0084 35.234 60.012 35.5273 60.0191C35.6191 60.0215 35.7049 60.0227 35.7908 60.0227C38.2996 60.0227 40.633 59.0887 42.362 57.3949C44.1565 55.6354 45.1367 53.2211 45.1235 50.5969C45.12 49.7893 45.1164 48.971 45.1152 48.1539H45.3584C48.0461 48.1527 50.2985 47.27 52.0548 45.5332C53.8374 43.769 54.7425 41.4931 54.7437 38.7686V35.6303C54.7437 32.6136 54.7437 29.4931 54.752 26.4263C54.7592 23.9058 53.8875 21.5678 52.2313 19.6664Z" fill="white"/>
<path d="M37.0929 5.40726C36.864 5.14365 36.6362 4.88241 36.4085 4.62237C35.0384 3.05975 32.9458 2.12575 30.8102 2.12337C27.2844 2.1186 23.4771 2.11621 18.8304 2.11621C15.9127 2.11621 13.0677 2.1174 10.3753 2.1174H9.38203C7.19521 2.1186 5.39591 2.84384 4.03541 4.27406C2.11926 6.28877 2.11806 8.63867 2.11806 9.41046C2.11806 9.79696 2.11687 10.1823 2.11687 10.5783C2.11449 11.7902 2.1121 13.0427 2.12999 14.3047C2.15383 15.9293 2.6749 17.548 3.59661 18.8625C4.28819 19.849 5.00958 20.8582 5.8359 21.9985C5.87882 22.057 5.90267 22.1297 5.90267 22.2013C5.90029 24.2124 5.89909 26.2236 5.8979 28.2347V28.3313C5.89671 30.451 5.89671 32.5707 5.89313 34.6892C5.88956 37.0832 6.91142 39.2101 8.77034 40.6761C9.1209 40.9528 9.48935 41.2618 9.88045 41.5886L13.1809 44.3429L13.2692 44.4156C17.8598 48.2458 22.6067 52.2073 27.2832 56.0959C28.6091 57.1981 30.3619 57.8506 32.0932 57.8852C32.5797 57.8948 33.0567 57.8959 33.3739 57.8959C33.5599 57.8959 33.7399 57.8959 33.914 57.8948H33.9295C34.1119 57.8948 34.2908 57.8936 34.4697 57.8936C34.9275 57.8936 35.2697 57.8971 35.5821 57.9055C35.6549 57.9067 35.7228 57.9079 35.792 57.9079C37.7725 57.9079 39.5325 57.2077 40.8835 55.8836C42.2857 54.5083 43.0214 52.6832 43.0107 50.6065C43.0035 49.0952 43.0011 47.5528 42.9999 46.0391H43.5329L45.3573 46.0367C46.1442 46.0367 48.5397 46.0343 50.5691 44.0268C52.6296 41.9882 52.6296 39.562 52.6308 38.7651V35.6268C52.6308 32.6089 52.6308 29.4872 52.6391 26.418C52.6451 24.4164 51.9523 22.5616 50.6383 21.0526C49.7035 19.9838 37.2193 5.55279 37.0929 5.40726ZM51.7484 35.6303V38.7675C51.7484 39.4737 51.7472 41.6232 49.9491 43.4029C48.1772 45.1552 46.0536 45.1576 45.3561 45.1576L43.5317 45.16H42.1188C42.12 46.954 42.12 48.8053 42.1295 50.6136C42.139 52.447 41.4951 54.0526 40.267 55.2574C39.0842 56.4168 37.5376 57.0288 35.792 57.0288C35.73 57.0288 35.668 57.0276 35.6048 57.0264C35.2852 57.018 34.9359 57.0144 34.4697 57.0144C34.2884 57.0144 34.1084 57.0144 33.9271 57.0156C33.7495 57.0156 33.5646 57.0168 33.3739 57.0168C33.0615 57.0168 32.5905 57.0156 32.1111 57.0061C30.5753 56.9751 29.0205 56.3965 27.846 55.4196C23.1659 51.5274 18.4143 47.5623 13.8188 43.7274L13.7461 43.6665L10.448 40.9134C10.0521 40.5818 9.67774 40.2681 9.31764 39.9842C7.67455 38.6888 6.77192 36.8089 6.77549 34.6904C6.77907 32.5707 6.78026 30.451 6.78026 28.3313V28.2347C6.78146 26.1162 6.78146 23.9989 6.78503 21.8804C6.78503 21.8303 6.76834 21.7802 6.73972 21.7397C5.83471 20.4944 5.06085 19.4113 4.31919 18.3556C3.49764 17.1842 3.03381 15.7409 3.01235 14.2916C2.99446 13.0355 2.99685 11.7866 2.99923 10.5795C3.00042 10.1834 3.00042 9.79696 3.00042 9.41046C3.00042 8.72575 3.00162 6.64066 4.67452 4.88122C5.86213 3.63231 7.4468 2.99891 9.38323 2.99891H10.3765C13.07 2.99772 15.9151 2.99772 18.834 2.99772C23.4783 2.99772 27.2844 3.00011 30.8114 3.00488C32.6978 3.00726 34.5436 3.82913 35.7491 5.20448C35.9768 5.46333 36.2034 5.72337 36.4299 5.9846C36.5563 6.13013 49.0405 20.5623 49.9753 21.6359C51.1475 22.9814 51.7639 24.6359 51.7591 26.4204C51.7484 29.4908 51.7484 32.6124 51.7484 35.6303Z" fill="#003870"/>
<path d="M35.1608 7.07925C34.9379 6.82159 34.7125 6.56394 34.4872 6.30748C33.5941 5.28879 32.2181 4.68044 30.8051 4.67805C27.2911 4.67328 23.4946 4.6709 18.8575 4.6709C16.0816 4.6709 13.3773 4.67209 10.8066 4.67209H9.38048C8.83556 4.67209 7.17935 4.67328 5.88442 6.03432C4.67177 7.30827 4.67177 8.83511 4.67177 9.40886C4.67177 9.79656 4.67058 10.1843 4.67058 10.5815C4.6682 11.7851 4.66581 13.028 4.6837 14.2661C4.70039 15.3826 5.05572 16.4932 5.68649 17.3926C6.40549 18.4184 8.06767 20.7182 8.39915 21.1775C8.4373 21.2312 8.45758 21.2932 8.45758 21.3588C8.45638 22.0518 8.45281 26.1707 8.45161 28.2343V28.3465C8.45042 30.4614 8.45042 32.5763 8.44684 34.6912C8.44446 36.2848 9.12054 37.6972 10.3511 38.6681C10.7314 38.9675 11.1118 39.2872 11.516 39.626L14.919 42.4661C19.2629 46.0912 24.1862 50.1981 28.9152 54.131C29.8035 54.8693 30.9804 55.3071 32.1453 55.331C32.6068 55.3405 33.0658 55.3417 33.3699 55.3417C33.5571 55.3417 33.7383 55.3417 33.9136 55.3405C34.0984 55.3405 34.2844 55.3393 34.4717 55.3393C34.7948 55.3393 35.2205 55.3405 35.6461 55.3512C35.695 55.3524 35.7439 55.3524 35.7916 55.3524C37.0889 55.3524 38.2312 54.9051 39.0945 54.0594C39.9924 53.1791 40.4622 51.9898 40.455 50.6204C40.4455 48.7667 40.4455 46.8928 40.4443 45.0797V43.4896L41.056 43.486C41.3827 43.4836 41.7082 43.4836 42.0325 43.4836H43.529L45.3521 43.4812C45.9364 43.4812 47.4877 43.4801 48.7695 42.2109C50.0715 40.9226 50.0715 39.4113 50.0727 38.7659V35.5417C50.0727 32.55 50.0727 29.4558 50.0811 26.4117C50.0847 25.0387 49.6101 23.7671 48.7087 22.7317C47.7726 21.6582 35.2849 7.22239 35.1608 7.07925ZM48.6645 35.5441V38.7671C48.6645 39.3158 48.6645 40.3369 47.7798 41.2113C46.9082 42.0737 45.8577 42.0737 45.3521 42.0749L43.5278 42.0773H42.0349C41.707 42.0773 41.3791 42.0785 41.05 42.0797L39.0349 42.0916V45.0677C39.0373 46.8868 39.0373 48.7691 39.0468 50.6312C39.0516 51.6248 38.7368 52.4407 38.1096 53.0562C37.5075 53.6467 36.7276 53.9461 35.7928 53.9461C35.7558 53.9461 35.7189 53.9461 35.6831 53.9449C35.2789 53.9341 34.8747 53.9317 34.4728 53.9317C34.2844 53.9317 34.0972 53.9317 33.9112 53.9329C33.7383 53.9329 33.5571 53.9341 33.3711 53.9341C32.9859 53.9341 32.5782 53.9317 32.1751 53.9234C31.3369 53.9067 30.4557 53.5787 29.8178 53.049C25.1496 49.1663 20.4087 45.2109 15.824 41.3854L12.4281 38.5512C12.0144 38.2053 11.6245 37.8773 11.2275 37.5636C10.3308 36.8562 9.85743 35.8649 9.85981 34.6972C9.86339 32.5763 9.86458 30.4554 9.86458 28.3357V28.2379C9.86577 25.9811 9.86578 23.723 9.87054 21.4661V20.9437C9.87174 20.853 9.84312 20.7647 9.78946 20.692L9.48183 20.2697C8.47904 18.8944 7.6408 17.7242 6.84429 16.5874C6.37449 15.917 6.10859 15.088 6.09667 14.2506C6.07878 13.0232 6.08116 11.7862 6.08355 10.5886C6.08474 10.1914 6.08474 9.80246 6.08474 9.41486C6.08474 8.91623 6.08474 7.87726 6.90868 7.01126C7.78746 6.0868 8.9071 6.0868 9.38405 6.0868H10.3773C13.0756 6.08561 15.929 6.08561 18.861 6.08561C22.7625 6.08561 26.8035 6.0868 30.8063 6.09277C31.8043 6.09396 32.8095 6.53412 33.4307 7.24147C33.6549 7.49674 33.8778 7.75201 34.0972 8.00609C34.2236 8.15161 46.7114 22.5886 47.6498 23.6657C48.3235 24.4387 48.6777 25.3906 48.6753 26.4152C48.6645 29.4546 48.6645 32.55 48.6645 35.5441Z" fill="#003870"/>
<path d="M41.6896 20.9226C41.0541 20.183 40.4185 19.4434 39.7007 18.6084C39.6852 18.8685 39.6709 19.0057 39.6709 19.144C39.6697 24.043 39.6709 28.9408 39.6697 33.8398C39.6697 34.4279 39.6578 34.4351 39.0867 34.4351C35.0409 34.4339 30.9952 34.4422 26.9482 34.4231C26.5738 34.422 26.4403 34.5281 26.4033 34.7894V46.6498C28.1215 48.0824 29.8398 49.515 31.5604 50.9452C31.7344 51.0896 32.0027 51.185 32.2293 51.1898C33.4014 51.2136 34.5747 51.1814 35.7468 51.2112C36.1927 51.222 36.3156 51.0895 36.3132 50.6422C36.2953 47.0637 36.3096 43.4852 36.2941 39.9066C36.2917 39.4677 36.411 39.3293 36.8629 39.3329C39.6924 39.3532 42.5219 39.3436 45.3502 39.3412C45.9309 39.3412 45.9333 39.3365 45.9333 38.7663C45.9345 34.645 45.9309 30.5237 45.9416 26.4025C45.9428 26.0243 45.8355 25.7381 45.5887 25.4542C44.2807 23.9524 42.9881 22.4351 41.6896 20.9226Z" fill="#003870"/>
<path d="M52.2313 19.6664C51.3001 18.5977 38.8182 4.16899 38.6919 4.02227C38.4581 3.75268 38.228 3.48906 37.9979 3.22664C36.2332 1.21431 33.5467 0.010736 30.8126 0.00715697C27.2844 0.00238597 23.4747 0 18.8256 0C15.9091 0 13.0641 0.00119299 10.3729 0.00119299H9.37964C5.90624 0.00238599 3.723 1.53161 2.502 2.81392C0.843409 4.55666 0.00278222 6.77535 0.00278222 9.40796C0.00278222 9.79326 0.00158984 10.1786 0.00158984 10.5722C-0.000794914 11.7925 -0.00317968 13.0545 0.0158983 14.3332C0.0457078 16.3778 0.702708 18.4163 1.86527 20.0744C2.45431 20.9142 3.06361 21.7694 3.74089 22.707C3.77069 22.7487 3.78739 22.7988 3.78739 22.8489C3.785 24.643 3.785 26.437 3.78381 28.2311V28.3265C3.78262 30.4462 3.78262 32.5635 3.77904 34.6819C3.77427 37.6951 5.1157 40.4839 7.46111 42.334C7.78782 42.5917 8.14434 42.8911 8.52232 43.2072L11.8252 45.9639L11.886 46.0151C16.4862 49.8537 21.2426 53.8235 25.9298 57.7205C27.6421 59.1436 29.8146 59.9523 32.0491 59.9988C32.5547 60.0096 33.0471 60.0108 33.3726 60.0108C33.5658 60.0108 33.753 60.0108 33.9331 60.0096C34.1107 60.0096 34.2896 60.0084 34.4684 60.0084C34.9072 60.0084 35.234 60.012 35.5273 60.0191C35.6191 60.0215 35.7049 60.0227 35.7908 60.0227C38.2996 60.0227 40.633 59.0887 42.362 57.3949C44.1565 55.6354 45.1367 53.2211 45.1235 50.5969C45.12 49.7893 45.1164 48.971 45.1152 48.1539H45.3584C48.0461 48.1527 50.2985 47.27 52.0548 45.5332C53.8374 43.769 54.7425 41.4931 54.7437 38.7686V35.6303C54.7437 32.6136 54.7437 29.4931 54.752 26.4263C54.7592 23.9058 53.8875 21.5678 52.2313 19.6664ZM54.3907 35.6314V38.7698C54.3895 41.3977 53.5203 43.5889 51.8068 45.2839C50.1196 46.9539 47.9495 47.8008 45.3584 47.8032H44.7634C44.7646 48.7396 44.767 49.676 44.7718 50.6016C44.7849 53.1305 43.8417 55.4541 42.1164 57.1468C40.4542 58.7762 38.2077 59.6744 35.792 59.6744C35.7097 59.6744 35.6262 59.6732 35.538 59.6708C35.2411 59.6637 34.912 59.6601 34.4708 59.6601C34.292 59.6601 34.1131 59.6601 33.9355 59.6613C33.7554 59.6613 33.5682 59.6625 33.3762 59.6625C33.0519 59.6625 32.5618 59.6613 32.0598 59.6505C29.9362 59.6076 27.7864 58.806 26.1588 57.4545C21.4727 53.5575 16.7151 49.5877 12.1149 45.7491L12.0541 45.6979L8.75126 42.9412C8.37089 42.6227 8.01199 42.3221 7.6817 42.0609C5.42214 40.2788 4.12841 37.5901 4.13318 34.6867C4.13675 32.5682 4.13795 30.4497 4.13795 28.3301V28.2346C4.13795 26.3941 4.13914 24.5523 4.14152 22.7118C4.14152 22.6784 4.13079 22.6462 4.11171 22.6187C3.40225 21.6382 2.7679 20.7483 2.15621 19.8752C1.033 18.2744 0.398651 16.305 0.370034 14.3309C0.350956 13.0545 0.354533 11.7937 0.355726 10.5746C0.356918 10.1798 0.356918 9.79566 0.356918 9.41036C0.358111 6.87077 1.16535 4.73439 2.75956 3.05964C4.46585 1.2668 6.69321 0.356661 9.38203 0.355471H10.3753C13.0664 0.354271 15.9115 0.354271 18.828 0.354271C23.4771 0.354271 27.2856 0.356661 30.8138 0.361431C33.4478 0.365011 36.0352 1.52326 37.7344 3.46044C37.9645 3.72286 38.1946 3.98648 38.4271 4.25487C38.5535 4.4004 51.0354 18.8291 51.9666 19.899C53.5656 21.7348 54.4074 23.9929 54.4002 26.4275C54.3907 29.4943 54.3907 32.6136 54.3907 35.6314Z" fill="#003870"/>
<path d="M32.5664 19.9727C30.6633 19.9859 28.7603 19.993 26.8572 19.9775C26.4745 19.9739 26.3898 20.1147 26.3958 20.4618C26.4125 21.5163 26.4018 22.5707 26.4029 23.6252C26.4041 24.694 26.4125 25.764 26.3982 26.8328C26.3934 27.1727 26.5138 27.2944 26.8584 27.292C28.7615 27.2813 30.6645 27.2825 32.5675 27.2932C32.8907 27.2956 33.0075 27.1775 33.0063 26.8566C32.998 24.7036 32.9968 22.5505 33.0063 20.3974C33.0075 20.0694 32.8847 19.9704 32.5664 19.9727Z" fill="#003870"/>
<path d="M19.0757 39.5573V37.9196C19.0685 32.1271 19.0685 26.3335 19.0817 20.541C19.0829 20.0925 18.9576 19.9541 18.5141 19.9732C17.7092 20.0054 16.902 19.984 16.0959 19.984C15.4556 19.984 15.4485 19.9828 15.4473 19.3231C15.4437 17.6066 15.4449 15.8913 15.4473 14.1748C15.4485 13.5247 15.4532 13.5247 16.1162 13.5247C22.2737 13.5247 28.4299 13.5235 34.5873 13.5235H35.1573C35.0607 13.3613 35.0333 13.2933 34.9868 13.2396C33.7873 11.8357 32.5925 10.4282 31.3751 9.03965C31.2535 8.90128 30.9947 8.82136 30.8004 8.82136C23.6616 8.81181 16.5216 8.8142 9.38288 8.81659C8.81293 8.81659 8.81293 8.82016 8.81174 9.41296C8.81174 11.0115 8.7998 12.6098 8.82246 14.2082C8.82603 14.4802 8.91905 14.7939 9.07525 15.0158C10.1269 16.5152 11.2001 17.9991 12.2827 19.477C12.5021 19.7764 12.5999 20.0722 12.5999 20.4456C12.5892 25.1979 12.5951 29.949 12.588 34.7013C12.588 35.0078 12.6726 35.2261 12.9159 35.4182C13.456 35.844 13.9807 36.2913 14.5101 36.7327C16.0316 38.003 17.5542 39.2722 19.0757 40.5426V40.2718C19.0471 40.1394 19.0709 39.9188 19.0757 39.5573Z" fill="#003870"/>
</svg>
