<svg width="31" height="31" viewBox="0 0 31 31" fill="none" xmlns="http://www.w3.org/2000/svg">
<path d="M30.9978 15.5046C30.9978 23.3351 25.1951 29.8087 17.6569 30.8592C16.952 30.957 16.2309 31.008 15.4989 31.008C14.654 31.008 13.8242 30.9407 13.0162 30.8103C5.63656 29.6219 0 23.221 0 15.5046C0 6.94185 6.93981 0 15.5 0C24.0602 0 31 6.94185 31 15.5046H30.9978Z" fill="#25B957"/>
<g clip-path="url(#clip0_137_168)">
<path d="M20.2501 8.78564C20.7699 8.78564 21.2846 8.88803 21.7649 9.08695C22.2451 9.28588 22.6815 9.57745 23.049 9.94501C23.4166 10.3126 23.7082 10.7489 23.9071 11.2292C24.106 11.7094 24.2084 12.2242 24.2084 12.744V19.0773C24.2084 19.5971 24.106 20.1119 23.9071 20.5921C23.7082 21.0723 23.4166 21.5087 23.049 21.8763C22.6815 22.2438 22.2451 22.5354 21.7649 22.7343C21.2846 22.9333 20.7699 23.0356 20.2501 23.0356H10.7501C10.2303 23.0356 9.71554 22.9333 9.23529 22.7343C8.75505 22.5354 8.31868 22.2438 7.95112 21.8763C7.20879 21.1339 6.79175 20.1271 6.79175 19.0773V12.744C6.79175 11.6942 7.20879 10.6873 7.95112 9.94501C8.69345 9.20268 9.70027 8.78564 10.7501 8.78564H20.2501ZM13.1251 13.5356V18.2856C13.1252 18.4256 13.1624 18.5631 13.233 18.684C13.3036 18.805 13.4049 18.905 13.5268 18.974C13.6486 19.0429 13.7866 19.0784 13.9265 19.0766C14.0665 19.0749 14.2036 19.0361 14.3237 18.9641L18.282 16.5891C18.399 16.5187 18.4959 16.4193 18.5631 16.3004C18.6304 16.1815 18.6657 16.0472 18.6657 15.9106C18.6657 15.7741 18.6304 15.6398 18.5631 15.5209C18.4959 15.402 18.399 15.3026 18.282 15.2322L14.3237 12.8572C14.2036 12.7852 14.0665 12.7464 13.9265 12.7447C13.7866 12.7429 13.6486 12.7784 13.5268 12.8473C13.4049 12.9163 13.3036 13.0163 13.233 13.1373C13.1624 13.2582 13.1252 13.3956 13.1251 13.5356Z" fill="white"/>
</g>
<defs>
<clipPath id="clip0_137_168">
<rect width="19" height="19" fill="white" transform="translate(6 6.41064)"/>
</clipPath>
</defs>
</svg>
