<svg width="48" height="48" viewBox="0 0 48 48" fill="none" xmlns="http://www.w3.org/2000/svg">
<path d="M23.7855 0H23.6774C10.6007 0 0 10.6038 0 23.6844V23.7925C0 36.873 10.6007 47.4768 23.6774 47.4768H23.7855C36.8621 47.4768 47.4628 36.873 47.4628 23.7925V23.6844C47.4628 10.6038 36.8621 0 23.7855 0Z" fill="#25B957"/>
<path d="M31.0752 9.65894H16.3889C12.3315 9.65894 9.03076 12.9607 9.03076 17.0192V30.459C9.03076 34.5176 12.3315 37.8193 16.3889 37.8193H31.0752C35.1326 37.8193 38.4333 34.5176 38.4333 30.459V17.0192C38.4333 12.9607 35.1326 9.65894 31.0752 9.65894ZM11.6265 17.0192C11.6265 14.3928 13.7632 12.2554 16.3889 12.2554H31.0752C33.7009 12.2554 35.8376 14.3928 35.8376 17.0192V30.459C35.8376 33.0855 33.7009 35.2229 31.0752 35.2229H16.3889C13.7632 35.2229 11.6265 33.0855 11.6265 30.459V17.0192Z" fill="white"/>
<path d="M23.7318 30.5842C27.5048 30.5842 30.5761 27.5137 30.5761 23.7379C30.5761 19.9621 27.5064 16.8916 23.7318 16.8916C19.9571 16.8916 16.8875 19.9621 16.8875 23.7379C16.8875 27.5137 19.9571 30.5842 23.7318 30.5842ZM23.7318 19.4897C26.0747 19.4897 27.9804 21.3959 27.9804 23.7396C27.9804 26.0832 26.0747 27.9894 23.7318 27.9894C21.3888 27.9894 19.4832 26.0832 19.4832 23.7396C19.4832 21.3959 21.3888 19.4897 23.7318 19.4897Z" fill="white"/>
<path d="M31.2101 17.9974C32.2261 17.9974 33.0542 17.1707 33.0542 16.1528C33.0542 15.1348 32.2277 14.3081 31.2101 14.3081C30.1924 14.3081 29.366 15.1348 29.366 16.1528C29.366 17.1707 30.1924 17.9974 31.2101 17.9974Z" fill="white"/>
</svg>
