<svg width="40" height="40" viewBox="0 0 40 40" fill="none" xmlns="http://www.w3.org/2000/svg">
<path d="M20.0063 0H19.9154C8.91644 0 0 8.91907 0 19.9213V20.0122C0 31.0145 8.91644 39.9335 19.9154 39.9335H20.0063C31.0053 39.9335 39.9218 31.0145 39.9218 20.0122V19.9213C39.9218 8.91907 31.0053 0 20.0063 0Z" fill="#25B957"/>
<path d="M23.8515 25.8072C18.7422 25.8072 14.5854 21.6477 14.584 16.537C14.5854 15.2414 15.64 14.1879 16.9323 14.1879C17.0652 14.1879 17.1967 14.1991 17.3225 14.2215C17.5995 14.2677 17.8624 14.3614 18.1044 14.5027C18.1394 14.5237 18.1631 14.5573 18.1687 14.5965L18.7086 18.0004C18.7156 18.0396 18.703 18.0801 18.6764 18.1095C18.3785 18.4397 17.9981 18.6775 17.5743 18.7964L17.3701 18.8538L17.447 19.0511C18.1436 20.8251 19.5618 22.2423 21.3367 22.9419L21.5339 23.0202L21.5912 22.816C21.7101 22.3921 21.9479 22.0115 22.278 21.7135C22.3018 21.6911 22.3339 21.6799 22.3661 21.6799C22.3731 21.6799 22.3801 21.6799 22.3885 21.6813L25.7914 22.2214C25.832 22.2284 25.8655 22.2507 25.8865 22.2857C26.0264 22.5278 26.1201 22.7922 26.1676 23.0692C26.19 23.1923 26.1998 23.3224 26.1998 23.4581C26.1998 24.7523 25.1466 25.8058 23.8515 25.8072Z" fill="white"/>
<path d="M32.9118 18.8454C32.6363 15.7311 31.2096 12.842 28.8949 10.7113C26.5661 8.5679 23.545 7.38708 20.3854 7.38708C13.4509 7.38708 7.80876 13.0309 7.80876 19.9675C7.80876 22.2955 8.45073 24.5634 9.66616 26.5389L6.95557 32.5409L15.6342 31.6161C17.1434 32.2345 18.7406 32.5479 20.384 32.5479C20.8162 32.5479 21.2596 32.5255 21.7044 32.4793C22.096 32.4373 22.4918 32.3758 22.8806 32.2974C28.6879 31.1236 32.9272 25.9681 32.9607 20.0346V19.9675C32.9607 19.5897 32.944 19.212 32.9104 18.8468L32.9118 18.8454ZM15.9685 28.9817L11.1669 29.4937L12.6005 26.3164L12.3138 25.9317C12.2928 25.9037 12.2719 25.8757 12.2481 25.8435C11.0033 24.1241 10.3459 22.0927 10.3459 19.9689C10.3459 14.4314 14.8496 9.92639 20.3854 9.92639C25.5716 9.92639 29.9676 13.9739 30.3914 19.1406C30.4138 19.4176 30.4264 19.6961 30.4264 19.9703C30.4264 20.0486 30.425 20.1256 30.4236 20.2081C30.3173 24.8404 27.0822 28.7746 22.5562 29.7763C22.2107 29.8533 21.8568 29.912 21.5044 29.9498C21.1379 29.9918 20.7617 30.0128 20.3882 30.0128C19.0581 30.0128 17.7658 29.7553 16.5447 29.2461C16.4091 29.1915 16.2762 29.1328 16.1517 29.0726L15.9699 28.9845L15.9685 28.9817Z" fill="white"/>
</svg>
