<svg width="185" height="168" viewBox="0 0 185 168" fill="none" xmlns="http://www.w3.org/2000/svg">
<path d="M117.604 165.454C117.528 165.483 117.448 165.512 117.372 165.541C117.448 165.512 117.528 165.487 117.604 165.454Z" fill="#4285F4"/>
<path d="M118.975 164.747C118.844 164.834 118.706 164.914 118.568 164.993C118.706 164.917 118.841 164.834 118.975 164.747Z" fill="#4285F4"/>
<path d="M118.304 165.139C118.202 165.194 118.097 165.241 117.992 165.292C118.097 165.244 118.202 165.194 118.304 165.139Z" fill="#4285F4"/>
<path d="M121.017 162.74C120.898 162.914 120.771 163.085 120.636 163.248C120.771 163.085 120.898 162.918 121.017 162.74Z" fill="#4285F4"/>
<path d="M115.523 165.941C115.411 165.951 115.298 165.955 115.182 165.959C115.295 165.955 115.411 165.951 115.523 165.941Z" fill="#4285F4"/>
<path d="M119.656 164.25C119.635 164.267 119.614 164.287 119.589 164.304C119.61 164.287 119.631 164.267 119.656 164.25Z" fill="#EB4C3F"/>
<path d="M120.167 163.789C120.167 163.789 120.15 163.811 120.139 163.817L120.167 163.789Z" fill="#EB4C3F"/>
<path d="M120.646 163.244C120.646 163.244 120.617 163.282 120.603 163.296C120.617 163.278 120.632 163.259 120.646 163.244Z" fill="#EB4C3F"/>
<path d="M119.125 164.649C119.077 164.682 119.028 164.716 118.976 164.749C119.024 164.716 119.077 164.682 119.125 164.649Z" fill="#EB4C3F"/>
<path d="M121.11 162.61C121.08 162.655 121.054 162.7 121.023 162.741C121.054 162.696 121.08 162.655 121.11 162.61Z" fill="#EB4C3F"/>
<path d="M117.409 151.127H112.665L110.292 155.239C108.035 159.151 109.385 164.199 113.297 166.456C114.68 167.254 116.204 167.592 117.699 167.534C117.826 167.53 117.953 167.527 118.076 167.516C118.247 167.501 118.417 167.479 118.588 167.454C118.671 167.443 118.758 167.429 118.842 167.414C119.027 167.381 119.212 167.338 119.397 167.294C119.47 167.276 119.542 167.258 119.615 167.24C119.789 167.189 119.963 167.135 120.137 167.073C120.225 167.044 120.312 167.011 120.395 166.979C120.54 166.924 120.682 166.859 120.823 166.797C120.939 166.743 121.056 166.688 121.172 166.63C121.27 166.579 121.368 166.525 121.466 166.471C121.618 166.383 121.77 166.293 121.916 166.195C121.97 166.158 122.025 166.122 122.075 166.086C122.253 165.963 122.427 165.832 122.598 165.694C122.62 165.676 122.641 165.658 122.66 165.643C122.848 165.487 123.03 165.324 123.2 165.15C123.208 165.142 123.215 165.135 123.222 165.128C123.4 164.95 123.567 164.765 123.726 164.573C123.737 164.558 123.752 164.54 123.763 164.525C123.912 164.344 124.053 164.155 124.184 163.963C124.216 163.916 124.245 163.869 124.274 163.821C125.12 162.53 125.621 160.991 125.621 159.343C125.621 154.825 121.927 151.131 117.409 151.131V151.127Z" fill="#004DBC"/>
<path d="M113.288 166.456C109.376 164.199 108.023 159.151 110.283 155.239L112.657 151.127H34.413C35.2077 153.726 35.6396 156.48 35.6396 159.34C35.6396 162.199 35.2077 164.954 34.413 167.552H117.4C117.498 167.552 117.592 167.541 117.69 167.537C116.195 167.596 114.671 167.258 113.288 166.46V166.456Z" fill="#0071BD"/>
<path d="M34.4206 151.127H8.21232C3.69427 151.127 0 154.822 0 159.34C0 163.858 3.69427 167.552 8.21232 167.552H34.4206C35.2153 164.954 35.6472 162.199 35.6472 159.34C35.6472 156.48 35.2153 153.726 34.4206 151.127Z" fill="#004DBC"/>
<path d="M112.723 151.113H117.466C121.984 151.113 125.678 154.807 125.678 159.325C125.678 160.976 125.181 162.515 124.332 163.803C124.411 163.68 124.495 163.564 124.571 163.437L152.354 114.355L145.144 93.7574L112.719 151.113H112.723Z" fill="#0071BD"/>
<path d="M158.214 87.4541C154.302 85.1969 149.254 86.5469 146.997 90.4589L145.135 93.754L152.346 114.352L161.222 98.6712C163.48 94.7592 162.13 89.7113 158.218 87.4541H158.214Z" fill="#004DBC"/>
<path d="M175.642 131.208L131.641 5.49035C130.414 1.98116 127.007 -0.170807 123.461 0.0106402H91.2942C86.7762 0.0106402 83.0819 3.70491 83.0819 8.22295C83.0819 12.741 86.7762 16.4353 91.2942 16.4353H118.072L145.137 93.7609L146.999 90.4659C149.256 86.5538 154.304 85.2002 158.216 87.4611C162.128 89.7183 163.481 94.7662 161.22 98.6782L152.344 114.359L160.139 136.633L160.244 136.931C164.592 133.676 169.923 131.658 175.707 131.397L175.642 131.212V131.208Z" fill="#34A853"/>
<path d="M179.504 167.077C183.768 165.585 186.033 160.875 184.541 156.614L175.715 131.393C169.931 131.654 164.6 133.672 160.252 136.927L169.042 162.04C170.533 166.304 175.244 168.568 179.504 167.077Z" fill="#0071BD"/>
</svg>
